<?xml version="1.0" standalone="no"?>
<!DOCTYPE svg PUBLIC "-//W3C//DTD SVG 1.1//EN" "http://www.w3.org/Graphics/SVG/1.1/DTD/svg11.dtd" >
<svg>
<metadata>
Created by FontForge 20090622 at Wed Mar 21 09:28:40 2018
 By deploy user
Copyright (c) 2016 by S-Core Co., Ltd.. All rights reserved.
</metadata>
<defs>
<font id="CoreSansC-45Regular" horiz-adv-x="811" >
  <font-face 
    font-family="CoreSansC-45Regular"
    font-weight="400"
    font-stretch="normal"
    units-per-em="2048"
    panose-1="2 11 6 3 3 3 2 2 2 4"
    ascent="1638"
    descent="-410"
    x-height="1061"
    cap-height="1434"
    bbox="-790 -532.062 2544 1997"
    underline-thickness="49"
    underline-position="-375"
    unicode-range="U+0009-U+FB04"
  />
<missing-glyph horiz-adv-x="1024" 
d="M290 150h444v1235h-444v-1235zM891 0h-758v1536h758v-1536z" />
    <glyph glyph-name="ff" unicode="ff" horiz-adv-x="1460" 
d="M1321 1331q-113 0 -161 -51t-48 -157v-62h302v-164h-302v-897h-186v897h-510v-897h-187v897h-183v164h183v64q0 188 95 279t296 91q88 0 156 -19l-30 -158q-60 13 -117 13q-114 0 -164 -51t-49 -157v-62h510v64q0 187 93 279t287 91q53 0 108 -8v-161q-43 5 -93 5z" />
    <glyph glyph-name="fi" unicode="fi" horiz-adv-x="1286" 
d="M896 1358q0 52 35 86q35 36 87 36t88 -36t36 -86q0 -52 -36 -88t-87 -35q-52 0 -88 35q-35 36 -35 88zM416 1123v-62h696v-1061h-186v897h-510v-897h-187v897h-183v164h183v64q0 188 94 279t289 91q65 0 111 -8v-161q-44 5 -95 5q-113 0 -163 -51q-49 -52 -49 -157z" />
    <glyph glyph-name="fl" unicode="fl" horiz-adv-x="1286" 
d="M926 0v1495h186v-1495h-186zM625 1331q-112 0 -161 -51t-48 -157v-62h302v-164h-302v-897h-187v897h-183v164h183v64q-1 187 93 279t287 91q54 0 109 -8v-161q-43 5 -93 5z" />
    <glyph glyph-name="ffi" unicode="ffi" horiz-adv-x="1982" 
d="M416 1123v-62h510v64q0 188 93 279q94 91 290 91q65 0 110 -8v-161q-44 5 -95 5q-112 0 -162 -51t-50 -157v-62h696v-1061h-186v897h-510v-897h-186v897h-510v-897h-187v897h-183v164h183v64q0 188 95 279t296 91q88 0 156 -19l-30 -158q-60 13 -117 13q-114 0 -164 -51
q-49 -52 -49 -157zM1592 1358q0 52 36 86q36 36 87 36t87 -36t36 -86q0 -52 -35 -88t-87 -35q-52 -1 -88 35t-36 88z" />
    <glyph glyph-name="ffl" unicode="ffl" horiz-adv-x="1982" 
d="M1622 0v1495h186v-1495h-186zM1321 1331q-113 0 -161 -51t-48 -157v-62h302v-164h-302v-897h-186v897h-510v-897h-187v897h-183v164h183v64q0 188 95 279t296 91q88 0 156 -19l-30 -158q-60 13 -117 13q-114 0 -164 -51t-49 -157v-62h510v64q0 187 93 279t287 91
q53 0 108 -8v-161q-43 5 -93 5z" />
    <glyph glyph-name=".notdef" horiz-adv-x="1024" 
d="M290 150h444v1235h-444v-1235zM891 0h-758v1536h758v-1536z" />
    <glyph glyph-name=".null" horiz-adv-x="0" 
 />
    <glyph glyph-name=".null" horiz-adv-x="0" 
 />
    <glyph glyph-name="nonmarkingreturn" horiz-adv-x="681" 
 />
    <glyph glyph-name="CR" unicode="&#x9;" horiz-adv-x="0" 
 />
    <glyph glyph-name="space" unicode=" " horiz-adv-x="608" 
 />
    <glyph glyph-name="exclam" unicode="!" horiz-adv-x="632" 
d="M189 102q1 54 37 90t90 37q54 0 90 -36q36 -37 37 -91q0 -54 -36 -90q-37 -36 -91 -36t-90 36t-37 90zM220 403v1031h193v-1031h-193z" />
    <glyph glyph-name="quotedbl" unicode="&#x22;" horiz-adv-x="986" 
d="M228 854v580h187v-580h-187zM571 854v580h187v-580h-187z" />
    <glyph glyph-name="numbersign" unicode="#" horiz-adv-x="1399" 
d="M568 909l-66 -385h328l67 385h-329zM78 368v156h240l67 385h-231v157h258l63 368h183l-63 -368h329l63 368h183l-63 -368h215v-157h-242l-66 -385h232v-156h-259l-62 -368h-184l63 368h-329l-62 -368h-184l63 368h-214z" />
    <glyph glyph-name="dollar" unicode="$" horiz-adv-x="1204" 
d="M332 1083q0 -159 223 -234v436q-101 -11 -162 -66t-61 -136zM921 382q0 173 -232 249v-478q106 18 169 79t63 150zM136 1076q0 158 116 264t303 117v185h134v-191q207 -28 352 -175l-114 -138q-120 113 -238 140v-466q223 -55 325 -161t102 -269t-115 -273t-312 -129
v-189h-134v187q-133 11 -251 72t-198 156l122 131q145 -165 327 -189v518q-419 95 -419 410z" />
    <glyph glyph-name="percent" unicode="%" horiz-adv-x="1854" 
d="M1192 345q0 -81 54 -141t139 -60t139 60t55 141q0 81 -54 141q-53 60 -139 60t-140 -60t-54 -141zM1011 345q0 150 107 255q108 105 268 105t267 -105t107 -255q0 -151 -107 -255t-268 -104t-267 104t-107 255zM275 1089q1 -81 55 -141t139 -61q85 0 139 60q54 59 54 141
t-54 142t-139 60t-139 -60t-55 -141zM94 1089q0 151 107 255t268 104t268 -105t107 -255t-107 -254q-107 -105 -268 -105t-268 105t-107 255zM461 0l738 1434h195l-739 -1434h-194z" />
    <glyph glyph-name="ampersand" unicode="&#x26;" horiz-adv-x="1500" 
d="M610 139q183 0 324 151l-420 386q-202 -120 -202 -281q0 -108 84 -182t214 -74zM417 1122q0 -70 45 -134q45 -65 159 -170l417 -384q69 134 85 305l182 -26q-20 -228 -129 -407l333 -306h-260l-186 170q-189 -195 -453 -195q-208 -1 -346 117t-138 291q0 244 268 409
q-87 90 -124 164t-37 158q0 146 114 245q115 99 267 99t255 -66t145 -183l-168 -64q-25 74 -84 116q-58 43 -142 43t-144 -56t-59 -126z" />
    <glyph glyph-name="quotesingle" unicode="'" horiz-adv-x="643" 
d="M228 854v580h187v-580h-187z" />
    <glyph glyph-name="parenleft" unicode="(" horiz-adv-x="850" 
d="M246 625q0 272 100 522t279 430l132 -101q-153 -166 -236 -390t-83 -462t83 -460q83 -223 236 -390l-132 -102q-179 180 -279 430t-100 523z" />
    <glyph glyph-name="parenright" unicode=")" horiz-adv-x="850" 
d="M605 625q0 -273 -100 -523t-279 -430l-132 102q153 167 236 390t83 461q0 239 -83 461t-236 390l132 101q179 -180 279 -430t100 -522z" />
    <glyph glyph-name="asterisk" unicode="*" horiz-adv-x="1136" 
d="M216 977l277 -164l-5 320h160l-4 -320l277 164l78 -137l-281 -160l281 -160l-78 -137l-277 164l4 -320h-160l5 320l-277 -164l-79 137l282 160l-282 160z" />
    <glyph glyph-name="plus" unicode="+" horiz-adv-x="1175" 
d="M495 215v385h-373v161h373v384h186v-384h373v-161h-373v-385h-186z" />
    <glyph glyph-name="comma" unicode="," horiz-adv-x="608" 
d="M176 108q0 48 37 86t91 38t91 -38q37 -36 37 -78t-13 -71l-135 -296h-124l104 233q-40 12 -64 45t-24 81z" />
    <glyph glyph-name="hyphen" unicode="-" horiz-adv-x="823" 
d="M702 592h-581v176h581v-176z" />
    <glyph glyph-name="period" unicode="." horiz-adv-x="608" 
d="M176 103q0 53 37 91t91 38t91 -38q37 -36 37 -90t-37 -92q-37 -37 -91 -37t-91 37t-37 91z" />
    <glyph glyph-name="slash" unicode="/" horiz-adv-x="935" 
d="M916 1536l-699 -1823h-198l700 1823h197z" />
    <glyph glyph-name="zero" unicode="0" horiz-adv-x="1216" 
d="M313 717q1 -171 31 -295t97 -199t167 -75t168 74q128 141 127 494q0 353 -127 495q-68 74 -168 74t-167 -74q-67 -75 -97 -199t-31 -295zM124 717q0 323 119 527q58 102 152 158q93 56 213 56t214 -57t152 -157q117 -203 118 -526t-118 -528q-58 -101 -152 -158t-214 -57
t-214 57q-174 106 -240 392q-30 134 -30 293z" />
    <glyph glyph-name="one" unicode="1" horiz-adv-x="1216" 
d="M777 1434v-1434h-189v1243l-272 -148l-79 140l366 199h174z" />
    <glyph glyph-name="two" unicode="2" horiz-adv-x="1216" 
d="M1041 164v-164h-850v156l514 565q87 96 124 172q37 77 37 171t-72 162t-185 68q-205 0 -278 -218l-159 69q42 143 156 228t295 85t307 -112t126 -295q0 -115 -48 -213t-156 -218l-412 -456h601z" />
    <glyph glyph-name="three" unicode="3" horiz-adv-x="1216" 
d="M860 444q0 128 -91 216q-91 89 -226 90q-41 0 -84 -14l-75 95l369 436h-568v167h798v-167l-342 -396q182 -13 295 -138q114 -125 114 -304t-136 -313q-140 -140 -380 -140q-126 0 -240 60q-114 62 -189 176l131 109q120 -181 307 -182q135 1 226 89t91 216z" />
    <glyph glyph-name="four" unicode="4" horiz-adv-x="1216" 
d="M735 462v660l-444 -660h444zM81 291v171l654 972h190v-970h169v-173h-169v-291h-190v291h-654z" />
    <glyph glyph-name="five" unicode="5" horiz-adv-x="1216" 
d="M569 -25q-139 1 -254 61t-188 172l135 110q119 -179 301 -179q135 0 225 88q90 87 90 217t-90 218t-225 88q-75 0 -137 -32t-96 -83l-133 16l86 783h731v-167h-563l-51 -425q80 68 206 68t230 -55t168 -162t63 -244q0 -209 -137 -341t-361 -133z" />
    <glyph glyph-name="six" unicode="6" horiz-adv-x="1216" 
d="M913 446q0 130 -89 220q-90 89 -218 89t-218 -89t-90 -219t90 -219t218 -89t218 89q89 88 89 218zM1103 446q0 -132 -70 -242t-183 -169t-244 -59t-245 58q-113 60 -183 170t-70 245t71 245l475 740h202l-355 -550q52 32 130 31q193 1 333 -133t139 -336z" />
    <glyph glyph-name="seven" unicode="7" horiz-adv-x="1216" 
d="M173 1434h878v-160l-535 -1274h-213l535 1267h-665v167z" />
    <glyph glyph-name="eight" unicode="8" horiz-adv-x="1216" 
d="M608 861q97 0 165 65q68 66 68 154t-68 151t-165 63t-165 -63q-67 -63 -67 -152t68 -153t164 -65zM608 703q-128 -1 -214 -83t-86 -199t87 -199t213 -82t214 82q87 82 86 199q0 117 -86 200q-87 82 -214 82zM608 -25q-207 -1 -348 127t-141 316q0 129 73 229t199 141
q-87 36 -143 118t-55 177q0 158 118 267q118 108 297 108t298 -108q118 -109 118 -267q0 -95 -56 -177t-143 -118q125 -41 199 -141t74 -229q0 -187 -142 -315t-348 -128z" />
    <glyph glyph-name="nine" unicode="9" horiz-adv-x="1216" 
d="M610 1294q-128 0 -218 -89t-89 -219q0 -130 90 -218q89 -89 217 -89t218 89q90 88 90 218t-89 219q-91 89 -219 89zM586 518q-193 0 -333 134t-139 335q0 133 69 243q70 110 183 169t244 59t245 -59q113 -59 183 -169t70 -246t-71 -245l-475 -739h-202l356 550
q-52 -32 -130 -32z" />
    <glyph glyph-name="colon" unicode=":" horiz-adv-x="608" 
d="M176 957q0 53 37 91t91 38t91 -38q37 -36 37 -90t-37 -92q-37 -37 -91 -37t-91 37t-37 91zM176 103q0 53 37 91t91 38t91 -38q37 -36 37 -90t-37 -92q-37 -37 -91 -37t-91 37t-37 91z" />
    <glyph glyph-name="semicolon" unicode=";" horiz-adv-x="608" 
d="M176 108q0 48 37 86t91 38t91 -38q37 -36 37 -78t-13 -71l-135 -296h-124l104 233q-40 12 -64 45t-24 81zM176 957q0 53 37 91t91 38t91 -38q37 -36 37 -90t-37 -92q-37 -37 -91 -37t-91 37t-37 91z" />
    <glyph glyph-name="less" unicode="&#x3c;" horiz-adv-x="1175" 
d="M1018 325v-211l-886 497v135l886 498v-211l-650 -354z" />
    <glyph glyph-name="equal" unicode="=" horiz-adv-x="1175" 
d="M1054 369h-932v160h932v-160zM1054 831h-932v161h932v-161z" />
    <glyph glyph-name="greater" unicode="&#x3e;" horiz-adv-x="1175" 
d="M158 114v211l650 354l-650 354v211l885 -498v-135z" />
    <glyph glyph-name="question" unicode="?" horiz-adv-x="1119" 
d="M361 102q1 54 37 90t90 37q54 0 90 -36q36 -37 37 -91q0 -54 -36 -90q-37 -36 -91 -36t-90 36t-37 90zM390 409v362q187 0 297 79t110 191t-88 180q-88 67 -235 67t-290 -126l-101 140q184 157 423 156q141 0 254 -57q112 -57 172 -150t60 -200q0 -151 -112 -263
t-297 -139v-240h-193z" />
    <glyph glyph-name="at" unicode="@" horiz-adv-x="1966" 
d="M1236 261q-110 -146 -300 -146q-100 0 -194 59t-148 159q-53 100 -52 218q0 118 52 218q53 100 148 159t210 59q162 0 273 -134v114h157v-629q13 -36 45 -58t70 -23q98 0 166 94q69 95 69 249t-60 286q-121 265 -402 375q-138 55 -290 55t-290 -59q-279 -119 -397 -398
q-59 -140 -59 -296t59 -295q118 -278 406 -399q143 -59 306 -58q278 0 497 156l64 -132q-266 -167 -561 -167q-196 0 -369 69q-174 69 -296 187t-193 284t-71 354t72 356q142 333 481 472q167 68 355 68t356 -65q169 -65 290 -177t191 -270t69 -339q0 -221 -115 -357
q-116 -135 -297 -135q-75 0 -142 41t-100 105zM977 257q83 0 149 46t99 122v252q-33 76 -100 122t-148 46q-117 0 -196 -85t-79 -209t78 -209q80 -85 197 -85z" />
    <glyph glyph-name="A" unicode="A" horiz-adv-x="1394" 
d="M450 537h495l-248 684zM1346 0h-210l-134 370h-610l-133 -370h-210l541 1434h215z" />
    <glyph glyph-name="B" unicode="B" horiz-adv-x="1264" 
d="M971 415q0 113 -69 181t-181 67h-356v-496h356q112 -1 181 67t69 181zM889 1044q-1 104 -63 164t-163 59h-298v-444h298q102 1 164 59t62 162zM737 0h-565v1434h504q191 0 300 -103t108 -277q0 -111 -52 -186t-141 -107q119 -26 197 -120t78 -232q0 -182 -116 -296
q-117 -113 -313 -113z" />
    <glyph glyph-name="C" unicode="C" horiz-adv-x="1400" 
d="M837 1288q-233 0 -395 -166t-163 -406q1 -240 163 -405q162 -166 384 -166t399 146l102 -145q-209 -171 -490 -171q-157 -1 -297 57q-279 115 -399 393q-58 137 -58 292t58 292q59 137 159 236t240 156t297 57q266 0 473 -159l-98 -145q-192 134 -375 134z" />
    <glyph glyph-name="D" unicode="D" horiz-adv-x="1446" 
d="M658 1264h-293v-1094h293q232 0 372 142q139 142 138 405q0 263 -138 405q-140 142 -372 142zM172 1434h486q324 0 515 -194t191 -523t-191 -523t-515 -194h-486v1434z" />
    <glyph glyph-name="E" unicode="E" horiz-adv-x="1156" 
d="M172 0v1434h847v-167h-654v-463h602v-167h-602v-470h672v-167h-865z" />
    <glyph glyph-name="F" unicode="F" horiz-adv-x="1082" 
d="M172 0v1434h826v-167h-633v-462h581v-167h-581v-638h-193z" />
    <glyph glyph-name="G" unicode="G" horiz-adv-x="1474" 
d="M837 1288q-233 0 -395 -166t-163 -406q0 -240 162 -405q162 -166 396 -166q177 0 308 96v349h-392v167h584v-600q-205 -180 -500 -182q-157 -1 -297 57q-279 115 -399 393q-58 137 -58 292t58 292q59 137 159 236t240 156t297 57q266 0 473 -159l-98 -145
q-192 134 -375 134z" />
    <glyph glyph-name="H" unicode="H" horiz-adv-x="1427" 
d="M172 0v1434h193v-630h698v630h192v-1434h-192v637h-698v-637h-193z" />
    <glyph glyph-name="I" unicode="I" horiz-adv-x="583" 
d="M196 1434h192v-1434h-192v1434z" />
    <glyph glyph-name="J" unicode="J" horiz-adv-x="930" 
d="M580 441v993h192v-993q0 -466 -438 -466q-162 0 -285 70l63 163q98 -61 218 -63q250 0 250 296z" />
    <glyph glyph-name="K" unicode="K" horiz-adv-x="1229" 
d="M365 1434v-630h122l439 630h220l-495 -710l577 -724h-227l-507 637h-129v-637h-193v1434h193z" />
    <glyph glyph-name="L" unicode="L" horiz-adv-x="1054" 
d="M172 0v1434h193v-1267h642v-167h-835z" />
    <glyph glyph-name="M" unicode="M" horiz-adv-x="1738" 
d="M358 0h-186v1434h179l518 -767l519 767h179v-1434h-187v1115l-449 -661h-123l-450 661v-1115z" />
    <glyph glyph-name="N" unicode="N" horiz-adv-x="1432" 
d="M172 0v1434h185l717 -1100v1100h187v-1434h-186l-717 1100v-1100h-186z" />
    <glyph glyph-name="O" unicode="O" horiz-adv-x="1673" 
d="M837 1458q157 0 297 -57q279 -114 398 -392q58 -137 58 -292t-58 -292t-158 -236t-241 -156t-297 -57t-296 56q-279 115 -399 393q-58 137 -58 292t58 292q59 137 159 236t240 156t297 57zM837 145q233 0 395 166t163 406q-1 239 -163 405t-395 166t-395 -166t-163 -406
q1 -240 163 -405q162 -166 395 -166z" />
    <glyph glyph-name="P" unicode="P" horiz-adv-x="1198" 
d="M927 987q-1 129 -81 204t-223 76h-258v-559h258q143 0 223 75t81 204zM630 541h-265v-541h-193v1434h458q227 0 360 -122q132 -122 132 -325q0 -204 -132 -325t-360 -121z" />
    <glyph glyph-name="Q" unicode="Q" horiz-adv-x="1673" 
d="M837 145q156 0 288 81l-252 273l124 113l257 -277q140 162 140 392q0 229 -162 395t-395 166t-395 -166t-163 -406q1 -240 163 -405q162 -166 395 -166zM837 1458q157 0 297 -57q279 -114 398 -392q58 -137 58 -290q0 -308 -209 -521l204 -220l-124 -113l-212 227
q-186 -117 -412 -117q-157 -1 -297 57q-279 115 -399 393q-58 137 -58 292t58 292q59 137 159 236t240 156t297 57z" />
    <glyph glyph-name="R" unicode="R" horiz-adv-x="1228" 
d="M927 987q-1 129 -81 204t-223 76h-258v-559h258q143 0 223 75t81 204zM365 541v-541h-193v1434h458q227 0 360 -122q132 -122 132 -309q0 -188 -96 -303t-265 -147l388 -553h-213l-379 541h-192z" />
    <glyph glyph-name="S" unicode="S" horiz-adv-x="1204" 
d="M921 379q0 104 -80 174q-80 69 -280 111q-201 42 -313 146t-112 268t126 272t329 108q270 0 450 -182l-114 -138q-160 151 -327 150q-120 0 -194 -57t-74 -151q0 -186 328 -261q240 -54 348 -162q108 -107 108 -281t-137 -287t-367 -114q-148 1 -283 63t-223 168l122 131
q168 -191 394 -191q122 0 211 64q88 65 88 169z" />
    <glyph glyph-name="T" unicode="T" horiz-adv-x="1124" 
d="M466 0v1267h-403v167h998v-167h-403v-1267h-192z" />
    <glyph glyph-name="U" unicode="U" horiz-adv-x="1357" 
d="M1199 1434v-933q0 -156 -69 -276t-187 -184t-264 -64t-264 64t-187 184t-69 276v933h192v-955q0 -147 93 -239q92 -92 234 -92t235 92t94 239v955h192z" />
    <glyph glyph-name="V" unicode="V" horiz-adv-x="1392" 
d="M255 1434l441 -1191l442 1191h207l-541 -1434h-215l-541 1434h207z" />
    <glyph glyph-name="W" unicode="W" horiz-adv-x="1980" 
d="M894 1434h192l332 -1152l312 1152h202l-411 -1434h-193l-338 1168l-338 -1168h-192l-412 1434h203l311 -1152z" />
    <glyph glyph-name="X" unicode="X" horiz-adv-x="1290" 
d="M251 0h-211l490 729l-472 705h211l376 -565l376 565h211l-472 -705l490 -729h-211l-394 589z" />
    <glyph glyph-name="Y" unicode="Y" horiz-adv-x="1316" 
d="M755 0h-193v588l-514 846h208l402 -658l403 658h208l-514 -846v-588z" />
    <glyph glyph-name="Z" unicode="Z" horiz-adv-x="1229" 
d="M155 1267v167h941v-167l-742 -1100h762v-167h-992v167l741 1100h-710z" />
    <glyph glyph-name="bracketleft" unicode="[" horiz-adv-x="850" 
d="M240 -287v1823h560v-167h-368v-1489h368v-167h-560z" />
    <glyph glyph-name="backslash" unicode="\" horiz-adv-x="935" 
d="M719 -287l-700 1823h198l699 -1823h-197z" />
    <glyph glyph-name="bracketright" unicode="]" horiz-adv-x="850" 
d="M611 1536v-1823h-560v167h368v1489h-368v167h560z" />
    <glyph glyph-name="asciicircum" unicode="^" horiz-adv-x="1257" 
d="M530 1434h197l419 -637h-209l-308 471l-308 -471h-209z" />
    <glyph glyph-name="underscore" unicode="_" horiz-adv-x="1024" 
d="M0 -351v145h1024v-145h-1024z" />
    <glyph glyph-name="grave" unicode="`" horiz-adv-x="851" 
d="M319 1495l281 -345h-184l-287 345h190z" />
    <glyph glyph-name="a" unicode="a" horiz-adv-x="1328" 
d="M618 1085q226 0 374 -161v137h187v-1061h-187v137q-146 -162 -374 -162q-154 1 -279 77t-194 202t-69 276t69 276t194 202t279 77zM649 142q111 0 203 58t140 152v354q-48 96 -140 154t-203 59q-162 1 -273 -113t-111 -276t111 -275t273 -113z" />
    <glyph glyph-name="b" unicode="b" horiz-adv-x="1328" 
d="M710 1085q154 0 279 -76q125 -77 194 -203t69 -276t-69 -276t-194 -202t-279 -77q-227 0 -374 162v-137h-186v1495h186v-571q148 161 374 161zM679 142q162 0 273 113t111 275t-111 275t-273 114q-111 -1 -203 -59t-140 -154v-354q48 -94 140 -152t203 -58z" />
    <glyph glyph-name="c" unicode="c" horiz-adv-x="1124" 
d="M649 -25q-162 0 -294 75q-131 75 -205 202q-74 126 -74 278t74 279t206 202t293 74q222 0 386 -140l-97 -146q-135 120 -293 120q-158 1 -269 -113t-111 -276t111 -275t275 -113t294 128l110 -136q-164 -159 -406 -159z" />
    <glyph glyph-name="d" unicode="d" horiz-adv-x="1328" 
d="M618 1085q226 0 374 -161v571h187v-1495h-187v137q-146 -162 -374 -162q-154 1 -279 77t-194 202t-69 276t69 276t194 202t279 77zM649 142q111 0 203 58t140 152v354q-48 96 -140 154t-203 59q-162 1 -273 -113t-111 -276t111 -275t273 -113z" />
    <glyph glyph-name="e" unicode="e" horiz-adv-x="1253" 
d="M638 925q-132 0 -234 -85t-131 -213h709q-22 130 -117 214t-227 84zM76 530q0 233 159 394q160 162 420 162q137 0 261 -72t193 -193t69 -267q0 -41 -10 -82h-902q14 -144 122 -240t259 -96q195 0 335 154l128 -119q-171 -194 -458 -196q-128 0 -236 44q-108 45 -182 119
t-116 176t-42 216z" />
    <glyph glyph-name="f" unicode="f" horiz-adv-x="763" 
d="M625 1331q-112 0 -161 -51t-48 -157v-62h302v-164h-302v-897h-187v897h-183v164h183v64q-1 187 93 279t287 91q54 0 109 -8v-161q-43 5 -93 5z" />
    <glyph glyph-name="g" unicode="g" horiz-adv-x="1328" 
d="M649 142q111 0 203 58t140 152v354q-48 96 -140 154t-203 59q-162 1 -273 -113t-111 -276t111 -275t273 -113zM992 22v115q-146 -162 -374 -162q-154 1 -279 77t-194 202t-69 276t69 276t194 202t279 77q226 0 374 -161v137h187v-1027q-1 -232 -141 -370t-396 -139
q-146 0 -270 57t-210 156l123 121q154 -173 356 -173q160 0 256 90q95 90 95 246z" />
    <glyph glyph-name="h" unicode="h" horiz-adv-x="1235" 
d="M336 0h-186v1495h186v-597q62 82 151 135t193 52q188 0 308 -120q119 -121 119 -313v-652h-186v642q1 120 -77 198t-184 78t-188 -62t-136 -153v-703z" />
    <glyph glyph-name="i" unicode="i" horiz-adv-x="534" 
d="M144 1358q0 52 36 86q36 36 87 36t87 -36t36 -86q0 -52 -35 -88t-87 -35q-52 -1 -88 35t-36 88zM174 0v1061h186v-1061h-186z" />
    <glyph glyph-name="j" unicode="j" horiz-adv-x="534" 
d="M144 1358q0 52 36 86q36 36 87 36t87 -36t36 -86q0 -52 -35 -88t-87 -35q-52 -1 -88 35t-36 88zM174 -140v1201h186v-1198q0 -177 -76 -258q-77 -80 -238 -80q-37 0 -80 4v161q18 -1 76 -1t95 40t37 131z" />
    <glyph glyph-name="k" unicode="k" horiz-adv-x="1053" 
d="M336 509v-509h-186v1495h186v-825h133l300 391h221l-366 -471l422 -590h-216l-363 509h-131z" />
    <glyph glyph-name="l" unicode="l" horiz-adv-x="534" 
d="M174 0v1495h186v-1495h-186z" />
    <glyph glyph-name="m" unicode="m" horiz-adv-x="1916" 
d="M336 902q130 183 332 183q110 -1 202 -59q93 -58 142 -159q62 99 159 159t211 59q180 0 293 -119t113 -306v-660h-186v650q0 116 -68 192t-168 76q-179 1 -306 -217q2 -25 2 -41v-660h-186v650q0 116 -68 192t-168 76q-179 1 -304 -213v-705h-186v1061h186v-159z" />
    <glyph glyph-name="n" unicode="n" horiz-adv-x="1235" 
d="M336 0h-186v1061h186v-163q62 82 151 135t193 52q188 0 308 -120q119 -121 119 -313v-652h-186v642q1 120 -77 198t-184 78t-188 -62t-136 -153v-703z" />
    <glyph glyph-name="o" unicode="o" horiz-adv-x="1298" 
d="M649 1085q162 -1 294 -75t206 -201t74 -279t-74 -278t-206 -202q-132 -75 -294 -75t-294 75q-131 75 -205 202q-74 126 -74 278t74 279t206 201t293 75zM649 142q162 0 273 113t111 275t-111 275t-273 113t-273 -112q-111 -114 -111 -276t111 -275t273 -113z" />
    <glyph glyph-name="p" unicode="p" horiz-adv-x="1328" 
d="M710 1085q154 0 279 -76q125 -77 194 -203t69 -276t-69 -276t-194 -202t-279 -77q-227 0 -374 162v-612h-186v1536h186v-137q148 161 374 161zM679 142q162 0 273 113t111 275t-111 275t-273 114q-111 -1 -203 -59t-140 -154v-354q48 -94 140 -152t203 -58z" />
    <glyph glyph-name="q" unicode="q" horiz-adv-x="1328" 
d="M618 1085q226 0 374 -161v137h187v-1536h-187v612q-146 -162 -374 -162q-154 1 -279 77t-194 202t-69 276t69 276t194 202t279 77zM649 142q111 0 203 58t140 152v354q-48 96 -140 154t-203 59q-162 1 -273 -113t-111 -276t111 -275t273 -113z" />
    <glyph glyph-name="r" unicode="r" 
d="M641 919q-88 0 -168 -66t-137 -172v-681h-186v1061h186v-174q147 199 330 198q55 0 99 -20l-15 -166q-56 20 -109 20z" />
    <glyph glyph-name="s" unicode="s" horiz-adv-x="954" 
d="M692 292q0 70 -56 112q-56 44 -179 68q-345 67 -345 320q0 127 100 210q101 83 265 83q206 0 357 -141l-101 -127q-125 108 -243 108q-84 -1 -138 -39t-54 -97t55 -103t164 -65q183 -35 273 -117t89 -217q0 -135 -105 -223t-287 -89q-128 -1 -235 47t-177 130l105 126
q115 -142 301 -142q94 0 153 43q58 43 58 113z" />
    <glyph glyph-name="t" unicode="t" horiz-adv-x="782" 
d="M424 897v-558q0 -102 48 -151t159 -49q56 0 95 5v-160q-41 -8 -111 -9q-193 0 -285 88t-92 274v560h-192v164h192v291l186 16v-307h290v-164h-290z" />
    <glyph glyph-name="u" unicode="u" horiz-adv-x="1235" 
d="M900 1061h186v-1061h-186v163q-62 -82 -151 -135t-193 -53q-188 0 -308 121q-119 121 -119 313v652h186v-642q-1 -120 77 -198q78 -79 185 -79t188 62t135 153v704z" />
    <glyph glyph-name="v" unicode="v" horiz-adv-x="1071" 
d="M1043 1061l-411 -1061h-193l-411 1061h194l314 -817l313 817h194z" />
    <glyph glyph-name="w" unicode="w" horiz-adv-x="1597" 
d="M702 1061h193l237 -811l243 811h195l-340 -1061h-193l-238 815l-239 -815h-192l-340 1061h194l244 -811z" />
    <glyph glyph-name="x" unicode="x" horiz-adv-x="1071" 
d="M236 0h-208l390 542l-364 519h208l274 -393l273 393h208l-364 -519l390 -542h-207l-300 416z" />
    <glyph glyph-name="y" unicode="y" horiz-adv-x="1075" 
d="M254 -475l188 479l-414 1057h194l316 -820l315 820h195l-599 -1536h-195z" />
    <glyph glyph-name="z" unicode="z" horiz-adv-x="1036" 
d="M100 0v164l586 733h-559v164h783v-164l-584 -733h605v-164h-831z" />
    <glyph glyph-name="braceleft" unicode="{" horiz-adv-x="850" 
d="M153 542v166q95 0 151 52t55 141v313q0 136 98 229t246 93h101v-167h-88q-72 0 -118 -47t-46 -120v-329q0 -198 -187 -248q187 -51 187 -249v-329q0 -73 46 -120t118 -47h88v-167h-101q-148 0 -246 93t-98 229v313q0 90 -55 142q-56 52 -151 52z" />
    <glyph glyph-name="bar" unicode="|" horiz-adv-x="664" 
d="M244 -287v1823h177v-1823h-177z" />
    <glyph glyph-name="braceright" unicode="}" horiz-adv-x="850" 
d="M698 708v-166q-95 0 -151 -52t-55 -142v-313q0 -136 -98 -229t-247 -93h-100v167h88q72 0 118 47t46 120v329q0 198 187 249q-187 51 -187 248v329q0 73 -46 120t-118 47h-88v167h100q149 0 247 -93t98 -229v-313q0 -90 55 -142q56 -51 151 -51z" />
    <glyph glyph-name="asciitilde" unicode="~" horiz-adv-x="1175" 
d="M1109 781q-53 -307 -307 -307q-130 0 -244 112t-177 113q-109 0 -139 -184l-176 44q52 307 306 307q130 0 248 -114q38 -38 58 -56q60 -56 116 -55q109 0 139 184z" />
    <glyph glyph-name="uni00A0" unicode="&#xa0;" horiz-adv-x="608" 
 />
    <glyph glyph-name="exclamdown" unicode="&#xa1;" horiz-adv-x="632" 
d="M189 958q1 54 37 90t90 37q54 0 90 -36q36 -37 37 -91q0 -54 -36 -90q-37 -36 -91 -36t-90 36t-37 90zM220 -373v1030h193v-1030h-193z" />
    <glyph glyph-name="cent" unicode="&#xa2;" horiz-adv-x="1124" 
d="M265 530q0 -139 85 -245t217 -134v759q-132 -29 -217 -135t-85 -245zM702 1249v-166q189 -16 333 -138l-97 -146q-113 99 -236 115v-768q136 19 243 124l110 -136q-145 -140 -353 -157v-165h-135v169q-215 27 -353 183t-138 366t138 366t353 184v169h135z" />
    <glyph glyph-name="sterling" unicode="&#xa3;" horiz-adv-x="1175" 
d="M524 494q0 -190 -149 -324h686v-170h-910v166q83 59 130 145q48 86 48 183q0 33 -12 81h-173v151h138q-4 9 -16 38q-12 30 -17 40q-58 122 -58 243q-1 173 125 292t311 119q145 0 254 -75t152 -186l-164 -86q-73 177 -242 177q-102 0 -171 -69t-69 -162q-1 -93 43 -199
t53 -132h385v-151h-354q10 -55 10 -81z" />
    <glyph glyph-name="currency" unicode="&#xa4;" horiz-adv-x="1282" 
d="M641 225q-138 0 -250 69l-195 -192l-120 120l187 188q-86 112 -86 258t86 258l-187 187l120 120l195 -192q112 69 250 69t250 -69l195 192l120 -120l-187 -187q86 -112 86 -258t-86 -258l187 -188l-120 -120l-195 192q-112 -69 -250 -69zM641 949q-118 0 -199 -82
q-82 -82 -82 -199q0 -118 82 -200t199 -82q118 0 199 82q82 82 82 200t-82 199q-82 82 -199 82z" />
    <glyph glyph-name="yen" unicode="&#xa5;" horiz-adv-x="1316" 
d="M1140 731v-121h-372l-13 -22v-93h385v-121h-385v-374h-193v374h-385v121h385v93l-14 22h-371v121h298l-427 703h208l402 -658l403 658h208l-427 -703h298z" />
    <glyph glyph-name="brokenbar" unicode="&#xa6;" horiz-adv-x="664" 
d="M244 -287v819h177v-819h-177zM244 717v819h177v-819h-177z" />
    <glyph glyph-name="section" unicode="&#xa7;" horiz-adv-x="1032" 
d="M247 625q0 -137 171 -211l160 -70q89 5 148 59t59 123q0 138 -172 211l-160 69q-88 -5 -147 -58t-59 -123zM966 542q0 -102 -57 -177t-155 -112q130 -93 130 -235t-109 -233q-109 -92 -259 -92t-254 70q-103 70 -131 190l172 39q15 -66 69 -104t136 -38t139 47t56 117
q0 97 -113 148l-256 111q-130 56 -199 146q-69 91 -69 191t57 175q57 74 155 111q-130 94 -130 236t108 234t260 92q150 0 254 -70q103 -71 130 -191l-172 -38q-14 65 -69 103t-136 38t-137 -47t-57 -107q0 -108 112 -158l256 -110q129 -56 199 -146q70 -88 70 -190z" />
    <glyph glyph-name="dieresis" unicode="&#xa8;" horiz-adv-x="851" 
d="M494 1322q0 48 33 83q33 34 82 34t83 -34q34 -35 33 -83q0 -48 -33 -81q-32 -33 -82 -33t-83 32q-33 34 -33 82zM127 1322q0 48 33 83q32 34 82 34t83 -34q33 -35 33 -83t-33 -81t-82 -33t-83 32q-34 34 -33 82z" />
    <glyph glyph-name="copyright" unicode="&#xa9;" horiz-adv-x="1640" 
d="M191 717q-1 -175 83 -321t229 -230t317 -85q172 0 317 84q145 85 229 231t83 321q0 175 -83 321q-82 146 -228 230t-318 84t-317 -84t-229 -230t-83 -321zM79 717q0 153 58 290t157 236t236 157t290 58t290 -58q136 -58 236 -157t158 -236t58 -290t-58 -290
q-118 -278 -394 -394q-137 -58 -290 -58t-290 58q-277 117 -393 394q-58 137 -58 290zM854 980q-106 0 -182 -77q-74 -77 -74 -189t74 -188t187 -76q112 0 209 79l59 -122q-115 -97 -279 -97t-283 117t-119 287t118 288q120 117 279 117t274 -89l-55 -123q-102 73 -208 73z
" />
    <glyph glyph-name="ordfeminine" unicode="&#xaa;" horiz-adv-x="933" 
d="M672 688v87q-82 -103 -234 -103t-262 112t-109 277q0 165 110 277t261 112t234 -103v87h166v-746h-166zM232 1061q0 -101 68 -171t152 -69q153 0 220 120v240q-67 119 -221 119q-83 0 -151 -69t-68 -170z" />
    <glyph glyph-name="guillemotleft" unicode="&#xab;" horiz-adv-x="1301" 
d="M609 590v98l567 355v-173l-377 -231l377 -231v-174zM108 590v98l566 355v-173l-377 -231l377 -231v-174z" />
    <glyph glyph-name="logicalnot" unicode="&#xac;" horiz-adv-x="1175" 
d="M867 242v358h-745v161h932v-519h-187z" />
    <glyph glyph-name="uni00AD" unicode="&#xad;" horiz-adv-x="823" 
d="M702 592h-581v176h581v-176z" />
    <glyph glyph-name="registered" unicode="&#xae;" horiz-adv-x="1640" 
d="M838 727q65 1 104 35t39 88t-39 90q-39 34 -104 34h-122v-247h122zM716 606v-282h-144v783h278q120 0 197 -71q77 -72 77 -168t-49 -159t-131 -87l198 -298h-158l-186 282h-82zM191 717q-1 -175 83 -321t229 -230t317 -85q172 0 317 84q145 85 229 231t83 321
q0 175 -83 321q-82 146 -228 230t-318 84t-317 -84t-229 -230t-83 -321zM79 717q0 153 58 290t157 236t236 157t290 58t290 -58q136 -58 236 -157t158 -236t58 -290t-58 -290q-118 -278 -394 -394q-137 -58 -290 -58t-290 58q-277 117 -393 394q-58 137 -58 290z" />
    <glyph glyph-name="macron" unicode="&#xaf;" horiz-adv-x="851" 
d="M129 1246v146h594v-146h-594z" />
    <glyph glyph-name="degree" unicode="&#xb0;" 
d="M124 1182q0 116 81 194t201 79q120 0 200 -79q81 -78 81 -194t-81 -195t-200 -79t-201 79q-81 79 -81 195zM262 1182q0 -60 41 -102t103 -42t102 42q41 42 41 102t-41 102t-102 41q-61 0 -103 -41q-41 -42 -41 -102z" />
    <glyph glyph-name="plusminus" unicode="&#xb1;" horiz-adv-x="1175" 
d="M1054 0h-932v161h932v-161zM495 302v377h-373v161h373v377h186v-377h373v-161h-373v-377h-186z" />
    <glyph glyph-name="twosuperior" unicode="&#xb2;" 
d="M700 599v-136h-605v121l346 380q103 114 103 210q0 64 -42 106t-110 42q-123 0 -170 -151l-143 56q29 111 111 171t212 60q128 0 218 -79t91 -205q1 -78 -33 -146t-108 -149l-255 -280h385z" />
    <glyph glyph-name="threesuperior" unicode="&#xb3;" 
d="M559 764q0 80 -55 133q-55 54 -135 54q-30 0 -66 -11l-63 79l235 276h-364v139h569v-126l-217 -250q116 -18 189 -104t73 -206t-99 -216q-99 -94 -253 -94q-101 0 -183 46t-134 127l113 97q88 -133 200 -134q81 0 135 55t55 135z" />
    <glyph glyph-name="acute" unicode="&#xb4;" horiz-adv-x="851" 
d="M252 1150l280 345h191l-287 -345h-184z" />
    <glyph glyph-name="mu" unicode="&#xb5;" horiz-adv-x="1256" 
d="M150 -475v1536h186v-724q30 -86 106 -140q76 -55 166 -55t174 60q83 60 139 150v709h186v-1061h-186v157q-59 -79 -146 -130t-173 -51t-155 37q-68 38 -111 97v-585h-186z" />
    <glyph glyph-name="paragraph" unicode="&#xb6;" horiz-adv-x="1187" 
d="M602 549h-58q-193 0 -324 127q-131 126 -131 314t131 316t324 128h464v-1702h-141v1570h-125v-1570h-140v817z" />
    <glyph glyph-name="periodcentered" unicode="&#xb7;" horiz-adv-x="608" 
d="M176 669q0 54 37 91t91 37t91 -37t37 -91t-37 -91t-91 -37t-91 37t-37 91z" />
    <glyph glyph-name="cedilla" unicode="&#xb8;" horiz-adv-x="851" 
d="M384 -214q-42 0 -69 -5l-33 39l98 180h145l-74 -118q85 -16 137 -72t52 -138t-74 -144t-184 -60q-110 0 -183 59l63 92q44 -37 104 -37t94 29t35 73q-1 44 -35 73t-76 29z" />
    <glyph glyph-name="onesuperior" unicode="&#xb9;" 
d="M546 1434v-971h-166v802l-172 -94l-65 122l261 141h142z" />
    <glyph glyph-name="ordmasculine" unicode="&#xba;" horiz-adv-x="933" 
d="M231 1061q0 -102 68 -171t168 -69t168 69t67 171q0 102 -67 171q-68 68 -168 68t-168 -68t-68 -171zM66 1061q0 163 116 276q117 113 285 113t285 -113q116 -113 116 -276t-116 -276t-285 -113q-168 0 -285 113q-116 113 -116 276z" />
    <glyph glyph-name="guillemotright" unicode="&#xbb;" horiz-adv-x="1301" 
d="M692 688v-98l-566 -356v174l377 231l-377 231v173zM1194 688v-98l-566 -356v174l377 231l-377 231v173z" />
    <glyph glyph-name="onequarter" unicode="&#xbc;" horiz-adv-x="1956" 
d="M1621 333v377l-252 -377h252zM1186 191v130l443 650h158v-637h111v-143h-111v-191h-166v191h-435zM547 0l700 1434h163l-700 -1434h-163zM546 1434v-971h-166v802l-172 -94l-65 122l261 141h142z" />
    <glyph glyph-name="onehalf" unicode="&#xbd;" horiz-adv-x="1956" 
d="M1846 136v-136h-605v121l346 380q103 114 103 210q0 65 -42 107t-110 41q-123 0 -170 -150l-143 55q29 110 111 170t212 61q128 0 218 -79t91 -205q1 -78 -33 -146t-108 -149l-255 -280h385zM547 0l700 1434h163l-700 -1434h-163zM546 1434v-971h-166v802l-172 -94
l-65 122l261 141h142z" />
    <glyph glyph-name="threequarters" unicode="&#xbe;" horiz-adv-x="1956" 
d="M1621 333v377l-252 -377h252zM1186 191v130l443 650h158v-637h111v-143h-111v-191h-166v191h-435zM547 0l700 1434h163l-700 -1434h-163zM559 764q0 80 -55 133q-55 54 -135 54q-30 0 -66 -11l-63 79l235 276h-364v139h569v-126l-217 -250q116 -18 189 -104t73 -206
t-99 -216q-99 -94 -253 -94q-101 0 -183 46t-134 127l113 97q88 -133 200 -134q81 0 135 55t55 135z" />
    <glyph glyph-name="questiondown" unicode="&#xbf;" horiz-adv-x="1119" 
d="M758 958q0 -54 -36 -90t-91 -36t-91 36t-36 90t36 90t90 37q54 -1 92 -37q36 -36 36 -90zM729 652v-362q-187 0 -297 -79t-110 -191t88 -180t235 -68t290 127l101 -140q-184 -157 -423 -156q-141 0 -254 57t-173 150t-59 200q0 150 112 262t298 140v240h192z" />
    <glyph glyph-name="Agrave" unicode="&#xc0;" horiz-adv-x="1394" 
d="M570 1891l281 -345h-184l-287 345h190zM450 537h495l-248 684zM1346 0h-210l-134 370h-610l-133 -370h-210l541 1434h215z" />
    <glyph glyph-name="Aacute" unicode="&#xc1;" horiz-adv-x="1394" 
d="M540 1546l280 345h191l-287 -345h-184zM450 537h495l-248 684zM1346 0h-210l-134 370h-610l-133 -370h-210l541 1434h215z" />
    <glyph glyph-name="Acircumflex" unicode="&#xc2;" horiz-adv-x="1394" 
d="M762 1891l299 -345h-184l-180 204l-179 -204h-184l299 345h129zM450 537h495l-248 684zM1346 0h-210l-134 370h-610l-133 -370h-210l541 1434h215z" />
    <glyph glyph-name="Atilde" unicode="&#xc3;" horiz-adv-x="1394" 
d="M570 1680q-39 0 -63 -103l-157 31q45 218 193 218q79 0 159 -60l24 -16q17 -13 25 -18q8 -4 26 -16t42 -12q46 0 69 103l156 -30q-45 -218 -192 -218q-84 0 -183 76q-47 36 -64 40q-17 5 -35 5zM450 537h495l-248 684zM1346 0h-210l-134 370h-610l-133 -370h-210
l541 1434h215z" />
    <glyph glyph-name="Adieresis" unicode="&#xc4;" horiz-adv-x="1394" 
d="M765 1704q0 48 33 82q32 34 82 34t83 -34t33 -82t-33 -82t-82 -34t-83 34t-33 82zM398 1704q0 48 34 82t82 34q49 0 82 -34q34 -34 34 -82t-34 -82t-82 -34t-82 34t-34 82zM450 537h495l-248 684zM1346 0h-210l-134 370h-610l-133 -370h-210l541 1434h215z" />
    <glyph glyph-name="Aring" unicode="&#xc5;" horiz-adv-x="1394" 
d="M482 1726q0 84 62 142t153 58t153 -57t62 -143t-61 -142q-61 -57 -153 -57t-154 57t-62 142zM604 1726q0 -39 27 -65t67 -26t66 26q27 26 27 65t-27 65q-27 27 -67 27q-41 0 -67 -26t-26 -66zM450 537h495l-248 684zM1346 0h-210l-134 370h-610l-133 -370h-210l541 1434
h215z" />
    <glyph glyph-name="AE" unicode="&#xc6;" horiz-adv-x="1890" 
d="M925 537v681l-385 -681h385zM1753 1434v-167h-636v-463h585v-167h-585v-470h655v-167h-847v370h-479l-208 -370h-220l824 1434h911z" />
    <glyph glyph-name="Ccedilla" unicode="&#xc7;" horiz-adv-x="1400" 
d="M837 1288q-233 0 -395 -166t-163 -406q0 -240 162 -405q163 -166 385 -166t399 146l102 -145q-177 -145 -415 -166l-61 -98q86 -16 138 -72q51 -56 51 -138t-74 -144t-184 -60q-110 0 -183 59l64 92q45 -37 104 -37t94 29q34 29 34 73t-34 73q-35 29 -77 29t-68 -5
l-34 39l86 158q-194 16 -350 116t-246 264q-89 164 -89 339q0 335 217 548q100 99 240 156t297 57q266 0 473 -159l-98 -145q-192 134 -375 134z" />
    <glyph glyph-name="Egrave" unicode="&#xc8;" horiz-adv-x="1156" 
d="M454 1891l280 -345h-184l-287 345h191zM172 0v1434h847v-167h-654v-463h602v-167h-602v-470h672v-167h-865z" />
    <glyph glyph-name="Eacute" unicode="&#xc9;" horiz-adv-x="1156" 
d="M461 1546l280 345h191l-287 -345h-184zM172 0v1434h847v-167h-654v-463h602v-167h-602v-470h672v-167h-865z" />
    <glyph glyph-name="Ecircumflex" unicode="&#xca;" horiz-adv-x="1156" 
d="M660 1891l299 -345h-184l-179 204l-179 -204h-185l299 345h129zM172 0v1434h847v-167h-654v-463h602v-167h-602v-470h672v-167h-865z" />
    <glyph glyph-name="Edieresis" unicode="&#xcb;" horiz-adv-x="1156" 
d="M662 1704q0 48 33 82t82 34t83 -34t33 -82q0 -48 -33 -82q-32 -34 -82 -34t-83 34t-33 82zM295 1704q0 48 33 82q32 34 82 34t83 -34t33 -82t-33 -82t-82 -34t-83 34t-33 82zM172 0v1434h847v-167h-654v-463h602v-167h-602v-470h672v-167h-865z" />
    <glyph glyph-name="Igrave" unicode="&#xcc;" horiz-adv-x="583" 
d="M164 1891l280 -345h-184l-287 345h191zM196 1434h192v-1434h-192v1434z" />
    <glyph glyph-name="Iacute" unicode="&#xcd;" horiz-adv-x="583" 
d="M139 1546l281 345h190l-286 -345h-185zM196 1434h192v-1434h-192v1434z" />
    <glyph glyph-name="Icircumflex" unicode="&#xce;" horiz-adv-x="583" 
d="M356 1891l299 -345h-184l-179 204l-179 -204h-185l299 345h129zM196 1434h192v-1434h-192v1434z" />
    <glyph glyph-name="Idieresis" unicode="&#xcf;" horiz-adv-x="583" 
d="M359 1704q-1 48 33 82t83 34t83 -34t33 -82q0 -48 -33 -82q-32 -34 -82 -34t-84 34t-33 82zM-7 1704q0 48 33 82q32 34 82 34t83 -34t33 -82t-33 -82t-82 -34t-83 34t-33 82zM196 1434h192v-1434h-192v1434z" />
    <glyph glyph-name="Eth" unicode="&#xd0;" horiz-adv-x="1486" 
d="M698 1264h-294v-474h315v-146h-315v-474h294q232 0 372 142q139 142 138 405q0 263 -138 405q-140 142 -372 142zM212 1434h486q324 0 515 -194t191 -523t-191 -523t-515 -194h-486v644h-187v146h187v644z" />
    <glyph glyph-name="Ntilde" unicode="&#xd1;" horiz-adv-x="1432" 
d="M588 1680q-39 0 -63 -103l-156 31q45 218 192 218q79 0 160 -60l23 -16l25 -18q8 -4 26 -16t43 -12q47 0 68 103l157 -30q-45 -218 -193 -218q-83 0 -182 76q-47 36 -64 40q-18 5 -36 5zM172 0v1434h185l717 -1100v1100h187v-1434h-186l-717 1100v-1100h-186z" />
    <glyph glyph-name="Ograve" unicode="&#xd2;" horiz-adv-x="1673" 
d="M705 1891l280 -345h-184l-287 345h191zM837 1458q157 0 297 -57q279 -114 398 -392q58 -137 58 -292t-58 -292t-158 -236t-241 -156t-297 -57t-296 56q-279 115 -399 393q-58 137 -58 292t58 292q59 137 159 236t240 156t297 57zM837 145q233 0 395 166t163 406
q-1 239 -163 405t-395 166t-395 -166t-163 -406q1 -240 163 -405q162 -166 395 -166z" />
    <glyph glyph-name="Oacute" unicode="&#xd3;" horiz-adv-x="1673" 
d="M689 1546l281 345h190l-287 -345h-184zM837 1458q157 0 297 -57q279 -114 398 -392q58 -137 58 -292t-58 -292t-158 -236t-241 -156t-297 -57t-296 56q-279 115 -399 393q-58 137 -58 292t58 292q59 137 159 236t240 156t297 57zM837 145q233 0 395 166t163 406
q-1 239 -163 405t-395 166t-395 -166t-163 -406q1 -240 163 -405q162 -166 395 -166z" />
    <glyph glyph-name="Ocircumflex" unicode="&#xd4;" horiz-adv-x="1673" 
d="M901 1891l299 -345h-184l-179 204l-180 -204h-184l299 345h129zM837 1458q157 0 297 -57q279 -114 398 -392q58 -137 58 -292t-58 -292t-158 -236t-241 -156t-297 -57t-296 56q-279 115 -399 393q-58 137 -58 292t58 292q59 137 159 236t240 156t297 57zM837 145
q233 0 395 166t163 406q-1 239 -163 405t-395 166t-395 -166t-163 -406q1 -240 163 -405q162 -166 395 -166z" />
    <glyph glyph-name="Otilde" unicode="&#xd5;" horiz-adv-x="1673" 
d="M708 1680q-39 0 -62 -103l-157 31q45 218 193 218q79 0 160 -60l23 -16l25 -18q8 -4 26 -16t42 -12q46 0 69 103l157 -30q-45 -218 -193 -218q-84 0 -183 76q-47 36 -64 40q-18 5 -36 5zM837 1458q157 0 297 -57q279 -114 398 -392q58 -137 58 -292t-58 -292t-158 -236
t-241 -156t-297 -57t-296 56q-279 115 -399 393q-58 137 -58 292t58 292q59 137 159 236t240 156t297 57zM837 145q233 0 395 166t163 406q-1 239 -163 405t-395 166t-395 -166t-163 -406q1 -240 163 -405q162 -166 395 -166z" />
    <glyph glyph-name="Odieresis" unicode="&#xd6;" horiz-adv-x="1673" 
d="M904 1704q0 48 33 82t83 34t82 -34q34 -34 34 -82t-34 -82t-82 -34t-82 34t-34 82zM538 1704q0 48 33 82t82 34t83 -34t33 -82q0 -48 -33 -82q-32 -34 -82 -34t-83 34t-33 82zM837 1458q157 0 297 -57q279 -114 398 -392q58 -137 58 -292t-58 -292t-158 -236t-241 -156
t-297 -57t-296 56q-279 115 -399 393q-58 137 -58 292t58 292q59 137 159 236t240 156t297 57zM837 145q233 0 395 166t163 406q-1 239 -163 405t-395 166t-395 -166t-163 -406q1 -240 163 -405q162 -166 395 -166z" />
    <glyph glyph-name="multiply" unicode="&#xd7;" horiz-adv-x="1175" 
d="M151 361l311 315l-311 314l125 126l312 -314l311 314l126 -126l-312 -314l312 -315l-126 -125l-311 313l-312 -313z" />
    <glyph glyph-name="Oslash" unicode="&#xd8;" horiz-adv-x="1673" 
d="M837 1288q-233 0 -395 -166t-163 -400q0 -234 147 -396l696 883q-132 79 -285 79zM837 145q233 0 395 166q162 165 162 407t-163 406l-700 -888q138 -91 306 -91zM837 1458q218 0 396 -107l114 144h176l-177 -225q116 -102 180 -246t64 -303t-58 -296t-158 -236
t-241 -156q-140 -57 -296 -58q-230 0 -417 119l-122 -155h-176l189 240q-109 101 -168 240q-60 139 -60 296t58 294q59 137 159 236t240 156t297 57z" />
    <glyph glyph-name="Ugrave" unicode="&#xd9;" horiz-adv-x="1357" 
d="M539 1891l280 -345h-184l-287 345h191zM1199 1434v-933q0 -156 -69 -276t-187 -184t-264 -64t-264 64t-187 184t-69 276v933h192v-955q0 -147 93 -239q92 -92 234 -92t235 92t94 239v955h192z" />
    <glyph glyph-name="Uacute" unicode="&#xda;" horiz-adv-x="1357" 
d="M542 1546l280 345h191l-287 -345h-184zM1199 1434v-933q0 -156 -69 -276t-187 -184t-264 -64t-264 64t-187 184t-69 276v933h192v-955q0 -147 93 -239q92 -92 234 -92t235 92t94 239v955h192z" />
    <glyph glyph-name="Ucircumflex" unicode="&#xdb;" horiz-adv-x="1357" 
d="M743 1891l299 -345h-184l-179 204l-179 -204h-185l299 345h129zM1199 1434v-933q0 -156 -69 -276t-187 -184t-264 -64t-264 64t-187 184t-69 276v933h192v-955q0 -147 93 -239q92 -92 234 -92t235 92t94 239v955h192z" />
    <glyph glyph-name="Udieresis" unicode="&#xdc;" horiz-adv-x="1357" 
d="M746 1704q0 48 34 82t82 34t82 -34t34 -82t-33 -82t-83 -34t-82 34q-34 34 -34 82zM380 1704q0 48 33 82t83 34t82 -34q33 -34 33 -82t-33 -82t-82 -34q-48 0 -82 34t-34 82zM1199 1434v-933q0 -156 -69 -276t-187 -184t-264 -64t-264 64t-187 184t-69 276v933h192v-955
q0 -147 93 -239q92 -92 234 -92t235 92t94 239v955h192z" />
    <glyph glyph-name="Yacute" unicode="&#xdd;" horiz-adv-x="1316" 
d="M524 1546l281 345h190l-286 -345h-185zM755 0h-193v588l-514 846h208l402 -658l403 658h208l-514 -846v-588z" />
    <glyph glyph-name="Thorn" unicode="&#xde;" horiz-adv-x="1198" 
d="M927 717q-1 129 -81 204t-223 75h-258v-559h258q143 -1 223 75t81 205zM630 270h-265v-270h-193v1434h193v-271h265q227 0 360 -121q132 -121 132 -325q0 -203 -132 -325t-360 -122z" />
    <glyph glyph-name="germandbls" unicode="&#xdf;" horiz-adv-x="1244" 
d="M159 0v1051q0 181 119 294t298 113t300 -108t120 -259q0 -107 -66 -191t-175 -123q173 -25 285 -135t113 -272q0 -162 -135 -278q-135 -117 -337 -117q-136 0 -242 60l48 169q87 -62 199 -62t192 69t79 170q0 130 -118 215t-319 89v161q122 8 201 73t79 157t-64 154
q-65 62 -160 61q-95 1 -160 -65t-65 -167v-1059h-192z" />
    <glyph glyph-name="agrave" unicode="&#xe0;" horiz-adv-x="1328" 
d="M511 1560l281 -346h-185l-286 346h190zM618 1085q226 0 374 -161v137h187v-1061h-187v137q-146 -162 -374 -162q-154 1 -279 77t-194 202t-69 276t69 276t194 202t279 77zM649 142q111 0 203 58t140 152v354q-48 96 -140 154t-203 59q-162 1 -273 -113t-111 -276
t111 -275t273 -113z" />
    <glyph glyph-name="aacute" unicode="&#xe1;" horiz-adv-x="1328" 
d="M470 1214l281 346h190l-287 -346h-184zM618 1085q226 0 374 -161v137h187v-1061h-187v137q-146 -162 -374 -162q-154 1 -279 77t-194 202t-69 276t69 276t194 202t279 77zM649 142q111 0 203 58t140 152v354q-48 96 -140 154t-203 59q-162 1 -273 -113t-111 -276
t111 -275t273 -113z" />
    <glyph glyph-name="acircumflex" unicode="&#xe2;" horiz-adv-x="1328" 
d="M711 1560l299 -346h-185l-179 204l-179 -204h-184l299 346h129zM618 1085q226 0 374 -161v137h187v-1061h-187v137q-146 -162 -374 -162q-154 1 -279 77t-194 202t-69 276t69 276t194 202t279 77zM649 142q111 0 203 58t140 152v354q-48 96 -140 154t-203 59
q-162 1 -273 -113t-111 -276t111 -275t273 -113z" />
    <glyph glyph-name="atilde" unicode="&#xe3;" horiz-adv-x="1328" 
d="M505 1349q-40 0 -63 -104l-156 31q44 218 192 218q84 0 183 -76q17 -13 25 -18q8 -4 26 -16t43 -12q47 0 68 104l157 -31q-44 -218 -193 -218q-83 0 -182 76q-45 35 -63 40q-18 6 -37 6zM618 1085q226 0 374 -161v137h187v-1061h-187v137q-146 -162 -374 -162
q-154 1 -279 77t-194 202t-69 276t69 276t194 202t279 77zM649 142q111 0 203 58t140 152v354q-48 96 -140 154t-203 59q-162 1 -273 -113t-111 -276t111 -275t273 -113z" />
    <glyph glyph-name="adieresis" unicode="&#xe4;" horiz-adv-x="1328" 
d="M698 1372q0 48 34 82t82 34t82 -34t34 -82t-33 -82t-83 -34t-82 34q-34 34 -34 82zM332 1372q0 48 33 82t82 34t83 -34t33 -82q0 -48 -33 -82q-32 -34 -82 -34t-83 34t-33 82zM618 1085q226 0 374 -161v137h187v-1061h-187v137q-146 -162 -374 -162q-154 1 -279 77
t-194 202t-69 276t69 276t194 202t279 77zM649 142q111 0 203 58t140 152v354q-48 96 -140 154t-203 59q-162 1 -273 -113t-111 -276t111 -275t273 -113z" />
    <glyph glyph-name="aring" unicode="&#xe5;" horiz-adv-x="1328" 
d="M416 1395q0 85 61 142t153 57t154 -57t62 -142t-62 -143t-153 -57q-92 0 -154 57q-61 58 -61 143zM538 1395q0 -39 26 -65t67 -26t67 26t26 65t-27 65t-67 26t-66 -26t-26 -65zM618 1085q226 0 374 -161v137h187v-1061h-187v137q-146 -162 -374 -162q-154 1 -279 77
t-194 202t-69 276t69 276t194 202t279 77zM649 142q111 0 203 58t140 152v354q-48 96 -140 154t-203 59q-162 1 -273 -113t-111 -276t111 -275t273 -113z" />
    <glyph glyph-name="ae" unicode="&#xe6;" horiz-adv-x="2072" 
d="M1462 925q-130 0 -231 -85t-128 -213h699q-23 130 -116 214q-94 84 -224 84zM262 324q0 -78 92 -134q92 -54 218 -54q247 0 352 183q-9 55 -11 97q-123 96 -329 96q-138 0 -230 -55t-92 -133zM76 320q0 144 139 241q139 96 337 96q98 1 196 -27t164 -71q-1 7 -1 17t3 50
q-7 133 -105 216t-241 83q-189 0 -343 -130l-71 143q183 147 419 147q145 0 265 -63t178 -175q68 109 186 173t266 65t270 -71q123 -72 191 -193t68 -267q0 -46 -8 -82h-893q14 -144 120 -240t257 -96q191 0 328 154l128 -119q-169 -194 -452 -196q-147 1 -267 63t-192 167
q-70 -105 -187 -167t-258 -63q-213 1 -355 101t-142 244z" />
    <glyph glyph-name="ccedilla" unicode="&#xe7;" horiz-adv-x="1124" 
d="M590 -214q-42 0 -69 -5l-34 39l87 160q-218 26 -358 182t-140 368q0 152 74 279t206 202t293 74q222 0 386 -140l-97 -146q-135 120 -293 120q-158 1 -269 -113t-111 -276t111 -275t275 -113t294 128l110 -136q-138 -133 -337 -154l-62 -98q86 -16 138 -72t52 -138
t-74 -144t-184 -60q-110 0 -184 59l64 92q44 -37 104 -37t94 29t34 73t-34 73t-76 29z" />
    <glyph glyph-name="egrave" unicode="&#xe8;" horiz-adv-x="1253" 
d="M509 1560l281 -346h-185l-287 346h191zM638 925q-132 0 -234 -85t-131 -213h709q-22 130 -117 214t-227 84zM76 530q0 233 159 394q160 162 420 162q137 0 261 -72t193 -193t69 -267q0 -41 -10 -82h-902q14 -144 122 -240t259 -96q195 0 335 154l128 -119
q-171 -194 -458 -196q-128 0 -236 44q-108 45 -182 119t-116 176t-42 216z" />
    <glyph glyph-name="eacute" unicode="&#xe9;" horiz-adv-x="1253" 
d="M465 1214l280 346h191l-287 -346h-184zM638 925q-132 0 -234 -85t-131 -213h709q-22 130 -117 214t-227 84zM76 530q0 233 159 394q160 162 420 162q137 0 261 -72t193 -193t69 -267q0 -41 -10 -82h-902q14 -144 122 -240t259 -96q195 0 335 154l128 -119
q-171 -194 -458 -196q-128 0 -236 44q-108 45 -182 119t-116 176t-42 216z" />
    <glyph glyph-name="ecircumflex" unicode="&#xea;" horiz-adv-x="1253" 
d="M691 1560l299 -346h-184l-179 204l-180 -204h-184l299 346h129zM638 925q-132 0 -234 -85t-131 -213h709q-22 130 -117 214t-227 84zM76 530q0 233 159 394q160 162 420 162q137 0 261 -72t193 -193t69 -267q0 -41 -10 -82h-902q14 -144 122 -240t259 -96q195 0 335 154
l128 -119q-171 -194 -458 -196q-128 0 -236 44q-108 45 -182 119t-116 176t-42 216z" />
    <glyph glyph-name="edieresis" unicode="&#xeb;" horiz-adv-x="1253" 
d="M694 1372q0 48 34 82t82 34q49 0 82 -34q34 -34 34 -82t-34 -82t-82 -34t-82 34t-34 82zM328 1372q0 48 33 82t82 34t83 -34t33 -82q0 -48 -33 -82q-32 -34 -82 -34t-83 34t-33 82zM638 925q-132 0 -234 -85t-131 -213h709q-22 130 -117 214t-227 84zM76 530
q0 233 159 394q160 162 420 162q137 0 261 -72t193 -193t69 -267q0 -41 -10 -82h-902q14 -144 122 -240t259 -96q195 0 335 154l128 -119q-171 -194 -458 -196q-128 0 -236 44q-108 45 -182 119t-116 176t-42 216z" />
    <glyph glyph-name="igrave" unicode="&#xec;" horiz-adv-x="534" 
d="M129 1560l281 -346h-185l-286 346h190zM174 0v1061h186v-1061h-186z" />
    <glyph glyph-name="iacute" unicode="&#xed;" horiz-adv-x="534" 
d="M125 1214l281 346h190l-287 -346h-184zM174 0v1061h186v-1061h-186z" />
    <glyph glyph-name="icircumflex" unicode="&#xee;" horiz-adv-x="534" 
d="M332 1560l299 -346h-185l-179 204l-179 -204h-184l299 346h129zM174 0v1061h186v-1061h-186z" />
    <glyph glyph-name="idieresis" unicode="&#xef;" horiz-adv-x="534" 
d="M335 1372q0 48 33 82q32 34 82 34t83 -34t33 -82t-33 -82t-82 -34t-83 34t-33 82zM-32 1372q0 48 34 82t82 34q49 0 82 -34q34 -34 34 -82t-34 -82t-82 -34t-82 34t-34 82zM174 0v1061h186v-1061h-186z" />
    <glyph glyph-name="eth" unicode="&#xf0;" horiz-adv-x="1258" 
d="M626 851q-152 0 -257 -102t-105 -252t105 -252q105 -103 257 -103t256 103t104 251t-104 252q-104 103 -256 103zM624 -25q-152 0 -278 69q-126 70 -199 188t-73 260t73 260t193 186t259 68q182 0 309 -134q-97 196 -278 337l-317 -148l-53 115l251 117q-92 59 -208 111
l148 91q120 -51 227 -125l232 110l53 -114l-175 -82q180 -156 282 -362t102 -428q0 -143 -72 -263q-73 -119 -199 -187q-125 -68 -277 -69z" />
    <glyph glyph-name="ntilde" unicode="&#xf1;" horiz-adv-x="1235" 
d="M437 1245l-156 31q45 218 192 218q84 0 183 -76q17 -13 25 -18q8 -4 26 -16t43 -12q47 0 68 104l157 -31q-45 -218 -193 -218q-78 0 -159 59q-6 4 -37 28q-46 35 -86 35t-63 -104zM336 0h-186v1061h186v-163q62 82 151 135t193 52q188 0 308 -120q119 -121 119 -313v-652
h-186v642q1 120 -77 198t-184 78t-188 -62t-136 -153v-703z" />
    <glyph glyph-name="ograve" unicode="&#xf2;" horiz-adv-x="1298" 
d="M518 1560l281 -346h-185l-286 346h190zM649 1085q162 -1 294 -75t206 -201t74 -279t-74 -278t-206 -202q-132 -75 -294 -75t-294 75q-131 75 -205 202q-74 126 -74 278t74 279t206 201t293 75zM649 142q162 0 273 113t111 275t-111 275t-273 113t-273 -112
q-111 -114 -111 -276t111 -275t273 -113z" />
    <glyph glyph-name="oacute" unicode="&#xf3;" horiz-adv-x="1298" 
d="M502 1214l280 346h191l-287 -346h-184zM649 1085q162 -1 294 -75t206 -201t74 -279t-74 -278t-206 -202q-132 -75 -294 -75t-294 75q-131 75 -205 202q-74 126 -74 278t74 279t206 201t293 75zM649 142q162 0 273 113t111 275t-111 275t-273 113t-273 -112
q-111 -114 -111 -276t111 -275t273 -113z" />
    <glyph glyph-name="ocircumflex" unicode="&#xf4;" horiz-adv-x="1298" 
d="M714 1560l299 -346h-185l-179 204l-179 -204h-184l299 346h129zM649 1085q162 -1 294 -75t206 -201t74 -279t-74 -278t-206 -202q-132 -75 -294 -75t-294 75q-131 75 -205 202q-74 126 -74 278t74 279t206 201t293 75zM649 142q162 0 273 113t111 275t-111 275t-273 113
t-273 -112q-111 -114 -111 -276t111 -275t273 -113z" />
    <glyph glyph-name="otilde" unicode="&#xf5;" horiz-adv-x="1298" 
d="M521 1349q-41 0 -62 -104l-157 31q44 218 193 218q83 0 182 -76q17 -13 25 -18q8 -4 26 -16t43 -12q46 0 69 104l156 -31q-44 -218 -192 -218q-84 0 -183 76q-45 35 -63 40q-18 6 -37 6zM649 1085q162 -1 294 -75t206 -201t74 -279t-74 -278t-206 -202q-132 -75 -294 -75
t-294 75q-131 75 -205 202q-74 126 -74 278t74 279t206 201t293 75zM649 142q162 0 273 113t111 275t-111 275t-273 113t-273 -112q-111 -114 -111 -276t111 -275t273 -113z" />
    <glyph glyph-name="odieresis" unicode="&#xf6;" horiz-adv-x="1298" 
d="M717 1372q0 48 33 82q32 34 82 34t83 -34t33 -82t-33 -82t-82 -34t-83 34t-33 82zM350 1372q0 48 33 82t83 34t82 -34q34 -34 34 -82t-34 -82t-82 -34t-82 34t-34 82zM649 1085q162 -1 294 -75t206 -201t74 -279t-74 -278t-206 -202q-132 -75 -294 -75t-294 75
q-131 75 -205 202q-74 126 -74 278t74 279t206 201t293 75zM649 142q162 0 273 113t111 275t-111 275t-273 113t-273 -112q-111 -114 -111 -276t111 -275t273 -113z" />
    <glyph glyph-name="divide" unicode="&#xf7;" horiz-adv-x="1175" 
d="M460 294q0 54 37 91t91 37t91 -37t37 -91t-37 -91t-91 -37t-91 37t-37 91zM460 1067q0 54 37 91t91 37t91 -37t37 -91t-37 -91t-91 -37t-91 37t-37 91zM1054 600h-932v161h932v-161z" />
    <glyph glyph-name="oslash" unicode="&#xf8;" horiz-adv-x="1298" 
d="M265 537q0 -155 94 -264l476 598q-86 47 -186 48q-162 1 -273 -113t-111 -269zM649 142q162 0 273 113t111 268t-96 265l-475 -598q85 -48 187 -48zM648 1085q162 0 296 -75l90 112h168l-151 -191q172 -159 172 -401q0 -152 -74 -278t-206 -202q-132 -75 -295 -75
t-296 77l-90 -113h-168l153 191q-173 162 -171 400q0 152 74 279t206 201q130 74 292 75z" />
    <glyph glyph-name="ugrave" unicode="&#xf9;" horiz-adv-x="1235" 
d="M458 1560l280 -346h-184l-287 346h191zM900 1061h186v-1061h-186v163q-62 -82 -151 -135t-193 -53q-188 0 -308 121q-119 121 -119 313v652h186v-642q-1 -120 77 -198q78 -79 185 -79t188 62t135 153v704z" />
    <glyph glyph-name="uacute" unicode="&#xfa;" horiz-adv-x="1235" 
d="M465 1214l280 346h191l-287 -346h-184zM900 1061h186v-1061h-186v163q-62 -82 -151 -135t-193 -53q-188 0 -308 121q-119 121 -119 313v652h186v-642q-1 -120 77 -198q78 -79 185 -79t188 62t135 153v704z" />
    <glyph glyph-name="ucircumflex" unicode="&#xfb;" horiz-adv-x="1235" 
d="M672 1560l299 -346h-185l-179 204l-179 -204h-184l299 346h129zM900 1061h186v-1061h-186v163q-62 -82 -151 -135t-193 -53q-188 0 -308 121q-119 121 -119 313v652h186v-642q-1 -120 77 -198q78 -79 185 -79t188 62t135 153v704z" />
    <glyph glyph-name="udieresis" unicode="&#xfc;" horiz-adv-x="1235" 
d="M675 1372q0 48 33 82q32 34 82 34t83 -34t33 -82t-33 -82t-82 -34t-83 34t-33 82zM308 1372q0 48 34 82t82 34q49 0 82 -34q34 -34 34 -82t-34 -82t-82 -34t-82 34t-34 82zM900 1061h186v-1061h-186v163q-62 -82 -151 -135t-193 -53q-188 0 -308 121q-119 121 -119 313
v652h186v-642q-1 -120 77 -198q78 -79 185 -79t188 62t135 153v704z" />
    <glyph glyph-name="yacute" unicode="&#xfd;" horiz-adv-x="1075" 
d="M393 1214l281 346h190l-286 -346h-185zM254 -475l188 479l-414 1057h194l316 -820l315 820h195l-599 -1536h-195z" />
    <glyph glyph-name="thorn" unicode="&#xfe;" horiz-adv-x="1328" 
d="M710 1085q154 0 279 -76q125 -77 194 -203t69 -276t-69 -276t-194 -202t-279 -77q-227 0 -374 162v-612h-186v1970h186v-571q148 161 374 161zM679 142q162 0 273 113t111 275t-111 275t-273 114q-111 -1 -203 -59t-140 -154v-354q48 -94 140 -152t203 -58z" />
    <glyph glyph-name="ydieresis" unicode="&#xff;" horiz-adv-x="1075" 
d="M605 1372q0 48 33 82q32 34 82 34t83 -34t33 -82t-32 -82q-34 -34 -83 -34t-83 34t-33 82zM239 1372q0 48 33 82t82 34q48 0 82 -34t34 -82t-33 -82t-83 -34t-82 34q-33 34 -33 82zM254 -475l188 479l-414 1057h194l316 -820l315 820h195l-599 -1536h-195z" />
    <glyph glyph-name="Amacron" unicode="&#x100;" horiz-adv-x="1394" 
d="M400 1625v145h594v-145h-594zM450 537h495l-248 684zM1346 0h-210l-134 370h-610l-133 -370h-210l541 1434h215z" />
    <glyph glyph-name="amacron" unicode="&#x101;" horiz-adv-x="1328" 
d="M345 1293v146h594v-146h-594zM618 1085q226 0 374 -161v137h187v-1061h-187v137q-146 -162 -374 -162q-154 1 -279 77t-194 202t-69 276t69 276t194 202t279 77zM649 142q111 0 203 58t140 152v354q-48 96 -140 154t-203 59q-162 1 -273 -113t-111 -276t111 -275
t273 -113z" />
    <glyph glyph-name="Abreve" unicode="&#x102;" horiz-adv-x="1394" 
d="M697 1526q-135 0 -231 90t-102 226h165q3 -77 50 -127t119 -50t118 50q47 50 49 127h166q-7 -136 -103 -226t-231 -90zM450 537h495l-248 684zM1346 0h-210l-134 370h-610l-133 -370h-210l541 1434h215z" />
    <glyph glyph-name="abreve" unicode="&#x103;" horiz-adv-x="1328" 
d="M641 1194q-135 0 -231 90t-103 226h166q3 -77 50 -127t119 -50t118 50t49 127h166q-7 -136 -103 -226t-231 -90zM618 1085q226 0 374 -161v137h187v-1061h-187v137q-146 -162 -374 -162q-154 1 -279 77t-194 202t-69 276t69 276t194 202t279 77zM649 142q111 0 203 58
t140 152v354q-48 96 -140 154t-203 59q-162 1 -273 -113t-111 -276t111 -275t273 -113z" />
    <glyph glyph-name="Aogonek" unicode="&#x104;" horiz-adv-x="1394" 
d="M450 537h495l-248 684zM1171 -235q1 -51 33 -83t80 -32t90 27l42 -99q-69 -47 -164 -47t-160 60t-65 149q0 136 179 260h-70l-134 370h-610l-133 -370h-210l541 1434h215l541 -1434q-85 -70 -130 -126t-45 -109z" />
    <glyph glyph-name="aogonek" unicode="&#x105;" horiz-adv-x="1328" 
d="M649 142q111 0 203 58t140 152v354q-48 96 -140 154t-203 59q-162 1 -273 -113t-111 -276t111 -275t273 -113zM992 0v137q-146 -162 -374 -162q-154 1 -279 77t-194 202t-69 276t69 276t194 202t279 77q226 0 374 -161v137h187v-1061q-85 -70 -130 -126t-45 -109
q0 -51 33 -83q32 -32 80 -32t90 27l42 -99q-69 -47 -164 -47t-160 60t-65 149q0 136 179 260h-47z" />
    <glyph glyph-name="Cacute" unicode="&#x106;" horiz-adv-x="1400" 
d="M637 1546l281 345h190l-287 -345h-184zM837 1288q-233 0 -395 -166t-163 -406q1 -240 163 -405q162 -166 384 -166t399 146l102 -145q-209 -171 -490 -171q-157 -1 -297 57q-279 115 -399 393q-58 137 -58 292t58 292q59 137 159 236t240 156t297 57q266 0 473 -159
l-98 -145q-192 134 -375 134z" />
    <glyph glyph-name="cacute" unicode="&#x107;" horiz-adv-x="1124" 
d="M452 1214l280 346h191l-287 -346h-184zM649 -25q-162 0 -294 75q-131 75 -205 202q-74 126 -74 278t74 279t206 202t293 74q222 0 386 -140l-97 -146q-135 120 -293 120q-158 1 -269 -113t-111 -276t111 -275t275 -113t294 128l110 -136q-164 -159 -406 -159z" />
    <glyph glyph-name="Ccircumflex" unicode="&#x108;" horiz-adv-x="1400" 
d="M848 1891l299 -345h-184l-180 204l-179 -204h-184l299 345h129zM837 1288q-233 0 -395 -166t-163 -406q1 -240 163 -405q162 -166 384 -166t399 146l102 -145q-209 -171 -490 -171q-157 -1 -297 57q-279 115 -399 393q-58 137 -58 292t58 292q59 137 159 236t240 156
t297 57q266 0 473 -159l-98 -145q-192 134 -375 134z" />
    <glyph glyph-name="ccircumflex" unicode="&#x109;" horiz-adv-x="1124" 
d="M659 1560l299 -346h-184l-179 204l-179 -204h-185l299 346h129zM649 -25q-162 0 -294 75q-131 75 -205 202q-74 126 -74 278t74 279t206 202t293 74q222 0 386 -140l-97 -146q-135 120 -293 120q-158 1 -269 -113t-111 -276t111 -275t275 -113t294 128l110 -136
q-164 -159 -406 -159z" />
    <glyph glyph-name="Cdotaccent" unicode="&#x10a;" horiz-adv-x="1400" 
d="M669 1704q0 48 33 82t82 34q48 0 82 -34t34 -82t-33 -82t-83 -34t-82 34q-33 34 -33 82zM837 1288q-233 0 -395 -166t-163 -406q1 -240 163 -405q162 -166 384 -166t399 146l102 -145q-209 -171 -490 -171q-157 -1 -297 57q-279 115 -399 393q-58 137 -58 292t58 292
q59 137 159 236t240 156t297 57q266 0 473 -159l-98 -145q-192 134 -375 134z" />
    <glyph glyph-name="cdotaccent" unicode="&#x10b;" horiz-adv-x="1124" 
d="M500 1372q0 48 33 82t82 34t83 -34t33 -82q0 -48 -33 -82q-32 -34 -82 -34t-83 34t-33 82zM649 -25q-162 0 -294 75q-131 75 -205 202q-74 126 -74 278t74 279t206 202t293 74q222 0 386 -140l-97 -146q-135 120 -293 120q-158 1 -269 -113t-111 -276t111 -275t275 -113
t294 128l110 -136q-164 -159 -406 -159z" />
    <glyph glyph-name="Ccaron" unicode="&#x10c;" horiz-adv-x="1400" 
d="M1147 1891l-299 -345h-129l-299 345h184l179 -203l180 203h184zM837 1288q-233 0 -395 -166t-163 -406q1 -240 163 -405q162 -166 384 -166t399 146l102 -145q-209 -171 -490 -171q-157 -1 -297 57q-279 115 -399 393q-58 137 -58 292t58 292q59 137 159 236t240 156
t297 57q266 0 473 -159l-98 -145q-192 134 -375 134z" />
    <glyph glyph-name="ccaron" unicode="&#x10d;" horiz-adv-x="1124" 
d="M959 1539l-299 -345h-129l-299 345h185l179 -204l179 204h184zM649 -25q-162 0 -294 75q-131 75 -205 202q-74 126 -74 278t74 279t206 202t293 74q222 0 386 -140l-97 -146q-135 120 -293 120q-158 1 -269 -113t-111 -276t111 -275t275 -113t294 128l110 -136
q-164 -159 -406 -159z" />
    <glyph glyph-name="Dcaron" unicode="&#x10e;" horiz-adv-x="1446" 
d="M1044 1891l-299 -345h-129l-299 345h185l179 -203l179 203h184zM658 1264h-293v-1094h293q232 0 372 142q139 142 138 405q0 263 -138 405q-140 142 -372 142zM172 1434h486q324 0 515 -194t191 -523t-191 -523t-515 -194h-486v1434z" />
    <glyph glyph-name="dcaron" unicode="&#x10f;" horiz-adv-x="1640" 
d="M1345 1401q0 47 35 83t87 36t88 -36t36 -76t-13 -69l-131 -286h-122l101 226q-81 26 -81 122zM618 1085q226 0 374 -161v571h187v-1495h-187v137q-146 -162 -374 -162q-154 1 -279 77t-194 202t-69 276t69 276t194 202t279 77zM649 142q111 0 203 58t140 152v354
q-48 96 -140 154t-203 59q-162 1 -273 -113t-111 -276t111 -275t273 -113z" />
    <glyph glyph-name="Dcroat" unicode="&#x110;" horiz-adv-x="1486" 
d="M698 1264h-294v-474h315v-146h-315v-474h294q232 0 372 142q139 142 138 405q0 263 -138 405q-140 142 -372 142zM212 1434h486q324 0 515 -194t191 -523t-191 -523t-515 -194h-486v644h-187v146h187v644z" />
    <glyph glyph-name="dcroat" unicode="&#x111;" horiz-adv-x="1359" 
d="M649 142q111 0 203 58t140 152v354q-48 96 -140 154t-203 59q-162 1 -273 -113t-111 -276t111 -275t273 -113zM618 1085q226 0 374 -161v277h-354v129h354v165h187v-165h153v-129h-153v-1201h-187v137q-146 -162 -374 -162q-154 1 -279 77t-194 202t-69 276t69 276
t194 202t279 77z" />
    <glyph glyph-name="Emacron" unicode="&#x112;" horiz-adv-x="1156" 
d="M297 1625v145h594v-145h-594zM172 0v1434h847v-167h-654v-463h602v-167h-602v-470h672v-167h-865z" />
    <glyph glyph-name="emacron" unicode="&#x113;" horiz-adv-x="1253" 
d="M330 1293v146h594v-146h-594zM638 925q-132 0 -234 -85t-131 -213h709q-22 130 -117 214t-227 84zM76 530q0 233 159 394q160 162 420 162q137 0 261 -72t193 -193t69 -267q0 -41 -10 -82h-902q14 -144 122 -240t259 -96q195 0 335 154l128 -119q-171 -194 -458 -196
q-128 0 -236 44q-108 45 -182 119t-116 176t-42 216z" />
    <glyph glyph-name="Ebreve" unicode="&#x114;" horiz-adv-x="1156" 
d="M592 1526q-135 0 -231 90t-103 226h166q3 -77 50 -127q46 -50 118 -50t118 50t50 127h166q-7 -136 -103 -226t-231 -90zM172 0v1434h847v-167h-654v-463h602v-167h-602v-470h672v-167h-865z" />
    <glyph glyph-name="ebreve" unicode="&#x115;" horiz-adv-x="1253" 
d="M627 1194q-135 0 -231 90t-103 226h166q3 -77 49 -127t119 -50t119 50t49 127h166q-7 -136 -103 -226t-231 -90zM638 925q-132 0 -234 -85t-131 -213h709q-22 130 -117 214t-227 84zM76 530q0 233 159 394q160 162 420 162q137 0 261 -72t193 -193t69 -267q0 -41 -10 -82
h-902q14 -144 122 -240t259 -96q195 0 335 154l128 -119q-171 -194 -458 -196q-128 0 -236 44q-108 45 -182 119t-116 176t-42 216z" />
    <glyph glyph-name="Edotaccent" unicode="&#x116;" horiz-adv-x="1156" 
d="M485 1704q-1 48 33 82t83 34t83 -34t33 -82q0 -48 -33 -82q-32 -34 -82 -34t-84 34t-33 82zM172 0v1434h847v-167h-654v-463h602v-167h-602v-470h672v-167h-865z" />
    <glyph glyph-name="edotaccent" unicode="&#x117;" horiz-adv-x="1253" 
d="M511 1372q0 48 33 82q32 34 82 34t83 -34t33 -82t-33 -82t-82 -34t-83 34q-33 34 -33 82zM638 925q-132 0 -234 -85t-131 -213h709q-22 130 -117 214t-227 84zM76 530q0 233 159 394q160 162 420 162q137 0 261 -72t193 -193t69 -267q0 -41 -10 -82h-902
q14 -144 122 -240t259 -96q195 0 335 154l128 -119q-171 -194 -458 -196q-128 0 -236 44q-108 45 -182 119t-116 176t-42 216z" />
    <glyph glyph-name="Eogonek" unicode="&#x118;" horiz-adv-x="1156" 
d="M172 0v1434h847v-167h-654v-463h602v-167h-602v-470h672v-167h-179q-86 -70 -130 -126t-44 -109q0 -51 32 -83t80 -32t91 27l42 -99q-69 -47 -164 -47t-160 60t-65 149q0 136 179 260h-547z" />
    <glyph glyph-name="eogonek" unicode="&#x119;" horiz-adv-x="1253" 
d="M638 925q-132 0 -234 -85t-131 -213h709q-22 130 -117 214t-227 84zM647 136q195 0 335 154l128 -119q-147 -167 -384 -191q-150 -127 -148 -219q0 -47 32 -79t80 -32t90 27l42 -99q-69 -47 -164 -47t-160 60t-65 149q0 125 151 240q-151 14 -267 91q-117 77 -179 197
t-62 248q0 247 159 408q160 162 420 162q137 0 261 -72t193 -193t69 -267q0 -41 -10 -82h-902q14 -144 122 -240t259 -96z" />
    <glyph glyph-name="Ecaron" unicode="&#x11a;" horiz-adv-x="1156" 
d="M958 1891l-299 -345h-129l-299 345h185l179 -203l179 203h184zM172 0v1434h847v-167h-654v-463h602v-167h-602v-470h672v-167h-865z" />
    <glyph glyph-name="ecaron" unicode="&#x11b;" horiz-adv-x="1253" 
d="M990 1539l-299 -345h-129l-299 345h184l180 -204l179 204h184zM638 925q-132 0 -234 -85t-131 -213h709q-22 130 -117 214t-227 84zM76 530q0 233 159 394q160 162 420 162q137 0 261 -72t193 -193t69 -267q0 -41 -10 -82h-902q14 -144 122 -240t259 -96q195 0 335 154
l128 -119q-171 -194 -458 -196q-128 0 -236 44q-108 45 -182 119t-116 176t-42 216z" />
    <glyph glyph-name="Gcircumflex" unicode="&#x11c;" horiz-adv-x="1474" 
d="M848 1891l299 -345h-184l-180 204l-179 -204h-184l299 345h129zM837 1288q-233 0 -395 -166t-163 -406q0 -240 162 -405q162 -166 396 -166q177 0 308 96v349h-392v167h584v-600q-205 -180 -500 -182q-157 -1 -297 57q-279 115 -399 393q-58 137 -58 292t58 292
q59 137 159 236t240 156t297 57q266 0 473 -159l-98 -145q-192 134 -375 134z" />
    <glyph glyph-name="gcircumflex" unicode="&#x11d;" horiz-adv-x="1328" 
d="M712 1560l299 -346h-185l-179 204l-179 -204h-184l299 346h129zM649 142q111 0 203 58t140 152v354q-48 96 -140 154t-203 59q-162 1 -273 -113t-111 -276t111 -275t273 -113zM992 22v115q-146 -162 -374 -162q-154 1 -279 77t-194 202t-69 276t69 276t194 202t279 77
q226 0 374 -161v137h187v-1027q-1 -232 -141 -370t-396 -139q-146 0 -270 57t-210 156l123 121q154 -173 356 -173q160 0 256 90q95 90 95 246z" />
    <glyph glyph-name="Gbreve" unicode="&#x11e;" horiz-adv-x="1474" 
d="M783 1526q-135 0 -231 90t-102 226h165q3 -77 50 -127t119 -50t118 50q47 50 49 127h166q-7 -136 -103 -226t-231 -90zM837 1288q-233 0 -395 -166t-163 -406q0 -240 162 -405q162 -166 396 -166q177 0 308 96v349h-392v167h584v-600q-205 -180 -500 -182
q-157 -1 -297 57q-279 115 -399 393q-58 137 -58 292t58 292q59 137 159 236t240 156t297 57q266 0 473 -159l-98 -145q-192 134 -375 134z" />
    <glyph glyph-name="gbreve" unicode="&#x11f;" horiz-adv-x="1328" 
d="M639 1194q-135 0 -231 90t-103 226h166q3 -77 50 -127t119 -50t118 50t49 127h166q-7 -136 -103 -226t-231 -90zM649 142q111 0 203 58t140 152v354q-48 96 -140 154t-203 59q-162 1 -273 -113t-111 -276t111 -275t273 -113zM992 22v115q-146 -162 -374 -162
q-154 1 -279 77t-194 202t-69 276t69 276t194 202t279 77q226 0 374 -161v137h187v-1027q-1 -232 -141 -370t-396 -139q-146 0 -270 57t-210 156l123 121q154 -173 356 -173q160 0 256 90q95 90 95 246z" />
    <glyph glyph-name="Gdotaccent" unicode="&#x120;" horiz-adv-x="1474" 
d="M668 1704q0 48 33 82t82 34t83 -34t33 -82q0 -48 -33 -82q-32 -34 -82 -34t-83 34t-33 82zM837 1288q-233 0 -395 -166t-163 -406q0 -240 162 -405q162 -166 396 -166q177 0 308 96v349h-392v167h584v-600q-205 -180 -500 -182q-157 -1 -297 57q-279 115 -399 393
q-58 137 -58 292t58 292q59 137 159 236t240 156t297 57q266 0 473 -159l-98 -145q-192 134 -375 134z" />
    <glyph glyph-name="gdotaccent" unicode="&#x121;" horiz-adv-x="1328" 
d="M516 1372q0 48 33 82t83 34t82 -34q34 -34 34 -82t-34 -82t-82 -34q-49 0 -83 34q-33 34 -33 82zM649 142q111 0 203 58t140 152v354q-48 96 -140 154t-203 59q-162 1 -273 -113t-111 -276t111 -275t273 -113zM992 22v115q-146 -162 -374 -162q-154 1 -279 77t-194 202
t-69 276t69 276t194 202t279 77q226 0 374 -161v137h187v-1027q-1 -232 -141 -370t-396 -139q-146 0 -270 57t-210 156l123 121q154 -173 356 -173q160 0 256 90q95 90 95 246z" />
    <glyph glyph-name="Gcommaaccent" unicode="&#x122;" horiz-adv-x="1474" 
d="M763 -481h-170l160 350h188zM837 1288q-233 0 -395 -166t-163 -406q0 -240 162 -405q162 -166 396 -166q177 0 308 96v349h-392v167h584v-600q-205 -180 -500 -182q-157 -1 -297 57q-279 115 -399 393q-58 137 -58 292t58 292q59 137 159 236t240 156t297 57
q266 0 473 -159l-98 -145q-192 134 -375 134z" />
    <glyph glyph-name="gcommaaccent" unicode="&#x123;" horiz-adv-x="1328" 
d="M706 1550h170l-160 -350h-189zM649 142q111 0 203 58t140 152v354q-48 96 -140 154t-203 59q-162 1 -273 -113t-111 -276t111 -275t273 -113zM992 22v115q-146 -162 -374 -162q-154 1 -279 77t-194 202t-69 276t69 276t194 202t279 77q226 0 374 -161v137h187v-1027
q-1 -232 -141 -370t-396 -139q-146 0 -270 57t-210 156l123 121q154 -173 356 -173q160 0 256 90q95 90 95 246z" />
    <glyph glyph-name="Hcircumflex" unicode="&#x124;" horiz-adv-x="1427" 
d="M778 1891l299 -345h-184l-179 204l-179 -204h-185l299 345h129zM172 0v1434h193v-630h698v630h192v-1434h-192v637h-698v-637h-193z" />
    <glyph glyph-name="hcircumflex" unicode="&#x125;" horiz-adv-x="1235" 
d="M307 1953l299 -345h-184l-179 203l-180 -203h-184l299 345h129zM336 0h-186v1495h186v-597q62 82 151 135t193 52q188 0 308 -120q119 -121 119 -313v-652h-186v642q1 120 -77 198t-184 78t-188 -62t-136 -153v-703z" />
    <glyph glyph-name="Hbar" unicode="&#x126;" horiz-adv-x="1449" 
d="M376 804h698v269h-698v-269zM183 0v1073h-128v142h128v219h193v-219h698v219h193v-219h128v-142h-128v-1073h-193v637h-698v-637h-193z" />
    <glyph glyph-name="hbar" unicode="&#x127;" horiz-adv-x="1267" 
d="M28 1201v129h153v165h187v-165h354v-129h-354v-303q62 82 151 135t193 52q188 -1 307 -121t120 -312v-652h-187v642q0 120 -77 198t-184 78t-188 -61q-81 -62 -135 -154v-703h-187v1201h-153z" />
    <glyph glyph-name="Itilde" unicode="&#x128;" horiz-adv-x="583" 
d="M164 1680q-40 0 -63 -103l-156 31q44 218 192 218q79 0 160 -60l23 -16l25 -18q8 -4 26 -16t43 -12q47 0 68 103l157 -30q-45 -218 -193 -218q-83 0 -182 76q-47 36 -64 40q-17 5 -36 5zM196 1434h192v-1434h-192v1434z" />
    <glyph glyph-name="itilde" unicode="&#x129;" horiz-adv-x="534" 
d="M139 1349q-41 0 -62 -104l-157 31q45 218 193 218q83 0 182 -76q17 -13 25 -18q8 -4 27 -16q18 -12 42 -12q46 0 69 104l156 -31q-45 -218 -192 -218q-84 0 -183 76q-45 35 -63 40q-18 6 -37 6zM174 0v1061h186v-1061h-186z" />
    <glyph glyph-name="Imacron" unicode="&#x12a;" horiz-adv-x="583" 
d="M-5 1625v145h594v-145h-594zM196 1434h192v-1434h-192v1434z" />
    <glyph glyph-name="imacron" unicode="&#x12b;" horiz-adv-x="534" 
d="M-30 1293v146h594v-146h-594zM174 0v1061h186v-1061h-186z" />
    <glyph glyph-name="Ibreve" unicode="&#x12c;" horiz-adv-x="583" 
d="M292 1526q-135 0 -231 90t-103 226h166q3 -77 50 -127q46 -50 118 -50t118 50t50 127h166q-7 -136 -103 -226t-231 -90zM196 1434h192v-1434h-192v1434z" />
    <glyph glyph-name="ibreve" unicode="&#x12d;" horiz-adv-x="534" 
d="M267 1194q-135 0 -231 90t-103 226h166q3 -77 50 -127t119 -50t118 50q47 50 49 127h166q-7 -136 -103 -226t-231 -90zM174 0v1061h186v-1061h-186z" />
    <glyph glyph-name="Iogonek" unicode="&#x12e;" horiz-adv-x="583" 
d="M196 0v1434h192v-1434q-86 -70 -130 -126t-44 -109q0 -51 32 -83t80 -32t91 27l42 -99q-69 -47 -164 -47t-160 60t-65 149q0 136 179 260h-53z" />
    <glyph glyph-name="iogonek" unicode="&#x12f;" horiz-adv-x="534" 
d="M144 1358q0 52 36 86q36 36 87 36t87 -36t36 -86q0 -52 -35 -88t-87 -35q-52 -1 -88 35t-36 88zM174 0v1061h186v-1061q-86 -70 -130 -126t-44 -109q0 -51 32 -83t81 -32q48 0 90 27l42 -99q-69 -47 -164 -47t-160 60t-65 149q0 136 179 260h-47z" />
    <glyph glyph-name="Idotaccent" unicode="&#x130;" horiz-adv-x="583" 
d="M176 1704q0 48 33 82t83 34t82 -34q34 -34 34 -82t-34 -82t-82 -34q-49 0 -83 34q-33 34 -33 82zM196 1434h192v-1434h-192v1434z" />
    <glyph glyph-name="dotlessi" unicode="&#x131;" horiz-adv-x="534" 
d="M174 0v1061h186v-1061h-186z" />
    <glyph glyph-name="IJ" unicode="&#x132;" horiz-adv-x="1483" 
d="M1133 441v993h192v-993q0 -466 -438 -466q-162 0 -285 70l63 163q98 -61 218 -63q250 0 250 296zM196 1434h192v-1434h-192v1434z" />
    <glyph glyph-name="ij" unicode="&#x133;" horiz-adv-x="1069" 
d="M679 1358q0 52 35 86q36 36 88 36t87 -36t35 -86q0 -52 -34 -88q-36 -36 -88 -35q-52 0 -88 35q-35 36 -35 88zM709 -140v1201h186v-1198q0 -177 -77 -257t-237 -81q-37 0 -80 4v161q17 -1 75 -1t96 40t37 131zM144 1358q0 52 36 86q36 36 87 36t87 -36t36 -86
q0 -52 -35 -88t-87 -35q-52 -1 -88 35t-36 88zM174 0v1061h186v-1061h-186z" />
    <glyph glyph-name="Jcircumflex" unicode="&#x134;" horiz-adv-x="930" 
d="M740 1891l299 -345h-184l-179 204l-179 -204h-185l299 345h129zM580 441v993h192v-993q0 -466 -438 -466q-162 0 -285 70l63 163q98 -61 218 -63q250 0 250 296z" />
    <glyph glyph-name="jcircumflex" unicode="&#x135;" horiz-adv-x="534" 
d="M332 1560l299 -346h-185l-179 204l-179 -204h-184l299 346h129zM174 -140v1201h186v-1198q0 -177 -76 -258q-77 -80 -238 -80q-37 0 -80 4v161q18 -1 76 -1t95 40t37 131z" />
    <glyph glyph-name="Kcommaaccent" unicode="&#x136;" horiz-adv-x="1229" 
d="M592 -481h-170l160 350h188zM365 1434v-630h122l439 630h220l-495 -710l577 -724h-227l-507 637h-129v-637h-193v1434h193z" />
    <glyph glyph-name="kcommaaccent" unicode="&#x137;" horiz-adv-x="1053" 
d="M478 -481h-170l160 350h188zM336 509v-509h-186v1495h186v-825h133l300 391h221l-366 -471l422 -590h-216l-363 509h-131z" />
    <glyph glyph-name="kgreenlandic" unicode="&#x138;" horiz-adv-x="1053" 
d="M336 504v-504h-186v1061h186v-396h133l300 396h221l-366 -476l422 -585h-216l-363 504h-131z" />
    <glyph glyph-name="Lacute" unicode="&#x139;" horiz-adv-x="1054" 
d="M173 1546l281 345h190l-287 -345h-184zM172 0v1434h193v-1267h642v-167h-835z" />
    <glyph glyph-name="lacute" unicode="&#x13a;" horiz-adv-x="534" 
d="M115 1608l280 345h191l-287 -345h-184zM174 0v1495h186v-1495h-186z" />
    <glyph glyph-name="Lcommaaccent" unicode="&#x13b;" horiz-adv-x="1054" 
d="M538 -481h-170l159 350h189zM172 0v1434h193v-1267h642v-167h-835z" />
    <glyph glyph-name="lcommaaccent" unicode="&#x13c;" horiz-adv-x="534" 
d="M207 -481h-170l160 350h188zM174 0v1495h186v-1495h-186z" />
    <glyph glyph-name="Lcaron" unicode="&#x13d;" horiz-adv-x="1054" 
d="M645 1339q0 47 35 83q36 36 88 36t88 -36t36 -76t-13 -68l-131 -287h-122l101 227q-82 27 -82 121zM172 0v1434h193v-1267h642v-167h-835z" />
    <glyph glyph-name="lcaron" unicode="&#x13e;" horiz-adv-x="823" 
d="M527 1401q-1 47 35 83t88 36t88 -36t36 -76t-13 -69l-131 -286h-122l101 226q-82 27 -82 122zM174 0v1495h186v-1495h-186z" />
    <glyph glyph-name="Ldot" unicode="&#x13f;" horiz-adv-x="1054" 
d="M627 770q0 48 33 82t82 34q48 0 82 -34t34 -82t-33 -82t-83 -34t-82 34q-33 34 -33 82zM172 0v1434h193v-1267h642v-167h-835z" />
    <glyph glyph-name="ldot" unicode="&#x140;" horiz-adv-x="821" 
d="M537 770q0 48 33 82t82 34q48 0 82 -34t34 -82t-33 -82t-83 -34t-82 34q-33 34 -33 82zM174 0v1495h186v-1495h-186z" />
    <glyph glyph-name="Lslash" unicode="&#x141;" horiz-adv-x="1086" 
d="M204 0v563l-149 -76v157l149 76v714h192v-615l385 198v-157l-385 -197v-496h642v-167h-834z" />
    <glyph glyph-name="lslash" unicode="&#x142;" horiz-adv-x="602" 
d="M208 0v658l-180 -90v146l180 90v691h186v-597l180 90v-145l-180 -90v-753h-186z" />
    <glyph glyph-name="Nacute" unicode="&#x143;" horiz-adv-x="1432" 
d="M563 1546l281 345h190l-286 -345h-185zM172 0v1434h185l717 -1100v1100h187v-1434h-186l-717 1100v-1100h-186z" />
    <glyph glyph-name="nacute" unicode="&#x144;" horiz-adv-x="1235" 
d="M476 1214l281 346h190l-287 -346h-184zM336 0h-186v1061h186v-163q62 82 151 135t193 52q188 0 308 -120q119 -121 119 -313v-652h-186v642q1 120 -77 198t-184 78t-188 -62t-136 -153v-703z" />
    <glyph glyph-name="Ncommaaccent" unicode="&#x145;" horiz-adv-x="1432" 
d="M672 -481h-170l160 350h188zM172 0v1434h185l717 -1100v1100h187v-1434h-186l-717 1100v-1100h-186z" />
    <glyph glyph-name="ncommaaccent" unicode="&#x146;" horiz-adv-x="1235" 
d="M578 -481h-170l159 350h189zM336 0h-186v1061h186v-163q62 82 151 135t193 52q188 0 308 -120q119 -121 119 -313v-652h-186v642q1 120 -77 198t-184 78t-188 -62t-136 -153v-703z" />
    <glyph glyph-name="Ncaron" unicode="&#x147;" horiz-adv-x="1432" 
d="M1079 1891l-299 -345h-129l-299 345h185l179 -203l179 203h184zM172 0v1434h185l717 -1100v1100h187v-1434h-186l-717 1100v-1100h-186z" />
    <glyph glyph-name="ncaron" unicode="&#x148;" horiz-adv-x="1235" 
d="M970 1539l-299 -345h-129l-299 345h184l179 -204l179 204h185zM336 0h-186v1061h186v-163q62 82 151 135t193 52q188 0 308 -120q119 -121 119 -313v-652h-186v642q1 120 -77 198t-184 78t-188 -62t-136 -153v-703z" />
    <glyph glyph-name="napostrophe" unicode="&#x149;" horiz-adv-x="1434" 
d="M73 1401q0 47 35 83q36 36 88 36t88 -36q59 -59 22 -145l-131 -286h-122l102 226q-82 27 -82 122zM535 0h-187v1061h187v-163q62 82 151 135t193 52q188 -1 307 -121t120 -312v-652h-187v642q0 120 -77 198q-78 78 -184 78t-188 -61q-81 -63 -135 -154v-703z" />
    <glyph glyph-name="Eng" unicode="&#x14a;" horiz-adv-x="1432" 
d="M1261 1434v-1539q0 -370 -385 -370q-56 0 -104 8v161q44 -5 93 -5q112 0 161 51t48 157v104l-716 1099v-1100h-186v1434h185l717 -1100v1100h187z" />
    <glyph glyph-name="eng" unicode="&#x14b;" horiz-adv-x="1235" 
d="M921 -103v745q1 120 -77 198t-184 78t-188 -61q-81 -62 -136 -154v-703h-186v1061h186v-163q62 82 151 135t193 52q188 0 308 -120q119 -121 119 -313v-757q0 -187 -93 -279t-287 -91q-59 0 -109 8v161q44 -5 94 -5q112 -1 160 51t49 157z" />
    <glyph glyph-name="Omacron" unicode="&#x14c;" horiz-adv-x="1673" 
d="M540 1625v145h594v-145h-594zM837 1458q157 0 297 -57q279 -114 398 -392q58 -137 58 -292t-58 -292t-158 -236t-241 -156t-297 -57t-296 56q-279 115 -399 393q-58 137 -58 292t58 292q59 137 159 236t240 156t297 57zM837 145q233 0 395 166t163 406q-1 239 -163 405
t-395 166t-395 -166t-163 -406q1 -240 163 -405q162 -166 395 -166z" />
    <glyph glyph-name="omacron" unicode="&#x14d;" horiz-adv-x="1298" 
d="M352 1293v146h594v-146h-594zM649 1085q162 -1 294 -75t206 -201t74 -279t-74 -278t-206 -202q-132 -75 -294 -75t-294 75q-131 75 -205 202q-74 126 -74 278t74 279t206 201t293 75zM649 142q162 0 273 113t111 275t-111 275t-273 113t-273 -112q-111 -114 -111 -276
t111 -275t273 -113z" />
    <glyph glyph-name="Obreve" unicode="&#x14e;" horiz-adv-x="1673" 
d="M837 1526q-135 0 -231 90t-103 226h166q3 -77 49 -127t119 -50t119 50t49 127h165q-7 -137 -102 -227q-96 -89 -231 -89zM837 1458q157 0 297 -57q279 -114 398 -392q58 -137 58 -292t-58 -292t-158 -236t-241 -156t-297 -57t-296 56q-279 115 -399 393q-58 137 -58 292
t58 292q59 137 159 236t240 156t297 57zM837 145q233 0 395 166t163 406q-1 239 -163 405t-395 166t-395 -166t-163 -406q1 -240 163 -405q162 -166 395 -166z" />
    <glyph glyph-name="obreve" unicode="&#x14f;" horiz-adv-x="1298" 
d="M649 1194q-135 0 -231 90t-103 226h166q3 -77 50 -127t119 -50t118 50t49 127h166q-7 -136 -103 -226t-231 -90zM649 1085q162 -1 294 -75t206 -201t74 -279t-74 -278t-206 -202q-132 -75 -294 -75t-294 75q-131 75 -205 202q-74 126 -74 278t74 279t206 201t293 75z
M649 142q162 0 273 113t111 275t-111 275t-273 113t-273 -112q-111 -114 -111 -276t111 -275t273 -113z" />
    <glyph glyph-name="Ohungarumlaut" unicode="&#x150;" horiz-adv-x="1673" 
d="M871 1546l281 345h190l-286 -345h-185zM547 1546l281 345h191l-287 -345h-185zM837 1458q157 0 297 -57q279 -114 398 -392q58 -137 58 -292t-58 -292t-158 -236t-241 -156t-297 -57t-296 56q-279 115 -399 393q-58 137 -58 292t58 292q59 137 159 236t240 156t297 57z
M837 145q233 0 395 166t163 406q-1 239 -163 405t-395 166t-395 -166t-163 -406q1 -240 163 -405q162 -166 395 -166z" />
    <glyph glyph-name="ohungarumlaut" unicode="&#x151;" horiz-adv-x="1298" 
d="M668 1214l280 346h191l-287 -346h-184zM343 1214l282 346h190l-287 -346h-185zM649 1085q162 -1 294 -75t206 -201t74 -279t-74 -278t-206 -202q-132 -75 -294 -75t-294 75q-131 75 -205 202q-74 126 -74 278t74 279t206 201t293 75zM649 142q162 0 273 113t111 275
t-111 275t-273 113t-273 -112q-111 -114 -111 -276t111 -275t273 -113z" />
    <glyph glyph-name="OE" unicode="&#x152;" horiz-adv-x="1839" 
d="M1720 0h-864q-159 0 -302 55q-288 111 -411 379q-60 133 -60 283q0 199 103 363t280 259q177 94 390 95h846v-167h-637v-463h585v-167h-585v-470h655v-167zM856 170h16v1094h-16q-160 0 -292 -72t-209 -197q-76 -125 -76 -278t76 -278q77 -125 209 -197t292 -72z" />
    <glyph glyph-name="oe" unicode="&#x153;" horiz-adv-x="2185" 
d="M1575 925q-129 0 -231 -85t-129 -213h699q-23 130 -116 214t-223 84zM641 142q159 0 267 112t109 276q0 164 -109 276q-109 113 -267 113t-267 -113q-109 -112 -109 -276q1 -164 109 -276t267 -112zM636 -25q-154 0 -284 74t-203 201t-73 280t73 280t203 201t285 74
q155 -1 280 -75t194 -198q67 122 191 198t275 76t274 -72t191 -193t67 -267q0 -46 -8 -82h-894q17 -144 123 -240t255 -96q190 0 329 154l128 -119q-169 -194 -453 -196q-159 0 -287 75t-192 196q-69 -123 -194 -197q-126 -74 -280 -74z" />
    <glyph glyph-name="Racute" unicode="&#x154;" horiz-adv-x="1228" 
d="M447 1546l281 345h191l-287 -345h-185zM927 987q-1 129 -81 204t-223 76h-258v-559h258q143 0 223 75t81 204zM365 541v-541h-193v1434h458q227 0 360 -122q132 -122 132 -309q0 -188 -96 -303t-265 -147l388 -553h-213l-379 541h-192z" />
    <glyph glyph-name="racute" unicode="&#x155;" 
d="M247 1214l280 346h191l-287 -346h-184zM641 919q-88 0 -168 -66t-137 -172v-681h-186v1061h186v-174q147 199 330 198q55 0 99 -20l-15 -166q-56 20 -109 20z" />
    <glyph glyph-name="Rcommaaccent" unicode="&#x156;" horiz-adv-x="1228" 
d="M556 -481h-170l160 350h188zM927 987q-1 129 -81 204t-223 76h-258v-559h258q143 0 223 75t81 204zM365 541v-541h-193v1434h458q227 0 360 -122q132 -122 132 -309q0 -188 -96 -303t-265 -147l388 -553h-213l-379 541h-192z" />
    <glyph glyph-name="rcommaaccent" unicode="&#x157;" 
d="M182 -481h-170l160 350h188zM641 919q-88 0 -168 -66t-137 -172v-681h-186v1061h186v-174q147 199 330 198q55 0 99 -20l-15 -166q-56 20 -109 20z" />
    <glyph glyph-name="Rcaron" unicode="&#x158;" horiz-adv-x="1228" 
d="M949 1891l-299 -345h-129l-299 345h185l179 -203l179 203h184zM927 987q-1 129 -81 204t-223 76h-258v-559h258q143 0 223 75t81 204zM365 541v-541h-193v1434h458q227 0 360 -122q132 -122 132 -309q0 -188 -96 -303t-265 -147l388 -553h-213l-379 541h-192z" />
    <glyph glyph-name="rcaron" unicode="&#x159;" 
d="M769 1539l-299 -345h-129l-299 345h184l180 -204l179 204h184zM641 919q-88 0 -168 -66t-137 -172v-681h-186v1061h186v-174q147 199 330 198q55 0 99 -20l-15 -166q-56 20 -109 20z" />
    <glyph glyph-name="Sacute" unicode="&#x15a;" horiz-adv-x="1204" 
d="M456 1546l280 345h191l-287 -345h-184zM921 379q0 104 -80 174q-80 69 -280 111q-201 42 -313 146t-112 268t126 272t329 108q270 0 450 -182l-114 -138q-160 151 -327 150q-120 0 -194 -57t-74 -151q0 -186 328 -261q240 -54 348 -162q108 -107 108 -281t-137 -287
t-367 -114q-148 1 -283 63t-223 168l122 131q168 -191 394 -191q122 0 211 64q88 65 88 169z" />
    <glyph glyph-name="sacute" unicode="&#x15b;" horiz-adv-x="954" 
d="M315 1214l281 346h190l-286 -346h-185zM692 292q0 70 -56 112q-56 44 -179 68q-345 67 -345 320q0 127 100 210q101 83 265 83q206 0 357 -141l-101 -127q-125 108 -243 108q-84 -1 -138 -39t-54 -97t55 -103t164 -65q183 -35 273 -117t89 -217q0 -135 -105 -223
t-287 -89q-128 -1 -235 47t-177 130l105 126q115 -142 301 -142q94 0 153 43q58 43 58 113z" />
    <glyph glyph-name="Scircumflex" unicode="&#x15c;" horiz-adv-x="1204" 
d="M653 1891l299 -345h-184l-179 204l-179 -204h-185l299 345h129zM921 379q0 104 -80 174q-80 69 -280 111q-201 42 -313 146t-112 268t126 272t329 108q270 0 450 -182l-114 -138q-160 151 -327 150q-120 0 -194 -57t-74 -151q0 -186 328 -261q240 -54 348 -162
q108 -107 108 -281t-137 -287t-367 -114q-148 1 -283 63t-223 168l122 131q168 -191 394 -191q122 0 211 64q88 65 88 169z" />
    <glyph glyph-name="scircumflex" unicode="&#x15d;" horiz-adv-x="954" 
d="M529 1560l299 -346h-184l-179 204l-179 -204h-185l299 346h129zM692 292q0 70 -56 112q-56 44 -179 68q-345 67 -345 320q0 127 100 210q101 83 265 83q206 0 357 -141l-101 -127q-125 108 -243 108q-84 -1 -138 -39t-54 -97t55 -103t164 -65q183 -35 273 -117t89 -217
q0 -135 -105 -223t-287 -89q-128 -1 -235 47t-177 130l105 126q115 -142 301 -142q94 0 153 43q58 43 58 113z" />
    <glyph glyph-name="Scedilla" unicode="&#x15e;" horiz-adv-x="1204" 
d="M576 -214q-42 0 -68 -5l-34 39l86 157q-134 9 -254 71t-200 158l122 131q168 -191 394 -191q122 0 211 64q88 65 88 169t-80 174q-80 69 -280 111q-201 42 -313 146t-112 268t126 272t329 108q270 0 450 -182l-114 -138q-160 151 -327 150q-120 0 -194 -57t-74 -151
q0 -186 328 -261q240 -54 348 -162q108 -107 108 -271t-110 -273t-300 -131l-63 -100q86 -16 138 -72t52 -138q-1 -82 -75 -144t-184 -60q-110 0 -183 59l64 92q45 -37 104 -37t94 29q34 29 34 73t-34 73q-35 29 -77 29z" />
    <glyph glyph-name="scedilla" unicode="&#x15f;" horiz-adv-x="954" 
d="M444 -214q-42 0 -69 -5l-34 39l86 158q-226 21 -352 174l105 126q115 -142 301 -142q94 0 153 43q58 43 58 113t-56 112q-56 44 -179 68q-345 67 -345 320q0 127 100 210q101 83 265 83q206 0 357 -141l-101 -127q-125 108 -243 108q-84 -1 -138 -39t-54 -97t55 -103
t164 -65q362 -71 362 -325q1 -126 -81 -211q-82 -84 -226 -103l-62 -100q86 -16 138 -72t52 -138t-75 -144q-73 -62 -183 -60q-110 0 -184 59l64 92q45 -37 104 -37t94 29q34 29 34 73t-34 73t-76 29z" />
    <glyph glyph-name="Scaron" unicode="&#x160;" horiz-adv-x="1204" 
d="M952 1891l-299 -345h-129l-299 345h185l179 -203l179 203h184zM921 379q0 104 -80 174q-80 69 -280 111q-201 42 -313 146t-112 268t126 272t329 108q270 0 450 -182l-114 -138q-160 151 -327 150q-120 0 -194 -57t-74 -151q0 -186 328 -261q240 -54 348 -162
q108 -107 108 -281t-137 -287t-367 -114q-148 1 -283 63t-223 168l122 131q168 -191 394 -191q122 0 211 64q88 65 88 169z" />
    <glyph glyph-name="scaron" unicode="&#x161;" horiz-adv-x="954" 
d="M830 1539l-299 -345h-129l-299 345h185l179 -204l179 204h184zM692 292q0 70 -56 112q-56 44 -179 68q-345 67 -345 320q0 127 100 210q101 83 265 83q206 0 357 -141l-101 -127q-125 108 -243 108q-84 -1 -138 -39t-54 -97t55 -103t164 -65q183 -35 273 -117t89 -217
q0 -135 -105 -223t-287 -89q-128 -1 -235 47t-177 130l105 126q115 -142 301 -142q94 0 153 43q58 43 58 113z" />
    <glyph glyph-name="Tcommaaccent" unicode="&#x162;" horiz-adv-x="1124" 
d="M466 0v1267h-403v167h998v-167h-403v-1267l-74 -118q86 -16 138 -72t51 -138q0 -82 -74 -144q-73 -62 -183 -60q-110 0 -184 59l63 92q45 -37 105 -37t93 29q34 29 35 73q0 44 -34 73t-76 29t-69 -5l-34 39l98 180h-47z" />
    <glyph glyph-name="tcommaaccent" unicode="&#x163;" horiz-adv-x="782" 
d="M380 -214q-42 0 -70 -5l-34 39l111 202q-150 82 -149 315v560h-192v164h192v291l186 16v-307h290v-164h-290v-558q0 -102 48 -151t159 -49q56 0 95 5v-160q-102 -20 -217 0l-64 -102q86 -16 138 -72t52 -138t-74 -144q-73 -62 -183 -60q-110 0 -184 59l63 92
q45 -37 105 -37t93 29q34 29 34 73t-34 73q-33 29 -75 29z" />
    <glyph glyph-name="Tcaron" unicode="&#x164;" horiz-adv-x="1124" 
d="M926 1891l-299 -345h-129l-299 345h184l179 -203l179 203h185zM466 0v1267h-403v167h998v-167h-403v-1267h-192z" />
    <glyph glyph-name="tcaron" unicode="&#x165;" horiz-adv-x="1098" 
d="M803 1401q0 47 35 83q36 36 88 36t88 -36t36 -76t-14 -69l-131 -286h-122l102 226q-82 27 -82 122zM424 897v-558q0 -102 48 -151t159 -49q56 0 95 5v-160q-41 -8 -111 -9q-193 0 -285 88t-92 274v560h-192v164h192v291l186 16v-307h290v-164h-290z" />
    <glyph glyph-name="Tbar" unicode="&#x166;" horiz-adv-x="1124" 
d="M466 0v644h-272v144h272v479h-403v167h998v-167h-403v-479h273v-144h-273v-644h-192z" />
    <glyph glyph-name="tbar" unicode="&#x167;" horiz-adv-x="782" 
d="M424 897v-284h247v-129h-247v-145q0 -102 48 -151t159 -49q56 0 95 5v-160q-41 -8 -111 -9q-193 0 -285 88t-92 274v147h-166v129h166v284h-192v164h192v291l186 16v-307h290v-164h-290z" />
    <glyph glyph-name="Utilde" unicode="&#x168;" horiz-adv-x="1357" 
d="M551 1680q-40 0 -63 -103l-156 31q45 218 192 218q79 0 160 -60l23 -16l25 -18q8 -4 26 -16t43 -12q47 0 68 103l157 -30q-45 -218 -192 -218q-84 0 -183 76q-47 36 -64 40q-17 5 -36 5zM1199 1434v-933q0 -156 -69 -276t-187 -184t-264 -64t-264 64t-187 184t-69 276
v933h192v-955q0 -147 93 -239q92 -92 234 -92t235 92t94 239v955h192z" />
    <glyph glyph-name="utilde" unicode="&#x169;" horiz-adv-x="1235" 
d="M478 1349q-41 0 -62 -104l-157 31q44 218 193 218q83 0 182 -76q17 -13 25 -18q8 -4 26 -16t43 -12q46 0 69 104l156 -31q-45 -218 -192 -218q-84 0 -183 76q-45 35 -63 40q-18 6 -37 6zM900 1061h186v-1061h-186v163q-62 -82 -151 -135t-193 -53q-188 0 -308 121
q-119 121 -119 313v652h186v-642q-1 -120 77 -198q78 -79 185 -79t188 62t135 153v704z" />
    <glyph glyph-name="Umacron" unicode="&#x16a;" horiz-adv-x="1357" 
d="M382 1625v145h594v-145h-594zM1199 1434v-933q0 -156 -69 -276t-187 -184t-264 -64t-264 64t-187 184t-69 276v933h192v-955q0 -147 93 -239q92 -92 234 -92t235 92t94 239v955h192z" />
    <glyph glyph-name="umacron" unicode="&#x16b;" horiz-adv-x="1235" 
d="M310 1293v146h594v-146h-594zM900 1061h186v-1061h-186v163q-62 -82 -151 -135t-193 -53q-188 0 -308 121q-119 121 -119 313v652h186v-642q-1 -120 77 -198q78 -79 185 -79t188 62t135 153v704z" />
    <glyph glyph-name="Ubreve" unicode="&#x16c;" horiz-adv-x="1357" 
d="M679 1526q-135 0 -231 90t-103 226h166q3 -77 50 -127t119 -50t118 50t49 127h166q-7 -136 -103 -226t-231 -90zM1199 1434v-933q0 -156 -69 -276t-187 -184t-264 -64t-264 64t-187 184t-69 276v933h192v-955q0 -147 93 -239q92 -92 234 -92t235 92t94 239v955h192z" />
    <glyph glyph-name="ubreve" unicode="&#x16d;" horiz-adv-x="1235" 
d="M606 1194q-135 0 -231 90t-103 226h166q3 -77 50 -127q46 -50 118 -50t118 50t50 127h166q-7 -136 -103 -226t-231 -90zM900 1061h186v-1061h-186v163q-62 -82 -151 -135t-193 -53q-188 0 -308 121q-119 121 -119 313v652h186v-642q-1 -120 77 -198q78 -79 185 -79
t188 62t135 153v704z" />
    <glyph glyph-name="Uring" unicode="&#x16e;" horiz-adv-x="1357" 
d="M464 1726q0 84 61 142t153 58t154 -57t62 -143t-61 -142q-61 -57 -153 -57t-155 57q-61 57 -61 142zM586 1726q0 -39 26 -65t67 -26t67 26t26 65t-27 65q-27 27 -67 27t-66 -26t-26 -66zM1199 1434v-933q0 -156 -69 -276t-187 -184t-264 -64t-264 64t-187 184t-69 276
v933h192v-955q0 -147 93 -239q92 -92 234 -92t235 92t94 239v955h192z" />
    <glyph glyph-name="uring" unicode="&#x16f;" horiz-adv-x="1235" 
d="M389 1395q-1 85 61 142t154 57t154 -57t61 -142q0 -85 -61 -143q-62 -58 -154 -57q-92 -1 -154 57t-61 143zM511 1395q0 -39 27 -65q26 -26 66 -26t67 26t26 65q0 39 -26 65q-27 26 -67 26t-66 -26t-27 -65zM900 1061h186v-1061h-186v163q-62 -82 -151 -135t-193 -53
q-188 0 -308 121q-119 121 -119 313v652h186v-642q-1 -120 77 -198q78 -79 185 -79t188 62t135 153v704z" />
    <glyph glyph-name="Uhungarumlaut" unicode="&#x170;" horiz-adv-x="1357" 
d="M719 1546l280 345h191l-287 -345h-184zM394 1546l282 345h190l-286 -345h-186zM1199 1434v-933q0 -156 -69 -276t-187 -184t-264 -64t-264 64t-187 184t-69 276v933h192v-955q0 -147 93 -239q92 -92 234 -92t235 92t94 239v955h192z" />
    <glyph glyph-name="uhungarumlaut" unicode="&#x171;" horiz-adv-x="1235" 
d="M631 1214l280 346h191l-287 -346h-184zM306 1214l282 346h190l-286 -346h-186zM900 1061h186v-1061h-186v163q-62 -82 -151 -135t-193 -53q-188 0 -308 121q-119 121 -119 313v652h186v-642q-1 -120 77 -198q78 -79 185 -79t188 62t135 153v704z" />
    <glyph glyph-name="Uogonek" unicode="&#x172;" horiz-adv-x="1357" 
d="M1199 1434v-933q0 -203 -114 -341t-297 -172q-158 -134 -158 -224q0 -50 32 -82t80 -32t91 27l41 -99q-70 -47 -164 -47t-160 60q-65 60 -65 149q0 125 151 240q-208 14 -343 156t-134 365v933h192v-955q0 -147 93 -239q92 -92 234 -92t235 92t94 239v955h192z" />
    <glyph glyph-name="uogonek" unicode="&#x173;" horiz-adv-x="1235" 
d="M900 0v163q-62 -82 -151 -135t-193 -53q-188 0 -308 121q-119 121 -119 313v652h186v-642q-1 -120 77 -198q78 -79 185 -79t188 62t135 153v704h186v-1061q-86 -70 -130 -126t-44 -109q0 -51 32 -83t81 -32q48 0 90 27l42 -99q-69 -47 -164 -47t-160 60t-65 149
q0 136 179 260h-47z" />
    <glyph glyph-name="Wcircumflex" unicode="&#x174;" horiz-adv-x="1980" 
d="M1055 1891l299 -345h-185l-179 204l-179 -204h-184l299 345h129zM894 1434h192l332 -1152l312 1152h202l-411 -1434h-193l-338 1168l-338 -1168h-192l-412 1434h203l311 -1152z" />
    <glyph glyph-name="wcircumflex" unicode="&#x175;" horiz-adv-x="1597" 
d="M863 1560l299 -346h-184l-179 204l-179 -204h-185l299 346h129zM702 1061h193l237 -811l243 811h195l-340 -1061h-193l-238 815l-239 -815h-192l-340 1061h194l244 -811z" />
    <glyph glyph-name="Ycircumflex" unicode="&#x176;" horiz-adv-x="1316" 
d="M723 1891l299 -345h-184l-180 204l-179 -204h-184l299 345h129zM755 0h-193v588l-514 846h208l402 -658l403 658h208l-514 -846v-588z" />
    <glyph glyph-name="ycircumflex" unicode="&#x177;" horiz-adv-x="1075" 
d="M602 1560l299 -346h-184l-179 204l-180 -204h-184l299 346h129zM254 -475l188 479l-414 1057h194l316 -820l315 820h195l-599 -1536h-195z" />
    <glyph glyph-name="Ydieresis" unicode="&#x178;" horiz-adv-x="1316" 
d="M726 1704q0 48 33 82t83 34t82 -34q33 -34 33 -82t-33 -82t-82 -34q-48 0 -82 34t-34 82zM359 1704q-1 48 33 82t83 34t83 -34t33 -82q0 -48 -33 -82q-32 -34 -82 -34t-84 34t-33 82zM755 0h-193v588l-514 846h208l402 -658l403 658h208l-514 -846v-588z" />
    <glyph glyph-name="Zacute" unicode="&#x179;" horiz-adv-x="1229" 
d="M445 1546l281 345h190l-286 -345h-185zM155 1267v167h941v-167l-742 -1100h762v-167h-992v167l741 1100h-710z" />
    <glyph glyph-name="zacute" unicode="&#x17a;" horiz-adv-x="1036" 
d="M345 1214l281 346h190l-287 -346h-184zM100 0v164l586 733h-559v164h783v-164l-584 -733h605v-164h-831z" />
    <glyph glyph-name="Zdotaccent" unicode="&#x17b;" horiz-adv-x="1229" 
d="M502 1704q0 48 33 82t82 34t83 -34t33 -82q0 -48 -33 -82q-32 -34 -82 -34t-83 34t-33 82zM155 1267v167h941v-167l-742 -1100h762v-167h-992v167l741 1100h-710z" />
    <glyph glyph-name="zdotaccent" unicode="&#x17c;" horiz-adv-x="1036" 
d="M404 1372q0 48 34 82t82 34t82 -34t34 -82t-33 -82t-83 -34t-82 34q-34 34 -34 82zM100 0v164l586 733h-559v164h783v-164l-584 -733h605v-164h-831z" />
    <glyph glyph-name="Zcaron" unicode="&#x17d;" horiz-adv-x="1229" 
d="M982 1891l-299 -345h-129l-299 345h184l179 -203l180 203h184zM155 1267v167h941v-167l-742 -1100h762v-167h-992v167l741 1100h-710z" />
    <glyph glyph-name="zcaron" unicode="&#x17e;" horiz-adv-x="1036" 
d="M874 1539l-299 -345h-129l-299 345h185l179 -204l179 204h184zM100 0v164l586 733h-559v164h783v-164l-584 -733h605v-164h-831z" />
    <glyph glyph-name="longs" unicode="&#x17f;" horiz-adv-x="763" 
d="M625 1331q-112 0 -161 -51t-48 -157v-1123h-187v897h-183v164h183v64q-1 187 93 279t287 91q54 0 109 -8v-161q-43 5 -93 5z" />
    <glyph glyph-name="uni0191" unicode="&#x191;" horiz-adv-x="1082" 
d="M172 -103v1537h826v-167h-633v-462h581v-167h-581v-743q0 -370 -374 -370q-46 0 -106 8v161q44 -5 87 -5q104 -1 152 51t48 157z" />
    <glyph glyph-name="florin" unicode="&#x192;" horiz-adv-x="763" 
d="M229 -103v1000h-183v164h183v64q-1 187 93 279t287 91q53 0 109 -8v-161q-43 5 -93 5q-112 0 -161 -51t-48 -157v-62h302v-164h-302v-1002q0 -187 -93 -279t-287 -91q-53 0 -109 8v161q43 -5 93 -5q112 0 161 51q48 52 48 157z" />
    <glyph glyph-name="Aringacute" unicode="&#x1fa;" horiz-adv-x="1394" 
d="M770 1749h-181l199 248h189zM609 1517q0 -36 25 -60q25 -23 63 -23t63 24t25 59t-25 59t-63 24t-63 -24q-25 -23 -25 -59zM697 1221l-247 -684h495zM487 1510q0 90 60 144t150 54t150 -55t60 -143t-80 -144l519 -1366h-210l-134 370h-610l-133 -370h-210l518 1366
q-80 55 -80 144z" />
    <glyph glyph-name="aringacute" unicode="&#x1fb;" horiz-adv-x="1328" 
d="M715 1606h-181l216 268h188zM618 1085q226 0 374 -161v137h187v-1061h-187v137q-146 -162 -374 -162q-154 1 -279 77t-194 202t-69 276t69 276t194 202t279 77zM649 142q111 0 203 58t140 152v354q-48 96 -140 154t-203 59q-162 1 -273 -113t-111 -276t111 -275t273 -113
zM431 1361q0 85 62 143t153 58t153 -58t62 -143t-62 -143t-153 -58t-153 58t-62 143zM553 1361q0 -39 27 -66t66 -27t66 28q27 26 27 65t-27 65t-66 27q-39 -1 -66 -27t-27 -65z" />
    <glyph glyph-name="AEacute" unicode="&#x1fc;" horiz-adv-x="1890" 
d="M804 1546l280 345h191l-287 -345h-184zM925 537v681l-385 -681h385zM1753 1434v-167h-636v-463h585v-167h-585v-470h655v-167h-847v370h-479l-208 -370h-220l824 1434h911z" />
    <glyph glyph-name="aeacute" unicode="&#x1fd;" horiz-adv-x="2072" 
d="M871 1214l281 346h190l-286 -346h-185zM1462 925q-130 0 -231 -85t-128 -213h699q-23 130 -116 214q-94 84 -224 84zM262 324q0 -78 92 -134q92 -54 218 -54q247 0 352 183q-9 55 -11 97q-123 96 -329 96q-138 0 -230 -55t-92 -133zM76 320q0 144 139 241q139 96 337 96
q98 1 196 -27t164 -71q-1 7 -1 17t3 50q-7 133 -105 216t-241 83q-189 0 -343 -130l-71 143q183 147 419 147q145 0 265 -63t178 -175q68 109 186 173t266 65t270 -71q123 -72 191 -193t68 -267q0 -46 -8 -82h-893q14 -144 120 -240t257 -96q191 0 328 154l128 -119
q-169 -194 -452 -196q-147 1 -267 63t-192 167q-70 -105 -187 -167t-258 -63q-213 1 -355 101t-142 244z" />
    <glyph glyph-name="Oslashacute" unicode="&#x1fe;" horiz-adv-x="1673" 
d="M689 1546l281 345h190l-287 -345h-184zM837 1288q-233 0 -395 -166t-163 -400q0 -234 147 -396l696 883q-132 79 -285 79zM837 145q233 0 395 166q162 165 162 407t-163 406l-700 -888q138 -91 306 -91zM837 1458q218 0 396 -107l114 144h176l-177 -225
q116 -102 180 -246t64 -303t-58 -296t-158 -236t-241 -156q-140 -57 -296 -58q-230 0 -417 119l-122 -155h-176l189 240q-109 101 -168 240q-60 139 -60 296t58 294q59 137 159 236t240 156t297 57z" />
    <glyph glyph-name="oslashacute" unicode="&#x1ff;" horiz-adv-x="1298" 
d="M502 1214l280 346h191l-287 -346h-184zM265 537q0 -155 94 -264l476 598q-86 47 -186 48q-162 1 -273 -113t-111 -269zM649 142q162 0 273 113t111 268t-96 265l-475 -598q85 -48 187 -48zM648 1085q162 0 296 -75l90 112h168l-151 -191q172 -159 172 -401
q0 -152 -74 -278t-206 -202q-132 -75 -295 -75t-296 77l-90 -113h-168l153 191q-173 162 -171 400q0 152 74 279t206 201q130 74 292 75z" />
    <glyph glyph-name="Scommaaccent" unicode="&#x218;" horiz-adv-x="1204" 
d="M579 -481h-170l159 350h189zM921 379q0 104 -80 174q-80 69 -280 111q-201 42 -313 146t-112 268t126 272t329 108q270 0 450 -182l-114 -138q-160 151 -327 150q-120 0 -194 -57t-74 -151q0 -186 328 -261q240 -54 348 -162q108 -107 108 -281t-137 -287t-367 -114
q-148 1 -283 63t-223 168l122 131q168 -191 394 -191q122 0 211 64q88 65 88 169z" />
    <glyph glyph-name="scommaaccent" unicode="&#x219;" horiz-adv-x="954" 
d="M439 -481h-170l160 350h188zM692 292q0 70 -56 112q-56 44 -179 68q-345 67 -345 320q0 127 100 210q101 83 265 83q206 0 357 -141l-101 -127q-125 108 -243 108q-84 -1 -138 -39t-54 -97t55 -103t164 -65q183 -35 273 -117t89 -217q0 -135 -105 -223t-287 -89
q-128 -1 -235 47t-177 130l105 126q115 -142 301 -142q94 0 153 43q58 43 58 113z" />
    <glyph glyph-name="uni021A" unicode="&#x21a;" horiz-adv-x="1124" 
d="M517 -481h-170l160 350h188zM466 0v1267h-403v167h998v-167h-403v-1267h-192z" />
    <glyph glyph-name="uni021B" unicode="&#x21b;" horiz-adv-x="782" 
d="M360 -481h-170l160 350h189zM424 897v-558q0 -102 48 -151t159 -49q56 0 95 5v-160q-41 -8 -111 -9q-193 0 -285 88t-92 274v560h-192v164h192v291l186 16v-307h290v-164h-290z" />
    <glyph glyph-name="dotlessj" unicode="&#x237;" horiz-adv-x="534" 
d="M174 -140v1201h186v-1198q0 -177 -76 -258q-77 -80 -238 -80q-37 0 -80 4v161q18 -1 76 -1t95 40t37 131z" />
    <glyph glyph-name="apostrophe" unicode="&#x2bc;" horiz-adv-x="851" 
d="M307 1385q-1 47 35 83t88 36t88 -36t36 -76t-13 -68l-131 -287h-122l101 227q-82 27 -82 121z" />
    <glyph glyph-name="circumflex" unicode="&#x2c6;" horiz-adv-x="851" 
d="M490 1492l300 -345h-185l-179 204l-179 -204h-185l299 345h129z" />
    <glyph glyph-name="caron" unicode="&#x2c7;" horiz-adv-x="851" 
d="M790 1492l-300 -345h-129l-299 345h185l179 -204l179 204h185z" />
    <glyph glyph-name="uni02C9" unicode="&#x2c9;" horiz-adv-x="851" 
d="M129 1246v146h594v-146h-594z" />
    <glyph glyph-name="breve" unicode="&#x2d8;" horiz-adv-x="851" 
d="M426 1155q-135 0 -231 90t-103 226h166q3 -77 50 -127q46 -50 118 -50t118 50t50 127h166q-7 -137 -103 -227t-231 -89z" />
    <glyph glyph-name="dotaccent" unicode="&#x2d9;" horiz-adv-x="851" 
d="M310 1323q0 48 34 82t82 34q49 0 82 -34q34 -34 34 -82t-34 -82t-82 -34t-82 34t-34 82z" />
    <glyph glyph-name="ring" unicode="&#x2da;" horiz-adv-x="851" 
d="M211 1317q0 85 61 142q62 57 154 57t154 -56q62 -58 61 -143q0 -85 -61 -142q-62 -57 -154 -57t-154 56q-62 58 -61 143zM333 1317q1 -39 27 -65t66 -26t67 26t26 65q0 39 -26 65q-27 26 -67 26t-66 -26t-27 -65z" />
    <glyph glyph-name="ogonek" unicode="&#x2db;" horiz-adv-x="851" 
d="M387 -235q0 -51 32 -83q33 -32 81 -32t90 27l42 -99q-69 -47 -164 -47t-160 60t-65 149q0 136 179 260h139q-85 -70 -129 -126t-45 -109z" />
    <glyph glyph-name="tilde" unicode="&#x2dc;" horiz-adv-x="851" 
d="M271 1447q84 0 183 -76q17 -13 25 -18l26 -17t43 -11q47 0 68 103l157 -30q-44 -218 -192 -218q-84 0 -183 76q-56 43 -92 46q-48 0 -70 -104l-157 31q45 218 192 218z" />
    <glyph glyph-name="hungarumlaut" unicode="&#x2dd;" horiz-adv-x="851" 
d="M409 1150l280 345h191l-287 -345h-184zM84 1150l282 345h190l-287 -345h-185z" />
    <glyph glyph-name="gravecomb" unicode="&#x300;" horiz-adv-x="0" 
d="M-532 1495l280 -345h-184l-287 345h191z" />
    <glyph glyph-name="acutecomb" unicode="&#x301;" horiz-adv-x="0" 
d="M-600 1150l281 345h190l-287 -345h-184z" />
    <glyph glyph-name="uni0302" unicode="&#x302;" horiz-adv-x="0" 
d="M-361 1492l299 -345h-185l-179 204l-179 -204h-185l300 345h129z" />
    <glyph glyph-name="tildecomb" unicode="&#x303;" horiz-adv-x="0" 
d="M-581 1447q84 0 183 -76q17 -13 25 -18l26 -17t43 -11q47 0 68 103l157 -30q-45 -218 -192 -218q-84 0 -183 76q-56 43 -92 46q-48 0 -70 -104l-157 31q44 218 192 218z" />
    <glyph glyph-name="uni0304" unicode="&#x304;" horiz-adv-x="0" 
d="M-723 1248v146h594v-146h-594z" />
    <glyph glyph-name="uni0306" unicode="&#x306;" horiz-adv-x="0" 
d="M-426 1155q-135 0 -231 90t-103 226h166q3 -77 50 -127q46 -50 118 -50t118 50t50 127h166q-7 -137 -103 -227t-231 -89z" />
    <glyph glyph-name="uni0307" unicode="&#x307;" horiz-adv-x="0" 
d="M-542 1323q0 48 34 82t82 34q49 0 82 -34q34 -34 34 -82t-34 -82t-82 -34t-82 34t-34 82z" />
    <glyph glyph-name="uni0308" unicode="&#x308;" horiz-adv-x="0" 
d="M-358 1322q0 48 33 83q33 34 82 34t83 -34q34 -35 33 -83q0 -48 -33 -81q-32 -33 -82 -33t-83 32q-33 34 -33 82zM-725 1322q0 48 33 83q32 34 82 34t83 -34q33 -35 33 -83t-33 -81t-82 -33t-83 32q-34 34 -33 82z" />
    <glyph glyph-name="uni030A" unicode="&#x30a;" horiz-adv-x="0" 
d="M-641 1317q0 85 61 142q62 57 154 57t154 -56q62 -58 61 -143q0 -85 -61 -142q-62 -57 -154 -57t-154 56q-62 58 -61 143zM-519 1317q1 -39 27 -65t66 -26t67 26t26 65q0 39 -26 65q-27 26 -67 26t-66 -26t-27 -65z" />
    <glyph glyph-name="uni030C" unicode="&#x30c;" horiz-adv-x="0" 
d="M-62 1492l-299 -345h-129l-300 345h185l179 -204l179 204h185z" />
    <glyph glyph-name="uni0327" unicode="&#x327;" horiz-adv-x="0" 
d="M-458 -214q-42 0 -68 -5l-34 39l98 180h146l-75 -118q86 -16 138 -72q51 -56 51 -138t-74 -144t-184 -60q-110 0 -183 59l63 92q44 -37 104 -37t95 29q34 29 34 73t-34 73q-35 29 -77 29z" />
    <glyph glyph-name="tonos" unicode="&#x384;" horiz-adv-x="851" 
d="M434 1114h-169l162 381h188z" />
    <glyph glyph-name="dieresistonos" unicode="&#x385;" horiz-adv-x="851" 
d="M495 1346h-182l216 268h189zM487 1167q0 51 35 85t87 35q52 0 87 -34q35 -33 35 -85t-35 -86t-87 -34t-87 34t-35 85zM121 1167q0 51 35 85t87 35q52 0 87 -34q35 -33 35 -85t-35 -86t-87 -34t-87 34t-35 85z" />
    <glyph glyph-name="Alphatonos" unicode="&#x386;" horiz-adv-x="1412" 
d="M210 1053h-169l162 381h188zM467 537h496l-248 684zM1363 0h-210l-133 370h-610l-134 -370h-209l540 1434h215z" />
    <glyph glyph-name="anoteleia" unicode="&#x387;" horiz-adv-x="608" 
d="M176 642q0 54 37 91t91 37t91 -37t37 -91t-37 -91t-91 -37t-91 37t-37 91z" />
    <glyph glyph-name="Epsilontonos" unicode="&#x388;" horiz-adv-x="1485" 
d="M210 1053h-169l162 381h188zM502 0v1434h847v-167h-655v-463h602v-167h-602v-470h673v-167h-865z" />
    <glyph glyph-name="Etatonos" unicode="&#x389;" horiz-adv-x="1757" 
d="M210 1053h-169l162 381h188zM502 0v1434h192v-630h699v630h192v-1434h-192v637h-699v-637h-192z" />
    <glyph glyph-name="Iotatonos" unicode="&#x38a;" horiz-adv-x="889" 
d="M210 1053h-169l162 381h188zM502 1434h192v-1434h-192v1434z" />
    <glyph glyph-name="Omicrontonos" unicode="&#x38c;" horiz-adv-x="1882" 
d="M210 1053h-169l162 381h188zM1046 1458q156 0 296 -57q279 -114 399 -392q58 -137 58 -292t-58 -292q-59 -137 -159 -236t-240 -156t-296 -57t-297 56q-279 115 -399 393q-58 137 -58 292t58 292t158 236t241 156q140 57 297 57zM1046 145q233 0 395 166t163 406
q0 239 -162 405t-396 166t-396 -166t-162 -406t162 -405q163 -166 396 -166z" />
    <glyph glyph-name="Upsilontonos" unicode="&#x38e;" horiz-adv-x="1723" 
d="M210 1053h-169l162 381h188zM1161 0h-192v588l-514 846h208l402 -658l402 658h208l-514 -846v-588z" />
    <glyph glyph-name="Omegatonos" unicode="&#x38f;" horiz-adv-x="1841" 
d="M1747 766q0 -376 -361 -596h345v-170h-584v164q198 98 301 252t103 335q0 225 -152 381t-371 156t-371 -156t-152 -381q0 -181 103 -335t301 -252v-164h-583v170h344q-361 221 -361 596q0 142 56 270q113 259 381 368q134 54 282 54t282 -54q270 -109 381 -368
q56 -128 56 -270zM210 1053h-169l162 381h188z" />
    <glyph glyph-name="iotadieresistonos" unicode="&#x390;" horiz-adv-x="562" 
d="M335 1483h-181l216 268h188zM328 1305q0 51 34 85q36 34 88 34t87 -34t35 -85t-35 -86q-35 -34 -87 -34t-88 34q-34 35 -34 86zM-39 1305q0 51 35 85t87 34t87 -34t35 -85t-35 -85t-87 -35q-52 1 -87 35t-35 85zM174 230v831h186v-782q0 -115 112 -115h44v-161
q-34 -3 -79 -3q-263 0 -263 230z" />
    <glyph glyph-name="Alpha" unicode="&#x391;" horiz-adv-x="1394" 
d="M450 537h495l-248 684zM1346 0h-210l-134 370h-610l-133 -370h-210l541 1434h215z" />
    <glyph glyph-name="Beta" unicode="&#x392;" horiz-adv-x="1264" 
d="M971 415q0 113 -69 181t-181 67h-356v-496h356q112 -1 181 67t69 181zM889 1044q-1 104 -63 164t-163 59h-298v-444h298q102 1 164 59t62 162zM737 0h-565v1434h504q191 0 300 -103t108 -277q0 -111 -52 -186t-141 -107q119 -26 197 -120t78 -232q0 -182 -116 -296
q-117 -113 -313 -113z" />
    <glyph glyph-name="Gamma" unicode="&#x393;" horiz-adv-x="1053" 
d="M172 0v1434h834v-167h-641v-1267h-193z" />
    <glyph glyph-name="uni0394" unicode="&#x394;" horiz-adv-x="1394" 
d="M697 1221l-383 -1054h766zM805 1434l541 -1434h-1297l541 1434h215z" />
    <glyph glyph-name="Epsilon" unicode="&#x395;" horiz-adv-x="1156" 
d="M172 0v1434h847v-167h-654v-463h602v-167h-602v-470h672v-167h-865z" />
    <glyph glyph-name="Zeta" unicode="&#x396;" horiz-adv-x="1229" 
d="M155 1267v167h941v-167l-742 -1100h762v-167h-992v167l741 1100h-710z" />
    <glyph glyph-name="Eta" unicode="&#x397;" horiz-adv-x="1427" 
d="M172 0v1434h193v-630h698v630h192v-1434h-192v637h-698v-637h-193z" />
    <glyph glyph-name="Theta" unicode="&#x398;" horiz-adv-x="1673" 
d="M837 1458q157 0 297 -57q279 -114 398 -392q58 -137 58 -292t-58 -292t-158 -236t-241 -156t-297 -57t-296 56q-279 115 -399 393q-58 137 -58 292t58 292q59 137 159 236t240 156t297 57zM837 145q233 0 395 166t163 406q-1 239 -163 405t-395 166t-395 -166t-163 -406
q1 -240 163 -405q162 -166 395 -166zM542 636v161h590v-161h-590z" />
    <glyph glyph-name="Iota" unicode="&#x399;" horiz-adv-x="583" 
d="M196 1434h192v-1434h-192v1434z" />
    <glyph glyph-name="Kappa" unicode="&#x39a;" horiz-adv-x="1229" 
d="M365 1434v-630h122l439 630h220l-495 -710l577 -724h-227l-507 637h-129v-637h-193v1434h193z" />
    <glyph glyph-name="Lambda" unicode="&#x39b;" horiz-adv-x="1394" 
d="M1136 0l-439 1205l-438 -1205h-210l541 1434h215l541 -1434h-210z" />
    <glyph glyph-name="Mu" unicode="&#x39c;" horiz-adv-x="1738" 
d="M358 0h-186v1434h179l518 -767l519 767h179v-1434h-187v1115l-449 -661h-123l-450 661v-1115z" />
    <glyph glyph-name="Nu" unicode="&#x39d;" horiz-adv-x="1432" 
d="M172 0v1434h185l717 -1100v1100h187v-1434h-186l-717 1100v-1100h-186z" />
    <glyph glyph-name="Xi" unicode="&#x39e;" horiz-adv-x="1195" 
d="M998 637h-801v167h801v-167zM119 0v167h957v-167h-957zM137 1267v167h921v-167h-921z" />
    <glyph glyph-name="Omicron" unicode="&#x39f;" horiz-adv-x="1673" 
d="M837 1458q157 0 297 -57q279 -114 398 -392q58 -137 58 -292t-58 -292t-158 -236t-241 -156t-297 -57t-296 56q-279 115 -399 393q-58 137 -58 292t58 292q59 137 159 236t240 156t297 57zM837 145q233 0 395 166t163 406q-1 239 -163 405t-395 166t-395 -166t-163 -406
q1 -240 163 -405q162 -166 395 -166z" />
    <glyph glyph-name="Pi" unicode="&#x3a0;" horiz-adv-x="1381" 
d="M1209 1434v-1434h-192v1267h-652v-1267h-193v1434h1037z" />
    <glyph glyph-name="Rho" unicode="&#x3a1;" horiz-adv-x="1198" 
d="M927 987q-1 129 -81 204t-223 76h-258v-559h258q143 0 223 75t81 204zM630 541h-265v-541h-193v1434h458q227 0 360 -122q132 -122 132 -325q0 -204 -132 -325t-360 -121z" />
    <glyph glyph-name="Sigma" unicode="&#x3a3;" horiz-adv-x="1186" 
d="M125 1434h937v-167h-702l400 -510v-78l-402 -512h704v-167h-937v164l428 555l-428 551v164z" />
    <glyph glyph-name="Tau" unicode="&#x3a4;" horiz-adv-x="1124" 
d="M466 0v1267h-403v167h998v-167h-403v-1267h-192z" />
    <glyph glyph-name="Upsilon" unicode="&#x3a5;" horiz-adv-x="1316" 
d="M755 0h-193v588l-514 846h208l402 -658l403 658h208l-514 -846v-588z" />
    <glyph glyph-name="Phi" unicode="&#x3a6;" horiz-adv-x="1552" 
d="M872 1066v-702q171 0 290 102t119 248t-119 249t-290 103zM872 0h-192v197q-165 0 -304 68q-140 68 -220 187q-80 118 -80 262t81 263t219 187t304 69v201h192v-201q165 0 304 -68q139 -67 220 -187t81 -263t-81 -263t-220 -187q-139 -68 -304 -68v-197zM680 364v702
q-171 0 -290 -103t-119 -248t119 -248t290 -103z" />
    <glyph glyph-name="Chi" unicode="&#x3a7;" horiz-adv-x="1290" 
d="M251 0h-211l490 729l-472 705h211l376 -565l376 565h211l-472 -705l490 -729h-211l-394 589z" />
    <glyph glyph-name="Psi" unicode="&#x3a8;" horiz-adv-x="1415" 
d="M804 1434v-925q125 30 204 131t78 246v548h193v-557q0 -211 -134 -363t-341 -182v-332h-193v332q-207 30 -341 182t-134 363v557h193v-548q0 -144 79 -246t203 -131v925h193z" />
    <glyph glyph-name="uni03A9" unicode="&#x3a9;" horiz-adv-x="1626" 
d="M1532 766q0 -376 -361 -596h345v-170h-584v164q198 98 301 252t103 335q0 225 -152 381t-371 156t-371 -156t-152 -381q0 -181 103 -335t301 -252v-164h-583v170h344q-361 221 -361 596q0 142 56 270q113 259 381 368q134 54 282 54t282 -54q270 -109 381 -368
q56 -128 56 -270z" />
    <glyph glyph-name="Iotadieresis" unicode="&#x3aa;" horiz-adv-x="583" 
d="M359 1704q-1 48 33 82t83 34t83 -34t33 -82q0 -48 -33 -82q-32 -34 -82 -34t-84 34t-33 82zM-7 1704q0 48 33 82q32 34 82 34t83 -34t33 -82t-33 -82t-82 -34t-83 34t-33 82zM196 1434h192v-1434h-192v1434z" />
    <glyph glyph-name="Upsilondieresis" unicode="&#x3ab;" horiz-adv-x="1316" 
d="M726 1704q0 48 33 82t83 34t82 -34q33 -34 33 -82t-33 -82t-82 -34q-48 0 -82 34t-34 82zM359 1704q-1 48 33 82t83 34t83 -34t33 -82q0 -48 -33 -82q-32 -34 -82 -34t-84 34t-33 82zM755 0h-193v588l-514 846h208l402 -658l403 658h208l-514 -846v-588z" />
    <glyph glyph-name="alphatonos" unicode="&#x3ac;" horiz-adv-x="1411" 
d="M470 1214l281 346h190l-287 -346h-184zM649 142q111 0 203 58t140 152v354q-48 96 -140 154t-203 59q-162 1 -273 -113t-111 -276t111 -275t273 -113zM76 530q0 150 69 276t194 202t279 77q226 0 374 -161v137h187v-767q1 -60 35 -95t94 -35h57v-161q-36 -3 -79 -3
q-131 0 -196 34t-83 121q-145 -180 -389 -180q-154 1 -279 77t-194 202t-69 276z" />
    <glyph glyph-name="epsilontonos" unicode="&#x3ad;" horiz-adv-x="971" 
d="M306 1214l281 346h190l-287 -346h-184zM304 786q0 -59 55 -98t137 -40h157v-154h-151q-102 0 -172 -52t-69 -128q0 -76 70 -126q70 -52 171 -52q171 0 275 132l128 -105q-62 -88 -166 -138t-237 -50q-180 1 -304 95t-123 232q0 96 65 171q66 75 159 100q-85 28 -133 90
t-48 137q0 121 108 203q110 82 254 82q280 0 379 -188l-149 -92q-62 118 -214 120q-82 0 -137 -40t-55 -99z" />
    <glyph glyph-name="etatonos" unicode="&#x3ae;" horiz-adv-x="1235" 
d="M476 1214l281 346h190l-287 -346h-184zM336 0h-186v1061h186v-163q62 82 151 135t193 52q188 0 308 -120q119 -121 119 -313v-1127h-186v1117q1 120 -77 198t-184 78t-188 -62t-136 -153v-703z" />
    <glyph glyph-name="iotatonos" unicode="&#x3af;" horiz-adv-x="562" 
d="M125 1214l281 346h190l-287 -346h-184zM174 230v831h186v-782q0 -115 112 -115h44v-161q-34 -3 -79 -3q-263 0 -263 230z" />
    <glyph glyph-name="upsilondieresistonos" unicode="&#x3b0;" horiz-adv-x="1167" 
d="M652 1483h-181l216 268h189zM645 1305q0 51 35 85t87 34t87 -34t35 -85t-35 -85t-87 -35q-52 1 -87 35t-35 85zM279 1305q0 51 34 85q35 34 87 34t87 -34t35 -85t-35 -85t-87 -35q-52 0 -87 34q-34 35 -34 86zM584 -25q-191 0 -323 127t-132 313v646h186v-637
q-1 -120 77 -201t192 -81t191 81t77 201v637h186v-646q0 -185 -131 -313q-132 -127 -323 -127z" />
    <glyph glyph-name="alpha" unicode="&#x3b1;" horiz-adv-x="1411" 
d="M649 142q111 0 203 58t140 152v354q-48 96 -140 154t-203 59q-162 1 -273 -113t-111 -276t111 -275t273 -113zM76 530q0 150 69 276t194 202t279 77q226 0 374 -161v137h187v-767q1 -60 35 -95t94 -35h57v-161q-36 -3 -79 -3q-131 0 -196 34t-83 121q-145 -180 -389 -180
q-154 1 -279 77t-194 202t-69 276z" />
    <glyph glyph-name="beta" unicode="&#x3b2;" horiz-adv-x="1228" 
d="M351 1051v-696q41 -97 121 -155t193 -58q112 0 195 74t83 196t-110 198t-298 75v162q135 0 209 65q74 66 74 160t-67 158q-69 64 -167 64t-166 -69t-67 -174zM159 -475v1535q0 172 122 285q123 113 305 113t305 -110t123 -268q0 -99 -68 -180t-178 -115q157 -23 264 -131
t107 -274t-128 -285t-315 -120q-113 -1 -206 51t-139 135v-636h-192z" />
    <glyph glyph-name="gamma" unicode="&#x3b3;" horiz-adv-x="1075" 
d="M444 -475v476l-416 1060h194l316 -820l315 820h195l-417 -1060v-476h-187z" />
    <glyph glyph-name="delta" unicode="&#x3b4;" horiz-adv-x="1150" 
d="M888 454q0 132 -91 224t-221 92t-222 -92t-92 -224t92 -224t222 -91q130 0 221 91t91 224zM73 455q0 102 40 190q41 88 109 148q145 127 350 129l-358 354v158h733v-167h-493l492 -491q131 -132 131 -328q0 -96 -41 -186q-79 -174 -272 -251q-92 -36 -190 -36
q-202 0 -350 135q-69 62 -110 152t-41 193z" />
    <glyph glyph-name="epsilon" unicode="&#x3b5;" horiz-adv-x="971" 
d="M304 786q0 -59 55 -98t137 -40h157v-154h-151q-102 0 -172 -52t-69 -128q0 -76 70 -126q70 -52 171 -52q171 0 275 132l128 -105q-62 -88 -166 -138t-237 -50q-180 1 -304 95t-123 232q0 96 65 171q66 75 159 100q-85 28 -133 90t-48 137q0 121 108 203q110 82 254 82
q280 0 379 -188l-149 -92q-62 118 -214 120q-82 0 -137 -40t-55 -99z" />
    <glyph glyph-name="zeta" unicode="&#x3b6;" horiz-adv-x="956" 
d="M76 364q0 112 48 203t136 197l413 503h-496v167h714v-158l-485 -598q-70 -84 -108 -156t-38 -143q0 -152 191 -237l241 -107q197 -87 197 -261q0 -122 -88 -249h-188q90 118 90 220t-125 157l-227 97q-131 57 -203 155t-72 210z" />
    <glyph glyph-name="eta" unicode="&#x3b7;" horiz-adv-x="1235" 
d="M336 0h-186v1061h186v-163q62 82 151 135t193 52q188 0 308 -120q119 -121 119 -313v-1127h-186v1117q1 120 -77 198t-184 78t-188 -62t-136 -153v-703z" />
    <glyph glyph-name="theta" unicode="&#x3b8;" horiz-adv-x="1304" 
d="M652 1291q-154 0 -260 -142t-123 -352h766q-17 211 -123 353t-260 141zM652 142q154 0 260 142t123 352h-766q17 -210 123 -352t260 -142zM76 717q0 307 158 523q75 102 184 160q108 58 234 58t235 -59t183 -159t117 -237q42 -137 42 -287t-42 -286q-87 -280 -300 -396
q-109 -59 -235 -59t-234 59q-215 117 -300 397q-42 135 -42 286z" />
    <glyph glyph-name="iota" unicode="&#x3b9;" horiz-adv-x="562" 
d="M174 230v831h186v-782q0 -115 112 -115h44v-161q-34 -3 -79 -3q-263 0 -263 230z" />
    <glyph glyph-name="kappa" unicode="&#x3ba;" horiz-adv-x="1053" 
d="M336 504v-504h-186v1061h186v-396h133l300 396h221l-366 -476l422 -585h-216l-363 504h-131z" />
    <glyph glyph-name="lambda" unicode="&#x3bb;" horiz-adv-x="1075" 
d="M443 1040l-179 455h195l589 -1495h-195l-317 802l-314 -802h-194z" />
    <glyph glyph-name="uni03BC" unicode="&#x3bc;" horiz-adv-x="1256" 
d="M150 -475v1536h186v-724q30 -86 106 -140q76 -55 166 -55t174 60q83 60 139 150v709h186v-1061h-186v157q-59 -79 -146 -130t-173 -51t-155 37q-68 38 -111 97v-585h-186z" />
    <glyph glyph-name="nu" unicode="&#x3bd;" horiz-adv-x="1071" 
d="M1043 1061l-411 -1061h-193l-411 1061h194l314 -817l313 817h194z" />
    <glyph glyph-name="xi" unicode="&#x3be;" horiz-adv-x="966" 
d="M269 385q0 -196 220 -277l194 -72q219 -80 219 -278q0 -104 -94 -233h-186q96 119 96 221t-129 151l-186 66q-151 54 -235 168t-84 248t84 245t216 159q-105 40 -171 127t-66 192q0 152 116 254t285 102q208 0 332 -143l-123 -130q-93 119 -209 119q-90 0 -152 -64
t-62 -158t61 -157t153 -64h221v-154h-185q-133 0 -224 -93t-91 -229z" />
    <glyph glyph-name="omicron" unicode="&#x3bf;" horiz-adv-x="1298" 
d="M649 1085q162 -1 294 -75t206 -201t74 -279t-74 -278t-206 -202q-132 -75 -294 -75t-294 75q-131 75 -205 202q-74 126 -74 278t74 279t206 201t293 75zM649 142q162 0 273 113t111 275t-111 275t-273 113t-273 -112q-111 -114 -111 -276t111 -275t273 -113z" />
    <glyph glyph-name="pi" unicode="&#x3c0;" horiz-adv-x="1169" 
d="M398 894v-894h-186v894h-161v167h1067v-167h-161v-894h-186v894h-373z" />
    <glyph glyph-name="rho" unicode="&#x3c1;" horiz-adv-x="1312" 
d="M1237 532q0 -152 -69 -280q-69 -126 -193 -202t-259 -75q-253 0 -401 186v-636h-186v1005q0 154 71 280t198 200q128 74 286 75q158 0 285 -74q127 -75 197 -201t71 -278zM315 530v-135q37 -115 135 -184t219 -69q159 0 269 112t110 276t-104 276t-262 112t-262 -112
t-105 -276z" />
    <glyph glyph-name="sigma1" unicode="&#x3c2;" horiz-adv-x="1100" 
d="M76 517q0 165 74 292t206 202t293 74q222 0 386 -140l-97 -146q-135 120 -293 120q-158 1 -269 -113t-111 -276q0 -126 67 -223t194 -151l283 -122q195 -84 195 -260q0 -122 -96 -249h-184q94 120 94 221t-124 154l-265 112q-163 68 -258 204t-95 301z" />
    <glyph glyph-name="sigma" unicode="&#x3c3;" horiz-adv-x="1342" 
d="M1009 518q0 160 -108 268q-109 108 -265 108t-264 -109t-107 -267q0 -158 108 -268q109 -108 265 -108t264 108t107 268zM76 518q0 150 74 274t203 196t284 73h654v-167h-291q90 -68 144 -171t54 -233t-74 -252t-204 -192q-130 -71 -284 -71q-154 1 -283 73t-203 196
t-74 274z" />
    <glyph glyph-name="tau" unicode="&#x3c4;" horiz-adv-x="1003" 
d="M397 314v580h-346v167h901v-167h-368v-572q0 -87 34 -124t110 -37h58v-161q-34 -3 -79 -3q-162 0 -236 74t-74 243z" />
    <glyph glyph-name="upsilon" unicode="&#x3c5;" horiz-adv-x="1167" 
d="M584 -25q-191 0 -323 127t-132 313v646h186v-637q-1 -120 77 -201t192 -81t191 81t77 201v637h186v-646q0 -185 -131 -313q-132 -127 -323 -127z" />
    <glyph glyph-name="phi" unicode="&#x3c6;" horiz-adv-x="1421" 
d="M1156 530q0 153 -101 262t-251 123v-770q152 14 252 123t100 262zM617 1085h145q165 1 299 -73t209 -202t76 -280q0 -224 -154 -382t-388 -171v-452h-187v452q-233 13 -387 171t-154 382q0 132 55 244t144 190l133 -119q-142 -135 -142 -301t100 -276q101 -108 251 -123
v940z" />
    <glyph glyph-name="chi" unicode="&#x3c7;" horiz-adv-x="1052" 
d="M1042 -475h-200l-316 607l-315 -607h-201l410 787l-389 749h200l295 -571l295 571h201l-389 -749z" />
    <glyph glyph-name="psi" unicode="&#x3c8;" horiz-adv-x="1401" 
d="M796 1061v-905q127 28 207 126t80 231v548h190v-556q0 -200 -135 -346t-342 -175v-459h-190v459q-207 29 -342 175t-135 346v556h189v-548q0 -133 80 -232t208 -125v905h190z" />
    <glyph glyph-name="omega" unicode="&#x3c9;" horiz-adv-x="1626" 
d="M482 -25q-112 0 -206 72t-146 197q-54 125 -54 276t51 282t131 259h186q-179 -298 -179 -541q0 -162 67 -270t162 -108q94 0 160 100t66 239v357h186v-357q0 -140 66 -239q66 -100 160 -100t162 109q67 109 67 269q0 243 -179 541h186q80 -128 131 -259q51 -130 51 -282
t-54 -276t-147 -197q-93 -72 -205 -72t-198 67t-133 170q-46 -103 -133 -170q-86 -67 -198 -67z" />
    <glyph glyph-name="iotadieresis" unicode="&#x3ca;" horiz-adv-x="562" 
d="M335 1372q0 48 33 82q32 34 82 34t83 -34t33 -82t-33 -82t-82 -34t-83 34t-33 82zM-32 1372q0 48 34 82t82 34q49 0 82 -34q34 -34 34 -82t-34 -82t-82 -34t-82 34t-34 82zM174 230v831h186v-782q0 -115 112 -115h44v-161q-34 -3 -79 -3q-263 0 -263 230z" />
    <glyph glyph-name="upsilondieresis" unicode="&#x3cb;" horiz-adv-x="1167" 
d="M651 1372q-1 48 33 82t83 34t82 -34t33 -82t-32 -82q-34 -34 -83 -34t-83 34t-33 82zM285 1372q0 48 33 82t82 34q48 0 82 -34t34 -82t-33 -82t-83 -34t-82 34q-33 34 -33 82zM584 -25q-191 0 -323 127t-132 313v646h186v-637q-1 -120 77 -201t192 -81t191 81t77 201v637
h186v-646q0 -185 -131 -313q-132 -127 -323 -127z" />
    <glyph glyph-name="omicrontonos" unicode="&#x3cc;" horiz-adv-x="1298" 
d="M502 1214l280 346h191l-287 -346h-184zM649 1085q162 -1 294 -75t206 -201t74 -279t-74 -278t-206 -202q-132 -75 -294 -75t-294 75q-131 75 -205 202q-74 126 -74 278t74 279t206 201t293 75zM649 142q162 0 273 113t111 275t-111 275t-273 113t-273 -112
q-111 -114 -111 -276t111 -275t273 -113z" />
    <glyph glyph-name="upsilontonos" unicode="&#x3cd;" horiz-adv-x="1167" 
d="M424 1214l281 346h190l-287 -346h-184zM584 -25q-191 0 -323 127t-132 313v646h186v-637q-1 -120 77 -201t192 -81t191 81t77 201v637h186v-646q0 -185 -131 -313q-132 -127 -323 -127z" />
    <glyph glyph-name="omegatonos" unicode="&#x3ce;" horiz-adv-x="1626" 
d="M673 1214l280 346h191l-287 -346h-184zM482 -25q-112 0 -206 72t-146 197q-54 125 -54 276t51 282t131 259h186q-179 -298 -179 -541q0 -162 67 -270t162 -108q94 0 160 100t66 239v357h186v-357q0 -140 66 -239q66 -100 160 -100t162 109q67 109 67 269q0 243 -179 541
h186q80 -128 131 -259q51 -130 51 -282t-54 -276t-147 -197q-93 -72 -205 -72t-198 67t-133 170q-46 -103 -133 -170q-86 -67 -198 -67z" />
    <glyph glyph-name="uni0400" unicode="&#x400;" horiz-adv-x="1156" 
d="M454 1891l280 -345h-184l-287 345h191zM172 0v1434h847v-167h-654v-463h602v-167h-602v-470h672v-167h-865z" />
    <glyph glyph-name="afii10023" unicode="&#x401;" horiz-adv-x="1156" 
d="M662 1704q0 48 33 82t82 34t83 -34t33 -82q0 -48 -33 -82q-32 -34 -82 -34t-83 34t-33 82zM295 1704q0 48 33 82q32 34 82 34t83 -34t33 -82t-33 -82t-82 -34t-83 34t-33 82zM172 0v1434h847v-167h-654v-463h602v-167h-602v-470h672v-167h-865z" />
    <glyph glyph-name="afii10051" unicode="&#x402;" horiz-adv-x="1459" 
d="M657 0h-192v1267h-402v167h997v-167h-403v-486q55 65 137 103t174 38q175 0 295 -118t119 -289v-118q0 -169 -118 -285t-293 -116q-42 0 -83 4v161q19 -1 61 -1q102 0 172 70q69 70 69 173v103q0 104 -72 176t-176 73q-188 0 -285 -168v-587z" />
    <glyph glyph-name="afii10052" unicode="&#x403;" horiz-adv-x="1053" 
d="M442 1588l281 345h190l-286 -345h-185zM172 0v1434h834v-167h-641v-1267h-193z" />
    <glyph glyph-name="afii10053" unicode="&#x404;" horiz-adv-x="1400" 
d="M823 1288q-198 0 -354 -139t-185 -349h738v-167h-738q30 -211 186 -349t366 -139q212 0 389 146l102 -145q-209 -171 -490 -171q-157 -1 -297 57q-279 115 -399 393q-58 137 -58 292t58 292q59 137 159 236t240 156t297 57q266 0 473 -159l-98 -145q-191 134 -389 134z
" />
    <glyph glyph-name="afii10054" unicode="&#x405;" horiz-adv-x="1204" 
d="M921 379q0 104 -80 174q-80 69 -280 111q-201 42 -313 146t-112 268t126 272t329 108q270 0 450 -182l-114 -138q-160 151 -327 150q-120 0 -194 -57t-74 -151q0 -186 328 -261q240 -54 348 -162q108 -107 108 -281t-137 -287t-367 -114q-148 1 -283 63t-223 168l122 131
q168 -191 394 -191q122 0 211 64q88 65 88 169z" />
    <glyph glyph-name="afii10055" unicode="&#x406;" horiz-adv-x="583" 
d="M196 1434h192v-1434h-192v1434z" />
    <glyph glyph-name="afii10056" unicode="&#x407;" horiz-adv-x="583" 
d="M359 1704q-1 48 33 82t83 34t83 -34t33 -82q0 -48 -33 -82q-32 -34 -82 -34t-84 34t-33 82zM-7 1704q0 48 33 82q32 34 82 34t83 -34t33 -82t-33 -82t-82 -34t-83 34t-33 82zM196 1434h192v-1434h-192v1434z" />
    <glyph glyph-name="afii10057" unicode="&#x408;" horiz-adv-x="930" 
d="M580 441v993h192v-993q0 -466 -438 -466q-162 0 -285 70l63 163q98 -61 218 -63q250 0 250 296z" />
    <glyph glyph-name="afii10058" unicode="&#x409;" horiz-adv-x="2052" 
d="M1476 0h-442v1267h-582v-931q0 -340 -324 -340q-37 0 -80 4v164q19 -1 78 -1t96 40t37 131v1100h968v-521h249q228 0 364 -126q136 -127 136 -331t-136 -330t-364 -126zM1227 167h241q145 0 230 79q84 78 84 210t-84 211t-230 79h-241v-579z" />
    <glyph glyph-name="afii10059" unicode="&#x40a;" horiz-adv-x="2063" 
d="M1237 167h242q145 0 230 79q84 78 84 210t-84 211t-230 79h-242v-579zM172 0v1434h193v-630h679v630h193v-521h250q228 0 364 -126q137 -127 137 -331t-136 -330t-365 -126h-443v637h-679v-637h-193z" />
    <glyph glyph-name="afii10060" unicode="&#x40b;" horiz-adv-x="1511" 
d="M657 0h-192v1267h-402v167h997v-167h-403v-486q55 65 137 103t174 38q175 0 295 -118t119 -289v-515h-192v506q0 104 -72 176t-176 73q-188 0 -285 -168v-587z" />
    <glyph glyph-name="afii10061" unicode="&#x40c;" horiz-adv-x="1229" 
d="M434 1546l281 345h190l-287 -345h-184zM365 1434v-630h122l439 630h220l-495 -710l577 -724h-227l-507 637h-129v-637h-193v1434h193z" />
    <glyph glyph-name="uni040D" unicode="&#x40d;" horiz-adv-x="1432" 
d="M577 1891l280 -345h-184l-287 345h191zM1261 1434v-1434h-187v1100l-717 -1100h-185v1434h186v-1100l717 1100h186z" />
    <glyph glyph-name="afii10062" unicode="&#x40e;" horiz-adv-x="1316" 
d="M664 1526q-135 0 -231 90t-103 226h166q4 -77 50 -127t118 -50t118 50t49 127h166q-7 -136 -103 -226t-230 -90zM358 0h-147v167h123q99 0 152 103l77 150l-515 1014h203l413 -820l402 820h203l-617 -1240q-96 -194 -294 -194z" />
    <glyph glyph-name="afii10145" unicode="&#x40f;" horiz-adv-x="1382" 
d="M1210 1434v-1434h-423v-287h-192v287h-423v1434h193v-1267h653v1267h192z" />
    <glyph glyph-name="afii10017" unicode="&#x410;" horiz-adv-x="1394" 
d="M450 537h495l-248 684zM1346 0h-210l-134 370h-610l-133 -370h-210l541 1434h215z" />
    <glyph glyph-name="afii10018" unicode="&#x411;" horiz-adv-x="1211" 
d="M365 167h246q144 0 229 79q84 78 84 210t-84 211t-229 79h-246v-579zM172 0v1434h835v-167h-642v-354h253q228 0 364 -126q136 -127 137 -331q0 -204 -136 -330t-365 -126h-446z" />
    <glyph glyph-name="afii10019" unicode="&#x412;" horiz-adv-x="1264" 
d="M971 415q0 113 -69 181t-181 67h-356v-496h356q112 -1 181 67t69 181zM889 1044q-1 104 -63 164t-163 59h-298v-444h298q102 1 164 59t62 162zM737 0h-565v1434h504q191 0 300 -103t108 -277q0 -111 -52 -186t-141 -107q119 -26 197 -120t78 -232q0 -182 -116 -296
q-117 -113 -313 -113z" />
    <glyph glyph-name="afii10020" unicode="&#x413;" horiz-adv-x="1053" 
d="M172 0v1434h834v-167h-641v-1267h-193z" />
    <glyph glyph-name="afii10021" unicode="&#x414;" horiz-adv-x="1347" 
d="M963 167v1100h-416q1 -295 -41 -587t-125 -513h582zM1283 167v-454h-192v287h-834v-287h-192v454h110q181 423 181 1133v134h799v-1267h128z" />
    <glyph glyph-name="afii10022" unicode="&#x415;" horiz-adv-x="1156" 
d="M172 0v1434h847v-167h-654v-463h602v-167h-602v-470h672v-167h-865z" />
    <glyph glyph-name="afii10024" unicode="&#x416;" horiz-adv-x="1841" 
d="M824 804v630h193v-630h100l420 630h220l-475 -710l557 -724h-226l-489 637h-107v-637h-193v637h-107l-489 -637h-226l557 724l-475 710h220l420 -630h100z" />
    <glyph glyph-name="afii10025" unicode="&#x417;" horiz-adv-x="1082" 
d="M808 423q0 121 -92 201t-241 79h-148v158h150q117 0 190 62t73 155q0 92 -71 154t-176 62q-146 0 -252 -122l-115 117q141 169 382 169q181 0 298 -108t118 -267q0 -98 -59 -178t-154 -117q128 -42 207 -142t79 -228q0 -187 -141 -315q-142 -127 -350 -128
q-136 0 -254 61t-187 169l121 122q122 -188 334 -188q114 -1 201 81t87 203z" />
    <glyph glyph-name="afii10026" unicode="&#x418;" horiz-adv-x="1432" 
d="M1261 1434v-1434h-187v1100l-717 -1100h-185v1434h186v-1100l717 1100h186z" />
    <glyph glyph-name="afii10027" unicode="&#x419;" horiz-adv-x="1432" 
d="M716 1526q-135 0 -231 90t-103 226h166q3 -77 50 -127q46 -50 118 -50t118 50t50 127h166q-7 -136 -103 -226t-231 -90zM1261 1434v-1434h-187v1100l-717 -1100h-185v1434h186v-1100l717 1100h186z" />
    <glyph glyph-name="afii10028" unicode="&#x41a;" horiz-adv-x="1229" 
d="M365 1434v-630h122l439 630h220l-495 -710l577 -724h-227l-507 637h-129v-637h-193v1434h193z" />
    <glyph glyph-name="afii10029" unicode="&#x41b;" horiz-adv-x="1436" 
d="M452 1267v-931q0 -340 -324 -340q-37 0 -80 4v164q19 -1 78 -1t96 40t37 131v1100h1006v-1434h-193v1267h-620z" />
    <glyph glyph-name="afii10030" unicode="&#x41c;" horiz-adv-x="1738" 
d="M358 0h-186v1434h179l518 -767l519 767h179v-1434h-187v1115l-449 -661h-123l-450 661v-1115z" />
    <glyph glyph-name="afii10031" unicode="&#x41d;" horiz-adv-x="1427" 
d="M172 0v1434h193v-630h698v630h192v-1434h-192v637h-698v-637h-193z" />
    <glyph glyph-name="afii10032" unicode="&#x41e;" horiz-adv-x="1673" 
d="M837 1458q157 0 297 -57q279 -114 398 -392q58 -137 58 -292t-58 -292t-158 -236t-241 -156t-297 -57t-296 56q-279 115 -399 393q-58 137 -58 292t58 292q59 137 159 236t240 156t297 57zM837 145q233 0 395 166t163 406q-1 239 -163 405t-395 166t-395 -166t-163 -406
q1 -240 163 -405q162 -166 395 -166z" />
    <glyph glyph-name="afii10033" unicode="&#x41f;" horiz-adv-x="1381" 
d="M1209 1434v-1434h-192v1267h-652v-1267h-193v1434h1037z" />
    <glyph glyph-name="afii10034" unicode="&#x420;" horiz-adv-x="1198" 
d="M927 987q-1 129 -81 204t-223 76h-258v-559h258q143 0 223 75t81 204zM630 541h-265v-541h-193v1434h458q227 0 360 -122q132 -122 132 -325q0 -204 -132 -325t-360 -121z" />
    <glyph glyph-name="afii10035" unicode="&#x421;" horiz-adv-x="1400" 
d="M837 1288q-233 0 -395 -166t-163 -406q1 -240 163 -405q162 -166 384 -166t399 146l102 -145q-209 -171 -490 -171q-157 -1 -297 57q-279 115 -399 393q-58 137 -58 292t58 292q59 137 159 236t240 156t297 57q266 0 473 -159l-98 -145q-192 134 -375 134z" />
    <glyph glyph-name="afii10036" unicode="&#x422;" horiz-adv-x="1124" 
d="M466 0v1267h-403v167h998v-167h-403v-1267h-192z" />
    <glyph glyph-name="afii10037" unicode="&#x423;" horiz-adv-x="1316" 
d="M358 0h-147v167h123q99 0 152 103l77 150l-515 1014h203l413 -820l402 820h203l-617 -1240q-96 -194 -294 -194z" />
    <glyph glyph-name="afii10038" unicode="&#x424;" horiz-adv-x="1552" 
d="M872 1066v-702q171 0 290 102t119 248t-119 249t-290 103zM872 0h-192v197q-165 0 -304 68q-140 68 -220 187q-80 118 -80 262t81 263t219 187t304 69v201h192v-201q165 0 304 -68q139 -67 220 -187t81 -263t-81 -263t-220 -187q-139 -68 -304 -68v-197zM680 364v702
q-171 0 -290 -103t-119 -248t119 -248t290 -103z" />
    <glyph glyph-name="afii10039" unicode="&#x425;" horiz-adv-x="1290" 
d="M251 0h-211l490 729l-472 705h211l376 -565l376 565h211l-472 -705l490 -729h-211l-394 589z" />
    <glyph glyph-name="afii10040" unicode="&#x426;" horiz-adv-x="1400" 
d="M1210 1434v-1267h126v-454h-192v287h-972v1434h193v-1267h653v1267h192z" />
    <glyph glyph-name="afii10041" unicode="&#x427;" horiz-adv-x="1259" 
d="M1087 0h-192v662q-54 -66 -145 -108t-186 -42q-183 0 -309 123t-126 301v498h193v-489q0 -112 78 -189t182 -77t186 48t127 129v578h192v-1434z" />
    <glyph glyph-name="afii10042" unicode="&#x428;" horiz-adv-x="1974" 
d="M1610 167v1267h192v-1434h-1630v1434h193v-1267h526v1267h192v-1267h527z" />
    <glyph glyph-name="afii10043" unicode="&#x429;" horiz-adv-x="1991" 
d="M172 0v1434h193v-1267h526v1267h192v-1267h527v1267h192v-1267h125v-454h-192v287h-1563z" />
    <glyph glyph-name="afii10044" unicode="&#x42a;" horiz-adv-x="1449" 
d="M873 0h-446v1267h-364v167h557v-521h253q229 0 365 -126q136 -127 136 -331t-136 -330t-365 -126zM620 167h246q145 0 230 79q84 78 84 210t-84 211t-230 79h-246v-579z" />
    <glyph glyph-name="afii10045" unicode="&#x42b;" horiz-adv-x="1668" 
d="M618 0h-446v1434h193v-521h253q228 0 364 -126q136 -127 137 -331q-1 -204 -137 -330t-364 -126zM1304 1434h192v-1434h-192v1434zM365 167h246q145 0 230 79q84 78 84 210t-84 211t-230 79h-246v-579z" />
    <glyph glyph-name="afii10046" unicode="&#x42c;" horiz-adv-x="1195" 
d="M618 0h-446v1434h193v-521h253q228 0 364 -126q136 -127 137 -331q-1 -204 -137 -330t-364 -126zM365 167h246q145 0 230 79q84 78 84 210t-84 211t-230 79h-246v-579z" />
    <glyph glyph-name="afii10047" unicode="&#x42d;" horiz-adv-x="1400" 
d="M564 145q212 1 367 139t185 349h-737v167h737q-28 212 -184 350t-368 138q-104 0 -193 -35t-183 -99l-97 145q207 159 473 159q157 0 297 -57q279 -114 399 -392q58 -137 58 -292t-58 -292t-158 -236t-241 -156q-140 -57 -297 -58q-282 0 -490 171l102 145
q176 -146 388 -146z" />
    <glyph glyph-name="afii10048" unicode="&#x42e;" horiz-adv-x="2162" 
d="M1326 145q115 0 219 45t178 121t118 182t43 224q0 118 -43 224q-89 213 -296 303q-104 45 -219 44q-234 0 -396 -166t-162 -406t162 -405q162 -166 396 -166zM365 636v-636h-193v1434h193v-631h213q20 185 122 335t266 236t368 84q202 0 375 -98t272 -268t99 -375
q0 -206 -99 -376t-272 -268t-383 -98q-146 1 -278 51q-264 101 -393 347q-63 122 -77 263h-213z" />
    <glyph glyph-name="afii10049" unicode="&#x42f;" horiz-adv-x="1228" 
d="M302 987q0 -129 80 -204t224 -75h258v559h-258q-144 1 -224 -75t-80 -205zM864 541h-192l-379 -541h-213l388 553q-169 33 -265 147q-97 114 -97 303q0 188 133 309t360 122h458v-1434h-193v541z" />
    <glyph glyph-name="afii10065" unicode="&#x430;" horiz-adv-x="1328" 
d="M618 1085q226 0 374 -161v137h187v-1061h-187v137q-146 -162 -374 -162q-154 1 -279 77t-194 202t-69 276t69 276t194 202t279 77zM649 142q111 0 203 58t140 152v354q-48 96 -140 154t-203 59q-162 1 -273 -113t-111 -276t111 -275t273 -113z" />
    <glyph glyph-name="afii10066" unicode="&#x431;" horiz-adv-x="1245" 
d="M643 802q-212 0 -357 -213q0 -208 94 -327q94 -120 248 -120t253 95t99 235t-98 234q-98 96 -239 96zM671 969q210 0 354 -144q144 -143 144 -355q1 -212 -151 -353t-387 -141t-385 159q-150 160 -150 440q0 377 108 583t380 285q131 38 313 52l27 -167
q-271 -24 -418 -103q-126 -70 -177 -241q-22 -76 -31 -187q68 79 164 125t209 47z" />
    <glyph glyph-name="afii10067" unicode="&#x432;" horiz-adv-x="1055" 
d="M336 161h253q79 0 131 44t52 109t-53 110t-130 45h-253v-308zM336 624h218q73 0 121 39t48 99t-48 98q-48 40 -121 40h-218v-276zM598 0h-448v1061h416q145 0 244 -81t99 -200q0 -74 -44 -134t-114 -88q88 -20 148 -94t59 -164q0 -128 -104 -214t-256 -86z" />
    <glyph glyph-name="afii10068" unicode="&#x433;" horiz-adv-x="839" 
d="M794 894h-458v-894h-186v1061h644v-167z" />
    <glyph glyph-name="afii10069" unicode="&#x434;" horiz-adv-x="1126" 
d="M757 164v733h-267q0 -185 -34 -384t-97 -349h398zM1076 164v-381h-186v217h-653v-217h-187v381h111q153 323 152 897h627v-897h136z" />
    <glyph glyph-name="afii10070" unicode="&#x435;" horiz-adv-x="1253" 
d="M638 925q-132 0 -234 -85t-131 -213h709q-22 130 -117 214t-227 84zM76 530q0 233 159 394q160 162 420 162q137 0 261 -72t193 -193t69 -267q0 -41 -10 -82h-902q14 -144 122 -240t259 -96q195 0 335 154l128 -119q-171 -194 -458 -196q-128 0 -236 44q-108 45 -182 119
t-116 176t-42 216z" />
    <glyph glyph-name="afii10072" unicode="&#x436;" horiz-adv-x="1601" 
d="M894 488v-488h-186v488h-128l-357 -488h-215l417 569l-362 492h222l296 -412h127v412h186v-412h127l296 412h221l-361 -492l416 -569h-215l-356 488h-128z" />
    <glyph glyph-name="afii10073" unicode="&#x437;" horiz-adv-x="971" 
d="M470 136q101 0 171 52t70 126q0 76 -69 128t-172 52h-152v154h158q82 0 137 40t55 98t-55 98t-132 41q-156 0 -219 -120l-149 92q99 189 379 189q144 0 254 -83q108 -82 108 -203q0 -75 -48 -137t-133 -90q93 -27 159 -101t65 -170q0 -138 -123 -232t-280 -94
q-294 -1 -427 187l128 105q104 -132 275 -132z" />
    <glyph glyph-name="afii10074" unicode="&#x438;" horiz-adv-x="1256" 
d="M1107 1061v-1061h-180v799l-600 -799h-177v1061h180v-799l600 799h177z" />
    <glyph glyph-name="afii10075" unicode="&#x439;" horiz-adv-x="1256" 
d="M628 1194q-135 0 -231 90t-103 226h166q4 -77 50 -127t118 -50t118 50t50 127h166q-7 -136 -103 -226t-231 -90zM1107 1061v-1061h-180v799l-600 -799h-177v1061h180v-799l600 799h177z" />
    <glyph glyph-name="afii10076" unicode="&#x43a;" horiz-adv-x="1053" 
d="M336 504v-504h-186v1061h186v-396h133l300 396h221l-366 -476l422 -585h-216l-363 504h-131z" />
    <glyph glyph-name="afii10077" unicode="&#x43b;" horiz-adv-x="1257" 
d="M237 306v755h871v-1061h-186v894h-499v-602q0 -129 -81 -214t-206 -85q-54 0 -90 7v165q16 -1 65 -1t87 38t39 104z" />
    <glyph glyph-name="afii10078" unicode="&#x43c;" horiz-adv-x="1382" 
d="M1233 1061v-1061h-180v775l-305 -454h-113l-305 454v-775h-180v1061h172l369 -559l370 559h172z" />
    <glyph glyph-name="afii10079" unicode="&#x43d;" horiz-adv-x="1256" 
d="M1107 1061v-1061h-186v465h-585v-465h-186v1061h186v-429h585v429h186z" />
    <glyph glyph-name="afii10080" unicode="&#x43e;" horiz-adv-x="1298" 
d="M649 1085q162 -1 294 -75t206 -201t74 -279t-74 -278t-206 -202q-132 -75 -294 -75t-294 75q-131 75 -205 202q-74 126 -74 278t74 279t206 201t293 75zM649 142q162 0 273 113t111 275t-111 275t-273 113t-273 -112q-111 -114 -111 -276t111 -275t273 -113z" />
    <glyph glyph-name="afii10081" unicode="&#x43f;" horiz-adv-x="1256" 
d="M1107 1061v-1061h-186v894h-585v-894h-186v1061h957z" />
    <glyph glyph-name="afii10082" unicode="&#x440;" horiz-adv-x="1328" 
d="M710 1085q154 0 279 -76q125 -77 194 -203t69 -276t-69 -276t-194 -202t-279 -77q-227 0 -374 162v-612h-186v1536h186v-137q148 161 374 161zM679 142q162 0 273 113t111 275t-111 275t-273 114q-111 -1 -203 -59t-140 -154v-354q48 -94 140 -152t203 -58z" />
    <glyph glyph-name="afii10083" unicode="&#x441;" horiz-adv-x="1124" 
d="M649 -25q-162 0 -294 75q-131 75 -205 202q-74 126 -74 278t74 279t206 202t293 74q222 0 386 -140l-97 -146q-135 120 -293 120q-158 1 -269 -113t-111 -276t111 -275t275 -113t294 128l110 -136q-164 -159 -406 -159z" />
    <glyph glyph-name="afii10084" unicode="&#x442;" horiz-adv-x="962" 
d="M388 894h-342v167h870v-167h-342v-894h-186v894z" />
    <glyph glyph-name="afii10085" unicode="&#x443;" horiz-adv-x="1075" 
d="M254 -475l188 479l-414 1057h194l316 -820l315 820h195l-599 -1536h-195z" />
    <glyph glyph-name="afii10086" unicode="&#x444;" horiz-adv-x="2170" 
d="M1522 142q162 0 273 113t111 275t-111 275t-273 114q-112 -1 -204 -59t-139 -154v-354q47 -94 139 -152t204 -58zM1179 -475h-187v612q-146 -162 -374 -162q-154 1 -279 77t-194 202t-69 276t69 276t194 202t279 77q226 0 374 -161v571h187v-571q147 162 373 161
q154 0 279 -76q125 -77 195 -203t69 -276q0 -150 -69 -276q-68 -126 -194 -202t-280 -77q-227 0 -373 162v-612zM649 142q111 0 203 58t140 152v354q-48 96 -140 154t-203 59q-162 1 -273 -113t-111 -276t111 -275t273 -113z" />
    <glyph glyph-name="afii10087" unicode="&#x445;" horiz-adv-x="1071" 
d="M236 0h-208l390 542l-364 519h208l274 -393l273 393h208l-364 -519l390 -542h-207l-300 416z" />
    <glyph glyph-name="afii10088" unicode="&#x446;" horiz-adv-x="1282" 
d="M1046 -287v287h-896v1061h186v-894h585v894h186v-894h125v-454h-186z" />
    <glyph glyph-name="afii10089" unicode="&#x447;" horiz-adv-x="1124" 
d="M99 696v365h187v-355q0 -103 67 -174q68 -70 168 -70q175 0 267 190v409h187v-1061h-187v457q-114 -164 -301 -162q-163 0 -275 116t-113 285z" />
    <glyph glyph-name="afii10090" unicode="&#x448;" horiz-adv-x="1613" 
d="M1464 1061v-1061h-1314v1061h186v-894h378v894h186v-894h378v894h186z" />
    <glyph glyph-name="afii10091" unicode="&#x449;" horiz-adv-x="1639" 
d="M150 0v1061h186v-894h378v894h186v-894h378v894h186v-894h125v-454h-186v287h-1253z" />
    <glyph glyph-name="afii10092" unicode="&#x44a;" horiz-adv-x="1219" 
d="M758 161q90 1 152 57t61 140q0 84 -62 142t-151 58h-224v-397h224zM773 0h-426v900h-301v161h488v-342h239q163 -1 274 -105t111 -256t-112 -254q-110 -104 -273 -104z" />
    <glyph glyph-name="afii10093" unicode="&#x44b;" horiz-adv-x="1447" 
d="M1112 0v1061h186v-1061h-186zM560 161q90 1 152 57t61 140q0 84 -62 142t-151 58h-224v-397h224zM575 0h-425v1061h186v-342h239q162 -1 273 -105t111 -255q-1 -151 -111 -255t-273 -104z" />
    <glyph glyph-name="afii10094" unicode="&#x44c;" horiz-adv-x="1021" 
d="M560 161q90 1 152 57t61 140q0 84 -62 142t-151 58h-224v-397h224zM575 0h-425v1061h186v-342h239q162 -1 273 -105t111 -255q-1 -151 -111 -255t-273 -104z" />
    <glyph glyph-name="afii10095" unicode="&#x44d;" horiz-adv-x="1124" 
d="M475 -25q-242 0 -405 159l109 136q130 -128 283 -128t258 88q104 88 131 222h-511v154h512q-26 135 -131 224t-253 89t-282 -120l-97 146q164 140 386 140q162 -1 294 -75t206 -201t74 -279t-74 -278t-206 -202q-132 -75 -294 -75z" />
    <glyph glyph-name="afii10096" unicode="&#x44e;" horiz-adv-x="1714" 
d="M1065 142q162 0 273 113t111 275t-111 275t-273 113t-273 -112q-111 -114 -111 -276t111 -275t273 -113zM1065 1085q162 -1 294 -75t206 -201q73 -127 73 -279t-74 -278t-205 -202q-132 -75 -294 -75q-222 0 -380 135t-187 339h-162v-449h-186v1061h186v-446h162
q31 203 188 337q158 133 379 133z" />
    <glyph glyph-name="afii10097" unicode="&#x44f;" horiz-adv-x="1119" 
d="M500 536h283v364h-283q-92 0 -154 -52t-62 -130t62 -130t154 -52zM783 375h-210l-295 -375h-207l308 388q-126 31 -204 121t-78 222t114 231t283 99h476v-1061h-187v375z" />
    <glyph glyph-name="uni0450" unicode="&#x450;" horiz-adv-x="1253" 
d="M509 1560l281 -346h-185l-287 346h191zM638 925q-132 0 -234 -85t-131 -213h709q-22 130 -117 214t-227 84zM76 530q0 233 159 394q160 162 420 162q137 0 261 -72t193 -193t69 -267q0 -41 -10 -82h-902q14 -144 122 -240t259 -96q195 0 335 154l128 -119
q-171 -194 -458 -196q-128 0 -236 44q-108 45 -182 119t-116 176t-42 216z" />
    <glyph glyph-name="afii10071" unicode="&#x451;" horiz-adv-x="1253" 
d="M694 1372q0 48 34 82t82 34q49 0 82 -34q34 -34 34 -82t-34 -82t-82 -34t-82 34t-34 82zM328 1372q0 48 33 82t82 34t83 -34t33 -82q0 -48 -33 -82q-32 -34 -82 -34t-83 34t-33 82zM638 925q-132 0 -234 -85t-131 -213h709q-22 130 -117 214t-227 84zM76 530
q0 233 159 394q160 162 420 162q137 0 261 -72t193 -193t69 -267q0 -41 -10 -82h-902q14 -144 122 -240t259 -96q195 0 335 154l128 -119q-171 -194 -458 -196q-128 0 -236 44q-108 45 -182 119t-116 176t-42 216z" />
    <glyph glyph-name="afii10099" unicode="&#x452;" horiz-adv-x="1267" 
d="M28 1201v129h153v165h187v-165h354v-129h-354v-303q62 82 151 135t193 52q188 -1 307 -121t120 -312v-757q0 -191 -94 -281t-290 -89q-49 0 -105 8v161q44 -5 93 -5q112 0 161 51t48 157v745q0 120 -77 198t-184 78t-188 -61q-81 -62 -135 -154v-703h-187v1201h-153z" />
    <glyph glyph-name="afii10100" unicode="&#x453;" horiz-adv-x="839" 
d="M249 1214l280 346h191l-287 -346h-184zM794 894h-458v-894h-186v1061h644v-167z" />
    <glyph glyph-name="afii10101" unicode="&#x454;" horiz-adv-x="1124" 
d="M649 -25q-162 0 -294 75q-131 75 -205 202q-74 126 -74 278t74 279t206 202t293 74q222 0 386 -140l-97 -146q-134 120 -282 120t-253 -89t-131 -224h512v-154h-512q28 -134 132 -222t258 -88t283 128l110 -136q-164 -159 -406 -159z" />
    <glyph glyph-name="afii10102" unicode="&#x455;" horiz-adv-x="954" 
d="M692 292q0 70 -56 112q-56 44 -179 68q-345 67 -345 320q0 127 100 210q101 83 265 83q206 0 357 -141l-101 -127q-125 108 -243 108q-84 -1 -138 -39t-54 -97t55 -103t164 -65q183 -35 273 -117t89 -217q0 -135 -105 -223t-287 -89q-128 -1 -235 47t-177 130l105 126
q115 -142 301 -142q94 0 153 43q58 43 58 113z" />
    <glyph glyph-name="afii10103" unicode="&#x456;" horiz-adv-x="534" 
d="M144 1358q0 52 36 86q36 36 87 36t87 -36t36 -86q0 -52 -35 -88t-87 -35q-52 -1 -88 35t-36 88zM174 0v1061h186v-1061h-186z" />
    <glyph glyph-name="afii10104" unicode="&#x457;" horiz-adv-x="534" 
d="M335 1372q0 48 33 82q32 34 82 34t83 -34t33 -82t-33 -82t-82 -34t-83 34t-33 82zM-32 1372q0 48 34 82t82 34q49 0 82 -34q34 -34 34 -82t-34 -82t-82 -34t-82 34t-34 82zM174 0v1061h186v-1061h-186z" />
    <glyph glyph-name="afii10105" unicode="&#x458;" horiz-adv-x="534" 
d="M144 1358q0 52 36 86q36 36 87 36t87 -36t36 -86q0 -52 -35 -88t-87 -35q-52 -1 -88 35t-36 88zM174 -140v1201h186v-1198q0 -177 -76 -258q-77 -80 -238 -80q-37 0 -80 4v161q18 -1 76 -1t95 40t37 131z" />
    <glyph glyph-name="afii10106" unicode="&#x459;" horiz-adv-x="1747" 
d="M237 306v755h830v-342h235q164 -1 274 -105t110 -256t-111 -254q-111 -104 -273 -104h-421v894h-458v-602q0 -129 -81 -214t-206 -85q-54 0 -90 7v165q16 -1 65 -1t87 38t39 104zM1067 161h219q90 0 152 57q61 57 61 141q0 83 -62 141t-151 58h-219v-397z" />
    <glyph glyph-name="afii10107" unicode="&#x45a;" horiz-adv-x="1746" 
d="M1285 161q89 1 151 57t62 140t-62 142t-151 58h-219v-397h219zM1300 0h-420v465h-544v-465h-186v1061h186v-429h544v429h186v-342h234q162 -1 273 -105t111 -255t-110 -255t-274 -104z" />
    <glyph glyph-name="afii10108" unicode="&#x45b;" horiz-adv-x="1267" 
d="M28 1201v129h153v165h187v-165h354v-129h-354v-303q62 82 151 135t193 52q188 -1 307 -121t120 -312v-652h-187v642q0 120 -77 198t-184 78t-188 -61q-81 -62 -135 -154v-703h-187v1201h-153z" />
    <glyph glyph-name="afii10109" unicode="&#x45c;" horiz-adv-x="1053" 
d="M343 1214l281 346h190l-287 -346h-184zM336 504v-504h-186v1061h186v-396h133l300 396h221l-366 -476l422 -585h-216l-363 504h-131z" />
    <glyph glyph-name="uni045D" unicode="&#x45d;" horiz-adv-x="1256" 
d="M498 1560l280 -346h-184l-287 346h191zM1107 1061v-1061h-180v799l-600 -799h-177v1061h180v-799l600 799h177z" />
    <glyph glyph-name="afii10110" unicode="&#x45e;" horiz-adv-x="1075" 
d="M538 1194q-135 0 -231 90t-103 226h166q4 -77 50 -127t118 -50t118 50t50 127h165q-7 -136 -103 -226t-230 -90zM254 -475l188 479l-414 1057h194l316 -820l315 820h195l-599 -1536h-195z" />
    <glyph glyph-name="afii10193" unicode="&#x45f;" horiz-adv-x="1257" 
d="M1108 1061v-1061h-386v-287h-186v287h-386v1061h186v-894h586v894h186z" />
    <glyph glyph-name="afii10050" unicode="&#x490;" horiz-adv-x="1053" 
d="M172 0v1434h641v286h193v-453h-641v-1267h-193z" />
    <glyph glyph-name="afii10098" unicode="&#x491;" horiz-adv-x="839" 
d="M794 894h-458v-894h-186v1061h457v287h187v-454z" />
    <glyph glyph-name="Wgrave" unicode="&#x1e80;" horiz-adv-x="1980" 
d="M860 1891l281 -345h-185l-286 345h190zM894 1434h192l332 -1152l312 1152h202l-411 -1434h-193l-338 1168l-338 -1168h-192l-412 1434h203l311 -1152z" />
    <glyph glyph-name="wgrave" unicode="&#x1e81;" horiz-adv-x="1597" 
d="M651 1560l281 -346h-184l-287 346h190zM702 1061h193l237 -811l243 811h195l-340 -1061h-193l-238 815l-239 -815h-192l-340 1061h194l244 -811z" />
    <glyph glyph-name="Wacute" unicode="&#x1e82;" horiz-adv-x="1980" 
d="M843 1546l280 345h191l-287 -345h-184zM894 1434h192l332 -1152l312 1152h202l-411 -1434h-193l-338 1168l-338 -1168h-192l-412 1434h203l311 -1152z" />
    <glyph glyph-name="wacute" unicode="&#x1e83;" horiz-adv-x="1597" 
d="M658 1214l281 346h190l-286 -346h-185zM702 1061h193l237 -811l243 811h195l-340 -1061h-193l-238 815l-239 -815h-192l-340 1061h194l244 -811z" />
    <glyph glyph-name="Wdieresis" unicode="&#x1e84;" horiz-adv-x="1980" 
d="M1058 1704q0 48 33 82t83 34t82 -34q33 -34 33 -82t-33 -82t-82 -34q-48 0 -82 34t-34 82zM691 1704q0 48 33 82q32 34 82 34t83 -34t33 -82t-32 -82q-34 -34 -83 -34t-83 34t-33 82zM894 1434h192l332 -1152l312 1152h202l-411 -1434h-193l-338 1168l-338 -1168h-192
l-412 1434h203l311 -1152z" />
    <glyph glyph-name="wdieresis" unicode="&#x1e85;" horiz-adv-x="1597" 
d="M866 1372q0 48 34 82t82 34q49 0 82 -34q34 -34 34 -82t-34 -82t-82 -34t-82 34t-34 82zM500 1372q0 48 33 82t82 34t83 -34t33 -82q0 -48 -33 -82q-32 -34 -82 -34t-83 34t-33 82zM702 1061h193l237 -811l243 811h195l-340 -1061h-193l-238 815l-239 -815h-192
l-340 1061h194l244 -811z" />
    <glyph glyph-name="Ygrave" unicode="&#x1ef2;" horiz-adv-x="1316" 
d="M517 1891l281 -345h-185l-286 345h190zM755 0h-193v588l-514 846h208l402 -658l403 658h208l-514 -846v-588z" />
    <glyph glyph-name="ygrave" unicode="&#x1ef3;" horiz-adv-x="1075" 
d="M385 1560l281 -346h-185l-286 346h190zM254 -475l188 479l-414 1057h194l316 -820l315 820h195l-599 -1536h-195z" />
    <glyph glyph-name="thinspace" unicode="&#x2009;" horiz-adv-x="409" 
 />
    <glyph glyph-name="uni2010" unicode="&#x2010;" horiz-adv-x="823" 
d="M702 592h-581v176h581v-176z" />
    <glyph glyph-name="figuredash" unicode="&#x2012;" horiz-adv-x="1228" 
d="M1126 592h-1024v176h1024v-176z" />
    <glyph glyph-name="endash" unicode="&#x2013;" horiz-adv-x="1024" 
d="M1024 592h-1024v176h1024v-176z" />
    <glyph glyph-name="emdash" unicode="&#x2014;" horiz-adv-x="2048" 
d="M2048 592h-2048v176h2048v-176z" />
    <glyph glyph-name="afii00208" unicode="&#x2015;" horiz-adv-x="2048" 
d="M1843 592h-1638v176h1638v-176z" />
    <glyph glyph-name="uni2016" unicode="&#x2016;" horiz-adv-x="921" 
d="M554 -287v1823h171v-1823h-171zM197 -287v1823h171v-1823h-171z" />
    <glyph glyph-name="underscoredbl" unicode="&#x2017;" horiz-adv-x="1228" 
d="M102 -182v143h1024v-143h-1024zM102 -461v144h1024v-144h-1024z" />
    <glyph glyph-name="quoteleft" unicode="&#x2018;" horiz-adv-x="608" 
d="M432 1216q0 -48 -37 -86t-91 -36q-54 0 -91 36t-37 80q0 42 13 70l136 296h124l-105 -233q40 -12 64 -45q24 -34 24 -82z" />
    <glyph glyph-name="quoteright" unicode="&#x2019;" horiz-adv-x="608" 
d="M176 1454q0 48 37 85t91 37t91 -37t37 -79t-13 -70l-135 -296h-124l104 232q-40 12 -64 46t-24 82z" />
    <glyph glyph-name="quotesinglbase" unicode="&#x201a;" horiz-adv-x="608" 
d="M176 108q0 48 37 86t91 38t91 -38q37 -36 37 -78t-13 -71l-135 -296h-124l104 233q-40 12 -64 45t-24 81z" />
    <glyph glyph-name="quotereversed" unicode="&#x201b;" horiz-adv-x="608" 
d="M432 1454q0 -48 -24 -82q-24 -33 -64 -46l105 -232h-124l-136 296q-13 28 -13 70t37 79t91 37t91 -37t37 -85z" />
    <glyph glyph-name="quotedblleft" unicode="&#x201c;" horiz-adv-x="942" 
d="M432 1216q0 -48 -37 -86t-91 -36q-54 0 -91 36t-37 80q0 42 13 70l136 296h124l-105 -233q40 -12 64 -45q24 -34 24 -82zM766 1216q0 -48 -37 -86t-91 -36q-54 0 -91 36t-37 80q0 42 13 70l135 296h124l-104 -233q40 -12 64 -45q24 -34 24 -82z" />
    <glyph glyph-name="quotedblright" unicode="&#x201d;" horiz-adv-x="942" 
d="M176 1454q0 48 37 85t91 37t91 -37t37 -79t-13 -70l-135 -296h-124l104 232q-40 12 -64 46t-24 82zM510 1454q0 48 37 85t91 37t91 -37t37 -79t-13 -70l-136 -296h-123l104 232q-40 12 -64 46t-24 82z" />
    <glyph glyph-name="quotedblbase" unicode="&#x201e;" horiz-adv-x="942" 
d="M510 108q0 48 37 86t91 38t91 -38q37 -36 37 -78t-13 -71l-136 -296h-123l104 233q-40 12 -64 45t-24 81zM176 108q0 48 37 86t91 38t91 -38q37 -36 37 -78t-13 -71l-135 -296h-124l104 233q-40 12 -64 45t-24 81z" />
    <glyph glyph-name="uni201F" unicode="&#x201f;" horiz-adv-x="942" 
d="M766 1454q0 -48 -24 -82q-24 -33 -64 -46l104 -232h-124l-135 296q-13 28 -13 70t37 79t91 37t91 -37t37 -85zM432 1454q0 -48 -24 -82q-24 -33 -64 -46l105 -232h-124l-136 296q-13 28 -13 70t37 79t91 37t91 -37t37 -85z" />
    <glyph glyph-name="dagger" unicode="&#x2020;" horiz-adv-x="1146" 
d="M477 -268v1269h-340v167h340v364h193v-364h340v-167h-340v-1269h-193z" />
    <glyph glyph-name="daggerdbl" unicode="&#x2021;" horiz-adv-x="1146" 
d="M477 262v739h-340v167h340v364h193v-364h340v-167h-340v-739h340v-167h-340v-363h-193v363h-340v167h340z" />
    <glyph glyph-name="bullet" unicode="&#x2022;" horiz-adv-x="819" 
d="M410 427q-105 0 -181 74q-75 75 -75 179t75 179q75 74 181 74t180 -74q75 -74 75 -179t-75 -179t-180 -74z" />
    <glyph glyph-name="onedotenleader" unicode="&#x2024;" horiz-adv-x="608" 
d="M176 103q0 53 37 91t91 38t91 -38q37 -36 37 -90t-37 -92q-37 -37 -91 -37t-91 37t-37 91z" />
    <glyph glyph-name="twodotenleader" unicode="&#x2025;" horiz-adv-x="1216" 
d="M784 103q0 53 37 91t91 38t92 -37q36 -37 36 -91t-36 -92q-36 -37 -92 -37q-54 0 -91 37t-37 91zM176 103q0 53 37 91t91 38t91 -38q37 -36 37 -90t-37 -92q-37 -37 -91 -37t-91 37t-37 91z" />
    <glyph glyph-name="ellipsis" unicode="&#x2026;" horiz-adv-x="1824" 
d="M784 103q0 53 37 91t91 38t92 -37q36 -37 36 -91t-36 -92q-36 -37 -92 -37q-54 0 -91 37t-37 91zM1393 103q0 53 37 91t91 38t91 -38q37 -36 37 -90t-37 -92q-37 -37 -91 -37t-91 37t-37 91zM176 103q0 53 37 91t91 38t91 -38q37 -36 37 -90t-37 -92q-37 -37 -91 -37
t-91 37t-37 91z" />
    <glyph glyph-name="perthousand" unicode="&#x2030;" horiz-adv-x="2637" 
d="M1810 345q0 152 106 256t261 104t261 -104t106 -256q0 -151 -106 -255t-261 -104t-261 104t-106 255zM1992 345q0 -84 53 -143t132 -59t132 59t53 143t-53 143t-132 59t-132 -59t-53 -143zM993 345q0 152 106 256t261 104q154 0 260 -104t106 -256q0 -151 -106 -255
t-260 -104t-261 104q-106 104 -106 255zM1175 345q0 -84 53 -143t132 -59t132 59t53 143t-53 143t-132 59t-132 -59t-53 -143zM94 1089q0 151 106 255t261 104t261 -104t105 -256q0 -152 -106 -255q-107 -104 -261 -104t-260 104t-106 256zM275 1089q-1 -84 53 -143t133 -59
t132 59t53 143q0 85 -53 143t-132 58t-133 -58t-53 -143zM443 0l738 1434h194l-737 -1434h-195z" />
    <glyph glyph-name="minute" unicode="&#x2032;" horiz-adv-x="567" 
d="M106 1053l187 381h188l-206 -381h-169z" />
    <glyph glyph-name="second" unicode="&#x2033;" horiz-adv-x="899" 
d="M438 1053l187 381h188l-206 -381h-169zM106 1053l187 381h188l-206 -381h-169z" />
    <glyph glyph-name="guilsinglleft" unicode="&#x2039;" horiz-adv-x="799" 
d="M108 590v98l566 355v-173l-377 -231l377 -231v-174z" />
    <glyph glyph-name="guilsinglright" unicode="&#x203a;" horiz-adv-x="799" 
d="M692 688v-98l-566 -356v174l377 231l-377 231v173z" />
    <glyph glyph-name="exclamdbl" unicode="&#x203c;" horiz-adv-x="1065" 
d="M623 102q0 54 36 90q37 36 91 37q54 0 90 -36q36 -37 36 -91t-36 -90t-90 -36t-90 36t-37 90zM653 403v1031h193v-1031h-193zM189 102q1 54 37 90t90 37q54 0 90 -36q36 -37 37 -91q0 -54 -36 -90q-37 -36 -91 -36t-90 36t-37 90zM220 403v1031h193v-1031h-193z" />
    <glyph glyph-name="uni203E" unicode="&#x203e;" horiz-adv-x="851" 
d="M129 1246v146h594v-146h-594z" />
    <glyph glyph-name="fraction" unicode="&#x2044;" horiz-adv-x="336" 
d="M-263 0l700 1434h163l-700 -1434h-163z" />
    <glyph glyph-name="zerosuperior" unicode="&#x2070;" 
d="M226 948q0 -168 45 -268t135 -100t134 100q45 100 45 268t-45 268t-134 100q-88 0 -134 -100t-46 -268zM406 1458q112 0 190 -69q154 -135 154 -441t-154 -441q-78 -69 -190 -69t-191 69q-154 135 -154 442t154 440q79 69 191 69z" />
    <glyph glyph-name="uni2071" unicode="&#x2071;" 
d="M304 1336q0 40 29 69t73 29t72 -29q29 -29 29 -69t-29 -68t-72 -29q-42 1 -72 29t-30 68zM324 463v686h162v-686h-162z" />
    <glyph glyph-name="foursuperior" unicode="&#x2074;" 
d="M475 796v376l-252 -376h252zM40 654v129l443 651h158v-637h112v-143h-112v-191h-166v191h-435z" />
    <glyph glyph-name="fivesuperior" unicode="&#x2075;" 
d="M378 438q-100 0 -182 45t-135 126l117 94q85 -129 197 -129q81 0 135 54t53 135q0 81 -54 135t-134 54q-44 0 -83 -22t-62 -57l-120 16l59 545h525v-139h-376l-29 -238q49 29 115 28q134 0 230 -88q96 -87 96 -231t-96 -236t-256 -92z" />
    <glyph glyph-name="sixsuperior" unicode="&#x2076;" 
d="M589 766q0 80 -54 135t-131 55q-76 0 -130 -56q-54 -54 -54 -134t54 -136t130 -56t131 56q54 56 54 136zM405 438q-142 0 -247 93q-104 93 -104 235q0 94 49 170l322 498h176l-228 -354q20 9 48 10q136 0 235 -92q100 -92 100 -232t-104 -234t-247 -94z" />
    <glyph glyph-name="sevensuperior" unicode="&#x2077;" 
d="M95 1434h624v-121l-357 -850h-186l354 832h-435v139z" />
    <glyph glyph-name="eightsuperior" unicode="&#x2078;" 
d="M406 1058q57 0 96 39t39 94t-39 93t-96 38q-56 0 -96 -38t-40 -93t40 -94t96 -39zM406 925q-76 1 -128 -51t-52 -125t52 -124t128 -51q77 0 128 51t51 125q1 74 -51 124q-52 51 -128 51zM406 438q-146 0 -247 89q-100 89 -100 221q0 80 45 146t121 103q-53 31 -85 83
t-31 113q0 113 84 189q85 76 213 76t212 -77t84 -188q0 -60 -31 -113q-32 -52 -85 -83q76 -36 121 -103t45 -146q0 -132 -100 -221t-246 -89z" />
    <glyph glyph-name="ninesuperior" unicode="&#x2079;" 
d="M222 1130q0 -80 54 -134t131 -55q77 0 131 55t53 135q0 79 -54 135q-55 56 -131 56t-130 -56t-54 -136zM390 807q-136 0 -235 92q-99 91 -99 231t104 234t246 94t246 -93t105 -235q0 -94 -49 -169l-322 -498h-176l228 353q-20 -9 -48 -9z" />
    <glyph glyph-name="uni207A" unicode="&#x207a;" 
d="M736 878h-248v-253h-164v253h-249v142h249v252h164v-252h248v-142z" />
    <glyph glyph-name="uni207B" unicode="&#x207b;" 
d="M736 878h-661v142h661v-142z" />
    <glyph glyph-name="uni207C" unicode="&#x207c;" 
d="M736 717h-661v142h661v-142zM736 1038h-661v143h661v-143z" />
    <glyph glyph-name="uni207D" unicode="&#x207d;" 
d="M466 949q0 -296 188 -523l-115 -79q-115 121 -178 277t-63 324q0 169 63 325t178 276l115 -79q-188 -225 -188 -521z" />
    <glyph glyph-name="uni207E" unicode="&#x207e;" 
d="M345 948q0 297 -188 522l115 79q115 -121 178 -277t63 -324t-63 -324t-178 -277l-115 79q188 225 188 522z" />
    <glyph glyph-name="uni207F" unicode="&#x207f;" 
d="M267 463h-162v686h162v-70q71 84 181 84t186 -79t77 -205v-416h-162v413q1 63 -37 104t-96 42q-96 0 -149 -114v-445z" />
    <glyph glyph-name="zeroinferior" unicode="&#x2080;" 
d="M226 217q0 -168 45 -268t135 -100t134 100q45 100 45 268t-45 268t-134 100q-88 0 -134 -100t-46 -268zM406 727q112 0 190 -69q154 -135 154 -441t-154 -441q-78 -69 -190 -69t-191 69q-154 135 -154 442t154 440q79 69 191 69z" />
    <glyph glyph-name="oneinferior" unicode="&#x2081;" 
d="M546 702v-970h-166v802l-172 -94l-65 122l261 140h142z" />
    <glyph glyph-name="twoinferior" unicode="&#x2082;" 
d="M700 -132v-136h-605v121l346 379q103 114 103 210q0 65 -42 107t-110 42q-123 0 -170 -151l-143 56q29 110 111 170t212 61q128 0 218 -79t91 -206q1 -78 -33 -146t-108 -149l-255 -279h385z" />
    <glyph glyph-name="threeinferior" unicode="&#x2083;" 
d="M369 -157q81 0 135 55q54 54 55 134q0 80 -55 134t-135 54q-30 0 -66 -11l-63 79l235 276h-364v138h569v-125l-217 -250q116 -19 189 -105t73 -206q0 -121 -99 -215t-253 -94q-101 0 -183 46t-134 127l113 96q88 -133 200 -133z" />
    <glyph glyph-name="fourinferior" unicode="&#x2084;" 
d="M475 65v376l-252 -376h252zM40 -77v129l443 650h158v-636h112v-143h-112v-191h-166v191h-435z" />
    <glyph glyph-name="fiveinferior" unicode="&#x2085;" 
d="M378 -293q-100 0 -182 45t-135 126l117 94q85 -129 197 -129q81 0 135 54t53 135q0 81 -54 135t-134 54q-44 0 -83 -22t-62 -57l-120 16l59 544h525v-138h-376l-29 -238q49 29 115 28q134 0 230 -88t96 -232t-96 -235q-96 -92 -256 -92z" />
    <glyph glyph-name="sixinferior" unicode="&#x2086;" 
d="M589 34q0 80 -54 136q-54 54 -131 54q-76 0 -130 -55t-54 -135t54 -135t130 -55t131 54q54 56 54 136zM421 358q136 0 235 -92q100 -92 100 -232t-104 -233q-104 -94 -247 -94q-142 0 -247 93q-104 93 -104 235q0 94 49 170l322 497h176l-228 -353q20 9 48 9z" />
    <glyph glyph-name="seveninferior" unicode="&#x2087;" 
d="M95 702h624v-120l-357 -850h-186l354 832h-435v138z" />
    <glyph glyph-name="eightinferior" unicode="&#x2088;" 
d="M406 327q57 0 96 39t39 94t-39 93t-96 38q-56 0 -96 -38t-40 -93t40 -94t96 -39zM406 194q-76 0 -128 -52t-52 -124q0 -74 52 -124t128 -51q77 0 128 51t51 124q1 72 -51 124t-128 52zM406 -293q-146 0 -247 89q-100 89 -100 220q0 80 45 147t121 103q-53 31 -85 83
t-31 113q0 112 84 188q85 76 213 77q128 0 212 -77t84 -188q0 -60 -31 -113q-32 -52 -85 -83q76 -36 121 -103t45 -147q0 -132 -100 -220t-246 -89z" />
    <glyph glyph-name="nineinferior" unicode="&#x2089;" 
d="M222 400q0 -80 54 -136q54 -54 131 -54t131 55t53 135q0 80 -54 136q-55 56 -131 55q-76 1 -130 -55t-54 -136zM390 76q-136 0 -235 92t-99 232t104 233q104 94 246 94t246 -93t105 -235q0 -94 -49 -170l-322 -497h-176l228 353q-20 -9 -48 -9z" />
    <glyph glyph-name="uni208A" unicode="&#x208a;" 
d="M736 146h-248v-252h-164v252h-249v143h249v252h164v-252h248v-143z" />
    <glyph glyph-name="uni208B" unicode="&#x208b;" 
d="M736 146h-661v143h661v-143z" />
    <glyph glyph-name="uni208C" unicode="&#x208c;" 
d="M736 -14h-661v142h661v-142zM736 307h-661v143h661v-143z" />
    <glyph glyph-name="uni208D" unicode="&#x208d;" 
d="M466 218q0 -296 188 -523l-115 -79q-115 120 -178 276t-63 325t63 325t178 276l115 -79q-188 -225 -188 -521z" />
    <glyph glyph-name="uni208E" unicode="&#x208e;" 
d="M345 217q0 297 -188 522l115 79q115 -120 178 -276t63 -325t-63 -325t-178 -276l-115 79q188 225 188 522z" />
    <glyph glyph-name="uni2090" unicode="&#x2090;" 
d="M207 66q0 -94 55 -156t123 -62q127 0 182 105v225q-54 103 -168 105q-82 0 -137 -62t-55 -155zM383 -293q-144 -1 -242 103t-98 256t98 255t242 103q110 0 184 -80v66h164v-689h-164v66q-74 -80 -184 -80z" />
    <glyph glyph-name="uni2091" unicode="&#x2091;" 
d="M412 289q-66 1 -116 -41t-68 -107h359q-14 67 -61 107q-48 40 -114 41zM408 -159q121 0 208 105l102 -102q-114 -137 -286 -137q-171 0 -272 104t-101 255q-1 150 101 254t251 104t245 -99t97 -245q0 -41 -5 -67h-525q13 -75 67 -123t118 -49z" />
    <glyph glyph-name="uni2092" unicode="&#x2092;" 
d="M406 424q154 0 256 -104t102 -255t-103 -254t-255 -103t-256 102q-103 104 -103 256t103 254q103 104 256 104zM406 -153q82 -1 138 63t56 156t-56 154q-56 63 -138 63t-138 -63t-57 -154q1 -91 57 -155t138 -64z" />
    <glyph glyph-name="uni2093" unicode="&#x2093;" 
d="M249 -279h-182l243 355l-227 334h182l141 -209l140 209h182l-227 -334l243 -355h-182l-156 233z" />
    <glyph glyph-name="uni2094" unicode="&#x2094;" 
d="M398 -158q66 0 117 42q50 42 68 106h-359q14 -68 61 -108t113 -40zM403 290q-121 0 -208 -105l-102 102q114 137 286 137q171 0 272 -104t101 -254t-102 -255q-102 -104 -250 -104q-149 0 -245 99t-97 245q0 41 5 67h525q-14 76 -68 124t-117 48z" />
    <glyph glyph-name="uni20A0" unicode="&#x20a0;" horiz-adv-x="1595" 
d="M594 432q-222 0 -374 148t-151 364q0 216 151 365q152 149 358 149t368 -129l-89 -136q-142 104 -274 104t-232 -101q-99 -102 -99 -250t99 -251q99 -102 235 -102t245 73v327h622v-157h-439v-257h406v-158h-406v-263h451v-158h-634v486q-110 -54 -237 -54z" />
    <glyph glyph-name="colonmonetary" unicode="&#x20a1;" horiz-adv-x="1400" 
d="M854 1288q-29 0 -54 -2l-194 -1091q63 -29 124 -40l200 1125q-47 8 -76 8zM279 717q0 -135 56 -253t155 -197l176 993q-172 -52 -280 -202t-107 -341zM83 704q0 195 79 351t219 258t317 133l35 196h130l-33 -184q55 0 129 -9l35 193h129l-39 -223q120 -41 226 -120
l-98 -145q-83 58 -159 90l-194 -1098q199 7 366 145l102 -145q-207 -170 -499 -170l-32 -185h-129l33 197q-74 12 -125 30l-39 -227h-130l50 282q-172 96 -273 266q-100 170 -100 365z" />
    <glyph glyph-name="uni20A2" unicode="&#x20a2;" horiz-adv-x="1400" 
d="M1058 864q51 0 100 -23l-14 -146q-56 24 -99 24q-43 1 -91 -37t-84 -98v-438q193 11 355 145l102 -145q-209 -171 -490 -171q-157 -1 -297 57q-279 115 -399 393q-58 137 -58 292t58 292q59 137 159 236t240 156t297 57q266 0 473 -159l-98 -145q-192 134 -375 134
q-233 0 -395 -166t-163 -405q0 -202 118 -355t302 -199v687h171v-104q84 118 188 118z" />
    <glyph glyph-name="franc" unicode="&#x20a3;" horiz-adv-x="1125" 
d="M251 0v486h-196v113h196v113h-196v111h196v611h826v-167h-634v-444h355v-111h-355v-113h355v-113h-355v-486h-192z" />
    <glyph glyph-name="lira" unicode="&#x20a4;" horiz-adv-x="1177" 
d="M629 1288q-102 0 -171 -69t-69 -163t63 -243h372v-113h-332q17 -54 26 -111h306v-113h-300q-9 -185 -138 -306h677v-170h-910v166q77 56 125 138t52 172h-248v113h240q-9 57 -30 111h-210v113h162q-50 123 -50 234q0 173 125 292t310 119q145 0 253 -75t152 -186
l-163 -86q-68 177 -242 177z" />
    <glyph glyph-name="uni20A6" unicode="&#x20a6;" horiz-adv-x="1490" 
d="M385 878h163l-163 252v-252zM1107 556h-164l164 -253v253zM1107 660v113h-302l72 -113h230zM385 773v-113h301l-73 113h-228zM1436 556h-146v-556h-182l-355 556h-368v-556h-183v556h-147v104h147v113h-147v105h147v556h182l354 -556h369v556h183v-556h146v-105h-146
v-113h146v-104z" />
    <glyph glyph-name="peseta" unicode="&#x20a7;" horiz-adv-x="2424" 
d="M823 986q0 126 -71 204q-72 77 -195 77h-195v-559h195q123 0 195 76q71 76 71 202zM1542 161h435q81 0 133 41q52 42 52 110t-53 108q-54 40 -179 74q-289 77 -289 304q-1 124 93 206t245 81q192 0 327 -142l-94 -133q-123 115 -220 115q-71 -1 -118 -37t-47 -96t53 -98
q53 -40 167 -70q302 -78 302 -316q0 -136 -97 -222t-263 -86h-460q-186 0 -268 87q-81 87 -81 272v538h-171q-28 -158 -147 -257t-298 -99h-202v-541h-190v1434h392q186 0 306 -102t143 -271h167v290l185 17v-307h253v-164h-253v-540q-1 -102 41 -149t136 -47z" />
    <glyph glyph-name="uni20A8" unicode="&#x20a8;" horiz-adv-x="1975" 
d="M1712 293q0 132 -218 179q-330 73 -332 320q0 127 97 210t254 83q198 0 342 -142l-98 -130q-124 112 -230 112q-77 0 -127 -39q-50 -40 -50 -98t52 -102t151 -65q346 -74 347 -331q0 -138 -101 -226t-275 -89q-122 -1 -226 47t-170 130l105 130q112 -146 284 -146
q86 0 141 43q54 43 54 114zM887 987q0 129 -75 204t-208 76h-239v-559h239q133 0 208 75t75 204zM365 541v-541h-193v1434h438q218 0 345 -122t127 -308q0 -188 -91 -303t-252 -147l369 -554h-212l-359 541h-172z" />
    <glyph glyph-name="uni20A9" unicode="&#x20a9;" horiz-adv-x="2027" 
d="M506 560l80 -294l84 294h-164zM1358 560l84 -294l80 294h-164zM1014 1185l-88 -303h176zM447 777l30 -112h222l32 112h-284zM1296 777l32 -112h222l30 112h-284zM896 777l-33 -112h301l-32 112h-236zM1987 560h-281l-162 -560h-189l-161 560h-360l-161 -560h-190
l-161 560h-281v105h251l-33 112h-218v105h188l-157 552h199l148 -552h343l159 552h186l159 -552h343l147 552h200l-158 -552h189v-105h-219l-32 -112h251v-105z" />
    <glyph glyph-name="afii57636" unicode="&#x20aa;" horiz-adv-x="1774" 
d="M1603 1434v-1434h-516q-215 0 -359 141t-144 346v410h192v-410q0 -137 88 -229t223 -91h323v1267h193zM172 0v1434h515q214 0 359 -141t145 -347v-409h-193v409q0 137 -88 229t-223 92h-322v-1267h-193z" />
    <glyph glyph-name="dong" unicode="&#x20ab;" horiz-adv-x="1359" 
d="M368 -331v146h722v-146h-722zM649 142q111 0 203 58t140 152v354q-48 96 -140 154t-203 59q-162 1 -273 -113t-111 -276t111 -275t273 -113zM618 1085q226 0 374 -161v277h-354v129h354v165h187v-165h153v-129h-153v-1201h-187v137q-146 -162 -374 -162q-154 1 -279 77
t-194 202t-69 276t69 276t194 202t279 77z" />
    <glyph glyph-name="Euro" unicode="&#x20ac;" horiz-adv-x="1471" 
d="M993 905v-114h-640q-4 -33 -4 -74t4 -73h640v-115h-614q56 -172 200 -278q143 -106 341 -106t375 146l103 -145q-210 -171 -484 -171t-475 155t-263 399h-150v115h131q-3 34 -3 72t3 75h-131v114h151q62 245 263 399t467 154t473 -159l-97 -145q-192 134 -375 134
q-184 0 -328 -106t-201 -277h614z" />
    <glyph glyph-name="afii61248" unicode="&#x2105;" horiz-adv-x="2124" 
d="M590 0l699 1434h179l-699 -1434h-179zM1601 843q193 0 323 -126t130 -308q0 -183 -130 -309t-324 -126t-323 126q-130 126 -130 308t130 309q130 126 324 126zM1601 129q115 0 194 81t79 199q0 119 -79 199t-194 80t-195 -81t-79 -199q-1 -118 79 -198q80 -81 195 -81z
M524 590q-194 0 -324 126t-129 308q0 182 130 308q129 126 315 126t325 -119l-92 -136q-115 101 -227 101t-192 -81q-79 -81 -79 -199t79 -199t197 -81t226 108l104 -128q-139 -134 -333 -134z" />
    <glyph glyph-name="uni2109" unicode="&#x2109;" horiz-adv-x="1632" 
d="M44 1182q0 116 81 194t201 79q120 0 200 -79q81 -78 81 -194t-81 -195t-200 -79t-201 79q-81 79 -81 195zM182 1182q0 -60 41 -102t103 -42t102 42q41 42 41 102t-41 102t-102 41q-61 0 -103 -41q-41 -42 -41 -102zM722 0v1434h826v-167h-634v-462h582v-167h-582v-638
h-192z" />
    <glyph glyph-name="afii61289" unicode="&#x2113;" horiz-adv-x="1148" 
d="M863 1061v22q0 90 -53 149q-54 59 -132 59t-131 -59t-52 -149v-458q188 100 278 203t90 233zM681 -25q-169 0 -274 107t-105 268l-172 -67l-53 157l225 90v568q0 152 109 256t268 104t268 -104t109 -256v-52q0 -176 -141 -324t-420 -287v-89q0 -87 54 -145
q54 -59 130 -59t134 46t93 127l156 -93q-54 -115 -154 -181t-227 -66z" />
    <glyph glyph-name="afii61352" unicode="&#x2116;" horiz-adv-x="2255" 
d="M1476 1067q0 -98 66 -164t165 -66t165 66t66 164t-66 164t-165 66t-165 -66t-66 -164zM1292 1067q0 165 120 278t295 113t295 -113t120 -278t-120 -278t-295 -113t-295 113t-120 278zM2101 349h-788v161h788v-161zM172 0v1434h185l596 -1069v1069h187v-1434h-186
l-596 1069v-1069h-186z" />
    <glyph glyph-name="uni2117" unicode="&#x2117;" horiz-adv-x="1640" 
d="M191 717q-1 -175 83 -321t229 -230t317 -85q172 0 317 84q145 85 229 231t83 321q0 175 -83 321q-82 146 -228 230t-318 84t-317 -84t-229 -230t-83 -321zM79 717q0 153 58 290t157 236t236 157t290 58t290 -58q136 -58 236 -157t158 -236t58 -290t-58 -290
q-118 -278 -394 -394q-137 -58 -290 -58t-290 58q-277 117 -393 394q-58 137 -58 290zM1011 854q1 52 -39 86t-103 34h-141v-241h141q62 0 102 34t40 87zM873 600h-145v-276h-143v783h288q123 0 203 -71t80 -182q0 -110 -80 -182t-203 -72z" />
    <glyph glyph-name="uni2120" unicode="&#x2120;" horiz-adv-x="1601" 
d="M866 676h-145v758h133l245 -368l244 368h134v-758h-146v506l-186 -278h-92l-187 278v-506zM364 784q50 0 88 28t38 74q0 89 -152 122q-244 54 -244 225q0 94 71 153t184 60q153 0 257 -110l-84 -102q-98 91 -158 91t-90 -24q-31 -24 -30 -62q0 -81 138 -113t198 -91
t60 -153t-76 -156t-205 -62q-81 0 -157 36t-128 97l91 99q99 -112 199 -112z" />
    <glyph glyph-name="uni2121" unicode="&#x2121;" horiz-adv-x="2214" 
d="M1864 0v1495h179v-1495h-179zM451 0v1267h-388v167h961v-167h-387v-1267h-186zM1282 925q-100 0 -178 -86t-98 -212h539q-16 130 -89 214q-74 84 -174 84zM1291 136q146 0 262 163l130 -117q-142 -207 -388 -207q-211 1 -345 161t-135 393q0 233 134 395t333 161
q130 1 234 -71t161 -193t57 -267q0 -50 -8 -82h-727q11 -144 93 -240t199 -96z" />
    <glyph glyph-name="trademark" unicode="&#x2122;" horiz-adv-x="1577" 
d="M843 676h-146v758h133l245 -368l245 368h133v-758h-145v506l-187 -278h-92l-186 278v-506zM265 676v638h-203v120h554v-120h-202v-638h-149z" />
    <glyph glyph-name="Omega" unicode="&#x2126;" horiz-adv-x="1626" 
d="M1532 766q0 -376 -361 -596h345v-170h-584v164q198 98 301 252t103 335q0 225 -152 381t-371 156t-371 -156t-152 -381q0 -181 103 -335t301 -252v-164h-583v170h344q-361 221 -361 596q0 142 56 270q113 259 381 368q134 54 282 54t282 -54q270 -109 381 -368
q56 -128 56 -270z" />
    <glyph glyph-name="estimated" unicode="&#x212e;" horiz-adv-x="1646" 
d="M823 1353q-245 0 -424 -166v-419h848v419q-179 166 -424 166zM836 -25q-322 0 -539 215q-99 98 -157 236t-58 291t58 290q117 277 394 393q138 58 290 58t289 -58t237 -157t157 -236q58 -137 58 -290v-52h-1166v-420q181 -166 424 -164q156 0 291 71t222 194l91 -62
q-104 -146 -264 -228q-161 -82 -327 -81z" />
    <glyph glyph-name="onethird" unicode="&#x2153;" horiz-adv-x="1956" 
d="M1514 112q81 0 136 54t55 134t-55 134t-136 54q-30 0 -65 -11l-64 79l236 277h-365v138h570v-126l-217 -250q116 -19 189 -105t73 -206t-99 -214t-253 -95q-101 1 -183 47t-134 126l113 97q88 -133 199 -133zM547 0l700 1434h163l-700 -1434h-163zM546 1434v-971h-166
v802l-172 -94l-65 122l261 141h142z" />
    <glyph glyph-name="twothirds" unicode="&#x2154;" horiz-adv-x="1956" 
d="M1514 112q81 0 136 54t55 134t-55 134t-136 54q-30 0 -65 -11l-64 79l236 277h-365v138h570v-126l-217 -250q116 -19 189 -105t73 -206t-99 -214t-253 -95q-101 1 -183 47t-134 126l113 97q88 -133 199 -133zM547 0l700 1434h163l-700 -1434h-163zM700 599v-136h-605v121
l346 380q103 114 103 210q0 64 -42 106t-110 42q-123 0 -170 -151l-143 56q29 111 111 171t212 60q128 0 218 -79t91 -205q1 -78 -33 -146t-108 -149l-255 -280h385z" />
    <glyph glyph-name="onefifth" unicode="&#x2155;" horiz-adv-x="1956" 
d="M1524 -27q-100 0 -182 45t-135 126l117 95q85 -129 197 -129q81 0 135 54t53 134q0 81 -54 135t-134 54q-44 0 -83 -22t-62 -56l-121 15l60 545h525v-139h-376l-29 -238q49 29 115 29q134 -1 230 -89t96 -232t-96 -235q-96 -92 -256 -92zM547 0l700 1434h163l-700 -1434
h-163zM546 1434v-971h-166v802l-172 -94l-65 122l261 141h142z" />
    <glyph glyph-name="twofifths" unicode="&#x2156;" horiz-adv-x="1956" 
d="M1524 -27q-100 0 -182 45t-135 126l117 95q85 -129 197 -129q81 0 135 54t53 134q0 81 -54 135t-134 54q-44 0 -83 -22t-62 -56l-121 15l60 545h525v-139h-376l-29 -238q49 29 115 29q134 -1 230 -89t96 -232t-96 -235q-96 -92 -256 -92zM547 0l700 1434h163l-700 -1434
h-163zM700 599v-136h-605v121l346 380q103 114 103 210q0 64 -42 106t-110 42q-123 0 -170 -151l-143 56q29 111 111 171t212 60q128 0 218 -79t91 -205q1 -78 -33 -146t-108 -149l-255 -280h385z" />
    <glyph glyph-name="threefifths" unicode="&#x2157;" horiz-adv-x="1956" 
d="M1524 -27q-100 0 -182 45t-135 126l117 95q85 -129 197 -129q81 0 135 54t53 134q0 81 -54 135t-134 54q-44 0 -83 -22t-62 -56l-121 15l60 545h525v-139h-376l-29 -238q49 29 115 29q134 -1 230 -89t96 -232t-96 -235q-96 -92 -256 -92zM547 0l700 1434h163l-700 -1434
h-163zM559 764q0 80 -55 133q-55 54 -135 54q-30 0 -66 -11l-63 79l235 276h-364v139h569v-126l-217 -250q116 -18 189 -104t73 -206t-99 -216q-99 -94 -253 -94q-101 0 -183 46t-134 127l113 97q88 -133 200 -134q81 0 135 55t55 135z" />
    <glyph glyph-name="fourfifths" unicode="&#x2158;" horiz-adv-x="1956" 
d="M1524 -27q-100 0 -182 45t-135 126l117 95q85 -129 197 -129q81 0 135 54t53 134q0 81 -54 135t-134 54q-44 0 -83 -22t-62 -56l-121 15l60 545h525v-139h-376l-29 -238q49 29 115 29q134 -1 230 -89t96 -232t-96 -235q-96 -92 -256 -92zM547 0l700 1434h163l-700 -1434
h-163zM475 796v376l-252 -376h252zM40 654v129l443 651h158v-637h112v-143h-112v-191h-166v191h-435z" />
    <glyph glyph-name="onesixth" unicode="&#x2159;" horiz-adv-x="1956" 
d="M1734 302q0 80 -54 136q-54 55 -131 55t-131 -55q-54 -56 -53 -136q0 -80 54 -135q55 -55 131 -55t130 55t54 135zM1550 -25q-142 -1 -247 93q-104 94 -104 235q0 94 49 170l322 498h176l-228 -354q20 9 48 10q136 0 235 -92t99 -232t-104 -234t-246 -94zM547 0l700 1434
h163l-700 -1434h-163zM546 1434v-971h-166v802l-172 -94l-65 122l261 141h142z" />
    <glyph glyph-name="fivesixths" unicode="&#x215a;" horiz-adv-x="1956" 
d="M1734 302q0 80 -54 136q-54 55 -131 55t-131 -55q-54 -56 -53 -136q0 -80 54 -135q55 -55 131 -55t130 55t54 135zM1550 -25q-142 -1 -247 93q-104 94 -104 235q0 94 49 170l322 498h176l-228 -354q20 9 48 10q136 0 235 -92t99 -232t-104 -234t-246 -94zM547 0l700 1434
h163l-700 -1434h-163zM378 438q-100 0 -182 45t-135 126l117 94q85 -129 197 -129q81 0 135 54t53 135q0 81 -54 135t-134 54q-44 0 -83 -22t-62 -57l-120 16l59 545h525v-139h-376l-29 -238q49 29 115 28q134 0 230 -88q96 -87 96 -231t-96 -236t-256 -92z" />
    <glyph glyph-name="oneeighth" unicode="&#x215b;" horiz-adv-x="1956" 
d="M1551 593q57 0 97 39q39 39 39 94t-39 93q-38 38 -96 38t-97 -38t-39 -93t39 -94t96 -39zM1551 460q-75 0 -127 -51t-52 -125t51 -124t128 -50t128 50t51 124t-51 125q-52 51 -128 51zM1551 -27q-146 0 -246 89t-100 221q0 80 45 147t121 102q-53 31 -85 83t-32 113
q0 112 84 188t213 77q129 0 213 -77t84 -188q0 -60 -31 -113q-32 -52 -85 -83q76 -36 120 -102t45 -147q0 -132 -100 -221t-246 -89zM547 0l700 1434h163l-700 -1434h-163zM546 1434v-971h-166v802l-172 -94l-65 122l261 141h142z" />
    <glyph glyph-name="threeeighths" unicode="&#x215c;" horiz-adv-x="1956" 
d="M1551 593q57 0 97 39q39 39 39 94t-39 93q-38 38 -96 38t-97 -38t-39 -93t39 -94t96 -39zM1551 460q-75 0 -127 -51t-52 -125t51 -124t128 -50t128 50t51 124t-51 125q-52 51 -128 51zM1551 -27q-146 0 -246 89t-100 221q0 80 45 147t121 102q-53 31 -85 83t-32 113
q0 112 84 188t213 77q129 0 213 -77t84 -188q0 -60 -31 -113q-32 -52 -85 -83q76 -36 120 -102t45 -147q0 -132 -100 -221t-246 -89zM547 0l700 1434h163l-700 -1434h-163zM559 764q0 80 -55 133q-55 54 -135 54q-30 0 -66 -11l-63 79l235 276h-364v139h569v-126l-217 -250
q116 -18 189 -104t73 -206t-99 -216q-99 -94 -253 -94q-101 0 -183 46t-134 127l113 97q88 -133 200 -134q81 0 135 55t55 135z" />
    <glyph glyph-name="fiveeighths" unicode="&#x215d;" horiz-adv-x="1956" 
d="M1551 593q57 0 97 39q39 39 39 94t-39 93q-38 38 -96 38t-97 -38t-39 -93t39 -94t96 -39zM1551 460q-75 0 -127 -51t-52 -125t51 -124t128 -50t128 50t51 124t-51 125q-52 51 -128 51zM1551 -27q-146 0 -246 89t-100 221q0 80 45 147t121 102q-53 31 -85 83t-32 113
q0 112 84 188t213 77q129 0 213 -77t84 -188q0 -60 -31 -113q-32 -52 -85 -83q76 -36 120 -102t45 -147q0 -132 -100 -221t-246 -89zM547 0l700 1434h163l-700 -1434h-163zM378 438q-100 0 -182 45t-135 126l117 94q85 -129 197 -129q81 0 135 54t53 135q0 81 -54 135
t-134 54q-44 0 -83 -22t-62 -57l-120 16l59 545h525v-139h-376l-29 -238q49 29 115 28q134 0 230 -88q96 -87 96 -231t-96 -236t-256 -92z" />
    <glyph glyph-name="seveneighths" unicode="&#x215e;" horiz-adv-x="1956" 
d="M1551 593q57 0 97 39q39 39 39 94t-39 93q-38 38 -96 38t-97 -38t-39 -93t39 -94t96 -39zM1551 460q-75 0 -127 -51t-52 -125t51 -124t128 -50t128 50t51 124t-51 125q-52 51 -128 51zM1551 -27q-146 0 -246 89t-100 221q0 80 45 147t121 102q-53 31 -85 83t-32 113
q0 112 84 188t213 77q129 0 213 -77t84 -188q0 -60 -31 -113q-32 -52 -85 -83q76 -36 120 -102t45 -147q0 -132 -100 -221t-246 -89zM547 0l700 1434h163l-700 -1434h-163zM95 1434h624v-121l-357 -850h-186l354 832h-435v139z" />
    <glyph glyph-name="uni215F" unicode="&#x215f;" horiz-adv-x="1956" 
d="M547 0l700 1434h163l-700 -1434h-163zM546 1434v-971h-166v802l-172 -94l-65 122l261 141h142z" />
    <glyph glyph-name="arrowleft" unicode="&#x2190;" horiz-adv-x="1761" 
d="M1688 756v-152h-1221v-211l-393 287l393 287v-211h1221z" />
    <glyph glyph-name="arrowup" unicode="&#x2191;" horiz-adv-x="1761" 
d="M956 -78h-151v1221h-211l287 393l286 -393h-211v-1221z" />
    <glyph glyph-name="arrowright" unicode="&#x2192;" horiz-adv-x="1761" 
d="M74 604v152h1220v211l394 -287l-394 -287v211h-1220z" />
    <glyph glyph-name="arrowdown" unicode="&#x2193;" horiz-adv-x="1761" 
d="M805 1536h151v-1221h211l-286 -393l-287 393h211v1221z" />
    <glyph glyph-name="arrowboth" unicode="&#x2194;" horiz-adv-x="1761" 
d="M467 604v-211l-393 287l393 287v-211h827v211l394 -287l-394 -287v211h-827z" />
    <glyph glyph-name="arrowupdn" unicode="&#x2195;" horiz-adv-x="1761" 
d="M956 315h211l-286 -393l-287 393h211v828h-211l287 393l286 -393h-211v-828z" />
    <glyph glyph-name="arrowupdnbse" unicode="&#x21a8;" horiz-adv-x="1761" 
d="M956 315h211l-272 -372h254v-123h-537v123h252l-270 372h211v828h-211l287 393l286 -393h-211v-828z" />
    <glyph glyph-name="partialdiff" unicode="&#x2202;" horiz-adv-x="1248" 
d="M594 765q-138 0 -232 -90q-94 -89 -94 -221t94 -222t235 -90q140 0 237 109q96 109 119 328q-150 186 -359 186zM572 932q227 0 385 -169q-14 329 -177 461q-84 68 -205 67q-171 0 -304 -135l-82 148q155 155 386 154q181 0 313 -94q265 -189 265 -651q0 -346 -156 -542
t-403 -196q-142 -1 -262 63t-188 174t-68 242t70 242t186 173t240 63z" />
    <glyph glyph-name="Delta" unicode="&#x2206;" horiz-adv-x="1394" 
d="M697 1221l-383 -1054h766zM805 1434l541 -1434h-1297l541 1434h215z" />
    <glyph glyph-name="product" unicode="&#x220f;" horiz-adv-x="1381" 
d="M1209 1516v-1743h-192v1576h-652v-1576h-193v1743h1037z" />
    <glyph glyph-name="summation" unicode="&#x2211;" horiz-adv-x="1330" 
d="M129 1516h1072v-167h-839l505 -651v-86l-503 -672h837v-167h-1072v160l545 722l-545 700v161z" />
    <glyph glyph-name="minus" unicode="&#x2212;" horiz-adv-x="1175" 
d="M1054 600h-932v161h932v-161z" />
    <glyph glyph-name="uni2215" unicode="&#x2215;" horiz-adv-x="336" 
d="M-263 0l700 1434h163l-700 -1434h-163z" />
    <glyph glyph-name="uni2219" unicode="&#x2219;" horiz-adv-x="608" 
d="M176 669q0 54 37 91t91 37t91 -37t37 -91t-37 -91t-91 -37t-91 37t-37 91z" />
    <glyph glyph-name="radical" unicode="&#x221a;" horiz-adv-x="1143" 
d="M608 0h-202l-358 768h208l236 -530l404 1339h200z" />
    <glyph glyph-name="infinity" unicode="&#x221e;" horiz-adv-x="1554" 
d="M77 679q0 131 95 218t234 87q186 0 371 -203q185 203 372 203q138 0 233 -87q96 -87 96 -218t-96 -218t-233 -87q-187 0 -372 203q-187 -205 -371 -203q-138 0 -234 87q-95 87 -95 218zM1146 517q72 0 120 46q48 47 48 117t-49 116t-120 45t-129 -37t-138 -125
q80 -89 138 -125t130 -37zM410 517q72 1 130 37t137 125q-79 89 -138 125t-130 36t-120 -45q-49 -47 -49 -117t50 -116q48 -46 120 -45z" />
    <glyph glyph-name="orthogonal" unicode="&#x221f;" horiz-adv-x="1246" 
d="M1198 167v-167h-1029v1178h192v-1011h837z" />
    <glyph glyph-name="intersection" unicode="&#x2229;" horiz-adv-x="1306" 
d="M653 1264q141 0 257 -67t183 -183t66 -255v-759h-192v743q0 151 -90 252q-89 101 -223 101t-224 -100q-90 -102 -90 -253v-743h-193v759q0 139 67 255t183 183t256 67z" />
    <glyph glyph-name="integral" unicode="&#x222b;" horiz-adv-x="876" 
d="M531 1205v-1310q0 -187 -93 -279t-286 -91q-53 0 -109 8v161q43 -5 93 -5q112 0 160 51t49 157v1310q0 187 93 279t287 91q53 0 109 -8v-161q-43 5 -94 5q-112 1 -160 -51t-49 -157z" />
    <glyph glyph-name="approxequal" unicode="&#x2248;" horiz-adv-x="1175" 
d="M1109 1007q-53 -308 -307 -308q-130 0 -243 112t-178 114q-109 0 -139 -185l-176 44q52 308 306 308q130 0 248 -115q38 -37 58 -55q60 -54 116 -56q109 0 139 185zM1109 556q-53 -307 -307 -307q-130 1 -244 113t-177 112q-109 0 -139 -184l-176 44q52 307 306 307
q130 0 248 -115q38 -37 58 -55q61 -55 116 -55q109 0 139 184z" />
    <glyph glyph-name="notequal" unicode="&#x2260;" horiz-adv-x="1175" 
d="M1054 369h-548l-153 -293h-149l152 293h-234v160h318l158 302h-476v161h560l140 268h150l-141 -268h223v-161h-306l-158 -302h464v-160z" />
    <glyph glyph-name="equivalence" unicode="&#x2261;" horiz-adv-x="1175" 
d="M1054 266h-932v161h932v-161zM1054 934h-932v161h932v-161zM1054 600h-932v161h932v-161z" />
    <glyph glyph-name="lessequal" unicode="&#x2264;" horiz-adv-x="1175" 
d="M1038 496v-178l-909 400v145l909 400v-178l-677 -294zM1054 0h-932v161h932v-161z" />
    <glyph glyph-name="greaterequal" unicode="&#x2265;" horiz-adv-x="1175" 
d="M137 318v178l677 295l-677 294v178l910 -400v-145zM1054 0h-932v161h932v-161z" />
    <glyph glyph-name="house" unicode="&#x2302;" horiz-adv-x="1305" 
d="M1161 0h-1017v713l508 590l509 -590v-713zM337 167h632v484l-317 371l-315 -371v-484z" />
    <glyph glyph-name="revlogicalnot" unicode="&#x2310;" horiz-adv-x="1175" 
d="M308 600v-358h-186v519h932v-161h-746z" />
    <glyph glyph-name="uni2318" unicode="&#x2318;" horiz-adv-x="1650" 
d="M1252 394h-143v-141q0 -61 41 -101q40 -40 102 -40t103 40q40 40 41 101q0 61 -41 101t-103 40zM542 530v263h-144q-124 -1 -210 79t-86 198t86 198t210 80t211 -80q86 -80 85 -198v-141h262v141q0 118 86 198t210 80t211 -80q85 -80 85 -198t-86 -198t-210 -79h-143
v-263h143q125 0 211 -80q85 -80 85 -197q0 -118 -86 -198t-210 -80t-210 80t-86 198v141h-262v-141q0 -118 -86 -198t-210 -80t-210 80t-86 198t86 198t210 79h144zM542 394h-144q-62 0 -102 -40t-41 -101q0 -61 40 -101t102 -40t104 40q41 40 41 101v141zM1109 929h143
q62 0 103 40q40 40 41 101q0 61 -40 101t-103 40q-62 0 -103 -40t-41 -101v-141zM398 929h144v141q0 61 -41 101t-103 40t-102 -40t-41 -101q1 -61 41 -101t102 -40zM694 530h262v263h-262v-263z" />
    <glyph glyph-name="lozenge" unicode="&#x25ca;" horiz-adv-x="1169" 
d="M876 618l-291 568l-291 -568l291 -567zM1074 618l-489 -940l-490 940l490 941z" />
    <glyph glyph-name="H18533" unicode="&#x25cf;" horiz-adv-x="2048" 
d="M332 668q0 140 55 268t148 221t221 148t268 55t268 -55t221 -148t148 -221t55 -268t-55 -268t-148 -222q-93 -93 -221 -148t-268 -55t-268 55q-258 111 -369 369q-55 129 -55 269z" />
    <glyph glyph-name="commaaccent" horiz-adv-x="851" 
d="M408 -469h-170l159 350h189z" />
    <glyph glyph-name="zero.tnum" horiz-adv-x="1136" 
d="M273 717q1 -171 31 -295t97 -199t167 -75t168 74q128 141 127 494q0 353 -127 495q-68 74 -168 74t-167 -74q-67 -75 -97 -199t-31 -295zM84 717q0 323 119 527q58 102 152 158q93 56 213 56t214 -57t152 -157q117 -203 118 -526t-118 -528q-58 -101 -152 -158t-214 -57
t-214 57q-174 106 -240 392q-30 134 -30 293z" />
    <glyph glyph-name="one.tnum" horiz-adv-x="956" 
d="M638 1434v-1434h-189v1243l-272 -148l-80 140l367 199h174z" />
    <glyph glyph-name="two.tnum" horiz-adv-x="1055" 
d="M950 164v-164h-850v156l513 565q87 96 125 172q37 77 37 171t-72 162t-185 68q-205 0 -278 -218l-159 69q42 143 156 228t295 85t307 -112t126 -295q0 -115 -48 -213t-156 -218l-412 -456h601z" />
    <glyph glyph-name="three.tnum" horiz-adv-x="1113" 
d="M825 444q0 128 -91 216q-91 89 -226 90q-41 0 -84 -14l-75 95l369 436h-567v167h797v-167l-342 -396q182 -13 296 -138t113 -303q0 -178 -135 -314q-140 -140 -381 -140q-127 0 -240 60q-113 62 -188 176l130 109q120 -181 307 -182q135 1 226 89t91 216z" />
    <glyph glyph-name="four.tnum" horiz-adv-x="1179" 
d="M728 462v660l-444 -660h444zM74 291v171l654 972h190v-970h168v-173h-168v-291h-190v291h-654z" />
    <glyph glyph-name="five.tnum" horiz-adv-x="1123" 
d="M526 -25q-139 1 -254 61t-188 172l135 110q119 -179 301 -179q135 0 225 88q90 87 90 217t-90 218t-225 88q-75 0 -137 -32t-96 -83l-133 16l86 783h731v-167h-563l-51 -425q81 68 207 68t229 -55t167 -162t64 -244q0 -209 -137 -341t-361 -133z" />
    <glyph glyph-name="six.tnum" horiz-adv-x="1191" 
d="M903 446q0 130 -89 220q-90 89 -218 89t-218 -89t-90 -219t90 -219t218 -89t218 89q89 88 89 218zM1093 446q0 -132 -70 -242t-183 -169t-244 -59t-245 58q-113 60 -183 170t-70 245t71 245l475 740h202l-356 -550q52 32 131 31q193 1 333 -133t139 -336z" />
    <glyph glyph-name="seven.tnum" horiz-adv-x="995" 
d="M63 1434h878v-160l-534 -1274h-213l534 1267h-665v167z" />
    <glyph glyph-name="eight.tnum" horiz-adv-x="1173" 
d="M587 861q97 0 165 65q68 66 68 154t-68 151t-165 63t-165 -63t-68 -152t68 -153t165 -65zM587 703q-127 -1 -214 -83t-87 -199t88 -199q86 -82 213 -82t213 82t87 199q-1 117 -87 199t-213 83zM587 -25q-207 -1 -348 127t-142 316q0 129 73 229t200 141q-87 36 -143 118
t-56 177q0 158 118 267q117 108 297 108t298 -108t118 -267q0 -95 -56 -177t-142 -118q126 -41 199 -141t73 -229q0 -187 -141 -315t-348 -128z" />
    <glyph glyph-name="nine.tnum" horiz-adv-x="1191" 
d="M596 1294q-128 0 -218 -89t-89 -219q-1 -130 89 -218q90 -89 218 -89t218 89q90 88 90 218t-89 219q-91 89 -219 89zM571 518q-193 0 -333 134t-139 335q0 133 70 243t183 169t244 59t245 -59q113 -59 183 -169t70 -246t-71 -245l-475 -739h-202l355 550
q-52 -32 -130 -32z" />
    <glyph glyph-name="parenleft.case" horiz-adv-x="850" 
d="M246 717q0 272 100 522t279 430l132 -101q-153 -167 -236 -390t-83 -461t83 -461t236 -390l-132 -102q-179 180 -279 430t-100 523z" />
    <glyph glyph-name="parenright.case" horiz-adv-x="850" 
d="M605 717q0 -272 -100 -522t-279 -431l-132 102q153 167 236 390t83 461t-83 461t-236 390l132 101q179 -180 279 -430t100 -522z" />
    <glyph glyph-name="hyphen.case" horiz-adv-x="823" 
d="M702 641h-581v176h581v-176z" />
    <glyph glyph-name="at.case" horiz-adv-x="1966" 
d="M1236 441q-110 -146 -300 -146q-100 0 -194 59t-148 159q-53 100 -52 218q0 118 52 218q53 100 148 159t210 59q162 0 273 -134v114h157v-629q13 -36 45 -58t70 -23q98 0 166 94q69 95 69 249t-60 286q-121 265 -402 375q-138 55 -290 55t-290 -59q-279 -119 -397 -398
q-59 -140 -59 -296q0 -157 59 -295t161 -238t245 -160q143 -59 306 -59q278 0 497 156l64 -132q-266 -167 -561 -167q-196 0 -369 69q-347 138 -489 472q-71 165 -71 353t72 356q142 333 481 472q167 68 355 68t356 -65q169 -65 290 -177t191 -270t69 -339q0 -221 -116 -357
t-296 -135q-75 0 -142 41t-100 105zM977 437q83 0 149 46t99 122v252q-33 76 -100 122t-148 46q-117 0 -196 -85t-79 -209t78 -209q80 -85 197 -85z" />
    <glyph glyph-name="bracketleft.case" horiz-adv-x="850" 
d="M240 -195v1823h560v-167h-368v-1489h368v-167h-560z" />
    <glyph glyph-name="bracketright.case" horiz-adv-x="850" 
d="M611 1628v-1823h-560v167h368v1489h-368v167h560z" />
    <glyph glyph-name="braceleft.case" horiz-adv-x="850" 
d="M153 634v166q95 0 151 52t55 141v314q0 137 98 229t246 92h101v-167h-88q-72 0 -118 -47t-46 -120v-328q0 -198 -187 -249q187 -51 187 -249v-329q0 -73 46 -120t118 -47h88v-167h-101q-148 0 -246 93t-98 229v313q0 90 -55 142q-56 52 -151 52z" />
    <glyph glyph-name="braceright.case" horiz-adv-x="850" 
d="M698 800v-166q-95 0 -151 -52t-55 -142v-313q0 -136 -98 -229t-247 -93h-100v167h88q72 0 118 47t46 120v329q0 198 187 249q-187 51 -187 249v328q0 73 -46 120t-118 47h-88v167h100q149 0 247 -93t98 -228v-314q0 -90 55 -142q56 -51 151 -51z" />
    <glyph glyph-name="exclamdown.case" horiz-adv-x="632" 
d="M189 1331q1 55 37 91t90 36t90 -36t37 -90q0 -54 -36 -91q-37 -37 -91 -37t-90 36t-37 91zM220 0v1030h193v-1030h-193z" />
    <glyph glyph-name="guillemotleft.case" horiz-adv-x="1301" 
d="M609 639v98l567 356v-173l-377 -232l377 -231v-173zM108 639v98l566 356v-173l-377 -232l377 -231v-173z" />
    <glyph glyph-name="periodcentered.case" horiz-adv-x="608" 
d="M176 718q0 54 37 91t91 37t91 -37t37 -91t-37 -91t-91 -37t-91 37t-37 91z" />
    <glyph glyph-name="guillemotright.case" horiz-adv-x="1301" 
d="M692 737v-98l-566 -355v173l377 231l-377 232v173zM1194 737v-98l-566 -355v173l377 231l-377 232v173z" />
    <glyph glyph-name="questiondown.case" horiz-adv-x="1119" 
d="M758 1331q0 -54 -36 -90q-36 -37 -91 -37t-91 36t-36 91t36 91t90 36t92 -36q36 -36 36 -91zM729 1025v-362q-187 0 -297 -79t-110 -191t88 -180t235 -68t290 126l101 -139q-184 -157 -423 -157q-141 -1 -254 57t-173 151t-59 200q0 151 112 263t298 138v241h192z" />
    <glyph glyph-name="endash.case" horiz-adv-x="1024" 
d="M1024 641h-1024v176h1024v-176z" />
    <glyph glyph-name="emdash.case" horiz-adv-x="2048" 
d="M2048 641h-2048v176h2048v-176z" />
    <glyph glyph-name="bullet.case" horiz-adv-x="819" 
d="M410 476q-105 0 -181 74q-75 74 -75 178t75 180q75 74 181 74t180 -74q75 -74 75 -179t-75 -179t-180 -74z" />
    <glyph glyph-name="guilsinglleft.case" horiz-adv-x="799" 
d="M108 639v98l566 356v-173l-377 -232l377 -231v-173z" />
    <glyph glyph-name="guilsinglright.case" horiz-adv-x="799" 
d="M692 737v-98l-566 -355v173l377 231l-377 232v173z" />
    <glyph glyph-name="zero.numerator" 
d="M226 948q0 -168 45 -268t135 -100t134 100q45 100 45 268t-45 268t-134 100q-88 0 -134 -100t-46 -268zM406 1458q112 0 190 -69q154 -135 154 -441t-154 -441q-78 -69 -190 -69t-191 69q-154 135 -154 442t154 440q79 69 191 69z" />
    <glyph glyph-name="one.numerator" 
d="M546 1434v-971h-166v802l-172 -94l-65 122l261 141h142z" />
    <glyph glyph-name="two.numerator" 
d="M700 599v-136h-605v121l346 380q103 114 103 210q0 64 -42 106t-110 42q-123 0 -170 -151l-143 56q29 111 111 171t212 60q128 0 218 -79t91 -205q1 -78 -33 -146t-108 -149l-255 -280h385z" />
    <glyph glyph-name="three.numerator" 
d="M559 764q0 80 -55 133q-55 54 -135 54q-30 0 -66 -11l-63 79l235 276h-364v139h569v-126l-217 -250q116 -18 189 -104t73 -206t-99 -216q-99 -94 -253 -94q-101 0 -183 46t-134 127l113 97q88 -133 200 -134q81 0 135 55t55 135z" />
    <glyph glyph-name="four.numerator" 
d="M475 796v376l-252 -376h252zM40 654v129l443 651h158v-637h112v-143h-112v-191h-166v191h-435z" />
    <glyph glyph-name="five.numerator" 
d="M378 438q-100 0 -182 45t-135 126l117 94q85 -129 197 -129q81 0 135 54t53 135q0 81 -54 135t-134 54q-44 0 -83 -22t-62 -57l-120 16l59 545h525v-139h-376l-29 -238q49 29 115 28q134 0 230 -88q96 -87 96 -231t-96 -236t-256 -92z" />
    <glyph glyph-name="six.numerator" 
d="M589 766q0 80 -54 135t-131 55q-76 0 -130 -56q-54 -54 -54 -134t54 -136t130 -56t131 56q54 56 54 136zM405 438q-142 0 -247 93q-104 93 -104 235q0 94 49 170l322 498h176l-228 -354q20 9 48 10q136 0 235 -92q100 -92 100 -232t-104 -234t-247 -94z" />
    <glyph glyph-name="seven.numerator" 
d="M95 1434h624v-121l-357 -850h-186l354 832h-435v139z" />
    <glyph glyph-name="eight.numerator" 
d="M406 1058q57 0 96 39t39 94t-39 93t-96 38q-56 0 -96 -38t-40 -93t40 -94t96 -39zM406 925q-76 1 -128 -51t-52 -125t52 -124t128 -51q77 0 128 51t51 125q1 74 -51 124q-52 51 -128 51zM406 438q-146 0 -247 89q-100 89 -100 221q0 80 45 146t121 103q-53 31 -85 83
t-31 113q0 113 84 189q85 76 213 76t212 -77t84 -188q0 -60 -31 -113q-32 -52 -85 -83q76 -36 121 -103t45 -146q0 -132 -100 -221t-246 -89z" />
    <glyph glyph-name="nine.numerator" 
d="M222 1130q0 -80 54 -134t131 -55q77 0 131 55t53 135q0 79 -54 135q-55 56 -131 56t-130 -56t-54 -136zM390 807q-136 0 -235 92q-99 91 -99 231t104 234t246 94t246 -93t105 -235q0 -94 -49 -169l-322 -498h-176l228 353q-20 -9 -48 -9z" />
    <glyph glyph-name="zero.denominator" 
d="M226 485q0 -167 45 -267t135 -100t134 100q45 100 45 268t-45 267q-45 100 -134 100q-88 0 -134 -100t-46 -268zM406 995q112 0 190 -69q154 -135 154 -442t-154 -439q-78 -69 -190 -69t-191 68q-154 135 -154 443q0 307 154 439q79 69 191 69z" />
    <glyph glyph-name="one.denominator" 
d="M546 971v-971h-166v802l-172 -93l-65 121l261 141h142z" />
    <glyph glyph-name="two.denominator" 
d="M700 136v-136h-605v121l346 380q103 114 103 210q0 65 -42 107t-110 41q-123 0 -170 -150l-143 55q29 110 111 170t212 61q128 0 218 -79t91 -205q1 -78 -33 -146t-108 -149l-255 -280h385z" />
    <glyph glyph-name="three.denominator" 
d="M369 112q81 0 135 54t55 134q0 80 -55 134t-135 54q-30 0 -66 -11l-63 79l235 277h-364v138h569v-126l-217 -250q116 -19 189 -105t73 -206t-99 -214t-253 -95q-101 1 -183 47t-134 126l113 97q88 -133 200 -133z" />
    <glyph glyph-name="four.denominator" 
d="M475 333v377l-252 -377h252zM40 191v130l443 650h158v-637h112v-143h-112v-191h-166v191h-435z" />
    <glyph glyph-name="five.denominator" 
d="M378 -25q-100 0 -182 45t-135 126l117 95q85 -129 197 -129q81 0 135 54t53 134q0 81 -54 135t-134 54q-44 0 -83 -22t-62 -56l-120 15l59 545h525v-138h-376l-29 -239q49 29 115 29q134 0 230 -88t96 -232t-96 -236t-256 -92z" />
    <glyph glyph-name="six.denominator" 
d="M589 302q0 80 -54 136q-54 55 -131 55q-76 0 -130 -55q-54 -56 -54 -136t54 -135t130 -55t131 55q54 55 54 135zM405 -25q-143 -1 -247 93t-104 235q0 94 49 170l322 498h176l-228 -354q20 9 48 10q136 0 235 -92q100 -92 100 -232t-104 -234t-247 -94z" />
    <glyph glyph-name="seven.denominator" 
d="M95 971h624v-121l-357 -850h-186l354 833h-435v138z" />
    <glyph glyph-name="eight.denominator" 
d="M406 595q57 0 96 39t39 94t-39 93t-96 38q-56 0 -96 -38t-40 -93t40 -94t96 -39zM406 462q-76 0 -128 -51t-52 -125t52 -124t128 -50q77 0 128 50t51 124q1 74 -51 125t-128 51zM406 -25q-146 0 -247 89q-100 89 -100 221q0 80 45 147t121 103q-53 31 -85 83t-31 112
q0 112 84 189q85 77 213 77t212 -78q84 -76 84 -188q0 -60 -31 -113q-32 -52 -85 -82q76 -36 121 -103t45 -147q0 -132 -100 -221t-246 -89z" />
    <glyph glyph-name="nine.denominator" 
d="M222 668q0 -80 54 -135t131 -55t131 55t53 135q0 80 -54 136q-55 55 -131 55t-130 -55q-54 -56 -54 -136zM390 344q-136 0 -235 92t-100 232q1 140 105 234t246 94t246 -94q104 -93 105 -234q0 -94 -49 -170l-322 -498h-176l228 353q-20 -9 -48 -9z" />
    <glyph glyph-name="dollar_osf" horiz-adv-x="1062" 
d="M303 900q0 -116 181 -177v330q-84 -9 -132 -51t-49 -102zM801 324q0 126 -189 187v-364q86 15 138 63t51 114zM484 543q-368 83 -368 352q0 134 101 225t267 102v158h128v-165q178 -26 317 -154l-112 -131q-104 90 -205 116v-356q378 -91 376 -365q0 -141 -101 -235
t-275 -110v-164h-128v162q-117 10 -222 63t-178 137l120 124q120 -133 280 -158v399z" />
    <glyph glyph-name="zero_osf" horiz-adv-x="1011" 
d="M257 550q0 -189 65 -299t184 -110t184 110t65 299t-65 298t-184 109t-184 -109t-65 -298zM69 550q0 259 115 417q115 157 322 157t322 -158t115 -416q0 -259 -115 -417t-322 -158t-322 158t-115 417z" />
    <glyph glyph-name="one_osf" horiz-adv-x="861" 
d="M582 1100v-1100h-190v907l-246 -123l-71 149l340 167h167z" />
    <glyph glyph-name="two_osf" horiz-adv-x="940" 
d="M460 1124q175 0 289 -90t114 -235q-1 -92 -45 -171t-138 -167l-316 -295h487v-166h-768v151l454 418q137 128 137 229q0 72 -60 116t-154 43q-181 0 -242 -165l-160 64q99 268 402 268z" />
    <glyph glyph-name="three_osf" horiz-adv-x="1001" 
d="M730 197q0 111 -79 189t-195 78q-42 0 -78 -13l-77 95l324 385h-498v169h732v-162l-298 -347q160 -23 259 -138q100 -115 100 -275t-124 -284q-129 -130 -348 -130q-114 0 -220 59t-176 167l131 108q111 -169 273 -169q118 0 196 78t78 190z" />
    <glyph glyph-name="four_osf" horiz-adv-x="1061" 
d="M645 220v567l-372 -567h372zM59 54v160l590 886h185v-880h150v-166h-150v-265h-189v265h-586z" />
    <glyph glyph-name="five_osf" horiz-adv-x="1010" 
d="M472 -236q-127 0 -233 58t-176 164l138 110q109 -166 266 -166q117 0 194 76t77 190t-77 190t-194 76q-65 0 -119 -29t-85 -75l-135 17l80 725h672v-167h-504l-42 -361q72 53 174 54q174 0 296 -118t122 -308q0 -192 -124 -314q-125 -122 -330 -122z" />
    <glyph glyph-name="six_osf" horiz-adv-x="1072" 
d="M802 411q0 114 -78 191t-188 77q-111 0 -188 -78q-78 -78 -78 -191t78 -191t188 -78t188 78t78 192zM990 411q0 -123 -63 -224t-167 -156t-222 -55q-120 0 -224 54q-104 56 -169 157q-63 101 -63 225t64 227l429 674h203l-314 -491q41 20 94 21q115 -1 214 -55
q98 -54 158 -154t60 -223z" />
    <glyph glyph-name="seven_osf" horiz-adv-x="896" 
d="M49 1100h804v-153l-481 -1158h-211l479 1144h-591v167z" />
    <glyph glyph-name="eight_osf" horiz-adv-x="1054" 
d="M527 795q83 0 142 56q58 57 58 134t-58 132q-57 55 -141 55t-142 -56q-58 -54 -58 -131t58 -133t141 -57zM527 635q-109 0 -183 -73q-74 -72 -76 -174q0 -102 76 -175t184 -73t183 73t75 175t-75 174q-75 73 -184 73zM527 -25q-188 1 -318 119t-129 291q0 113 62 204
t167 134q-72 37 -118 110t-46 155q0 146 109 248t273 101q164 0 273 -101t109 -248q0 -82 -46 -155t-118 -110q105 -43 167 -134t63 -204q0 -173 -130 -291t-318 -119z" />
    <glyph glyph-name="nine_osf" horiz-adv-x="1072" 
d="M537 420q111 0 187 78t78 191q0 113 -78 191t-188 78t-188 -78t-78 -192t78 -190q78 -78 189 -78zM514 257q-177 0 -305 123q-127 123 -127 308q0 123 63 224q63 100 167 156t223 56q120 0 224 -55q103 -55 167 -156t64 -227t-63 -226l-428 -671h-204l313 487
q-41 -19 -94 -19z" />
    <glyph glyph-name="cent_osf" horiz-adv-x="1153" 
d="M249 598q0 -168 100 -293t254 -155v898q-155 -31 -255 -156q-100 -126 -99 -294zM732 1380v-159q191 -12 359 -139l-95 -141q-146 99 -264 112v-910q144 16 275 124l97 -141q-160 -134 -372 -149v-162h-129v167q-237 30 -389 204t-152 414t152 414q154 174 389 203v163
h129z" />
    <glyph glyph-name="sterling_osf" horiz-adv-x="1039" 
d="M762 909q-60 147 -212 147q-78 0 -135 -52t-57 -123t58 -204q7 -17 21 -54h337v-149h-300q3 -28 3 -55q0 -143 -107 -253h570v-166h-806v157q153 104 155 262q0 25 -5 55h-158v149h113q-2 3 -5 9q-65 140 -64 239q0 147 111 249t257 102t244 -66q97 -67 140 -168z" />
    <glyph glyph-name="yen_osf" horiz-adv-x="1155" 
d="M1007 620v-119h-328l-7 -13v-67h335v-118h-335v-303h-189v303h-335v118h335v67l-8 13h-327v119h250l-372 578h210l342 -531l342 531h209l-373 -578h251z" />
    <glyph glyph-name="florin_osf" horiz-adv-x="741" 
d="M443 663v-563q0 -161 -84 -240t-258 -79q-57 0 -107 7v165q49 -5 116 -5t107 38q39 38 39 116v561h-158v166h158v57q0 161 84 240t258 79q57 0 108 -7v-165q-48 5 -116 5t-107 -38t-40 -116v-55h263v-166h-263z" />
    <glyph glyph-name="Euro_osf" horiz-adv-x="1214" 
d="M769 141q153 0 301 126l98 -141q-180 -151 -406 -151q-226 1 -390 123t-220 320h-128v118h105q-3 30 -3 60t1 43h-103v119h121q51 206 217 336t388 130t404 -141l-94 -141q-162 116 -306 116t-256 -83t-158 -217h481v-119h-506q-1 -13 -1 -45t4 -58h503v-118h-473
q50 -125 159 -201t262 -76z" />
    <glyph glyph-name="zero.tnum_osf" horiz-adv-x="1095" 
d="M299 550q0 -189 65 -299t184 -110t184 110t65 299t-65 298t-184 109t-184 -109t-65 -298zM111 550q0 259 115 417q115 157 322 157t322 -158t115 -416q0 -259 -115 -417t-322 -158t-322 158t-115 417z" />
    <glyph glyph-name="one.tnum_osf" horiz-adv-x="1095" 
d="M707 1100v-1100h-190v907l-246 -123l-71 149l340 167h167z" />
    <glyph glyph-name="two.tnum_osf" horiz-adv-x="1095" 
d="M548 1124q175 0 289 -90t114 -235q-1 -92 -45 -171t-138 -167l-316 -295h487v-166h-768v151l454 418q137 128 137 229q0 72 -60 116t-154 43q-181 0 -242 -165l-160 64q99 268 402 268z" />
    <glyph glyph-name="three.tnum_osf" horiz-adv-x="1095" 
d="M762 197q0 111 -79 189t-196 78q-42 0 -77 -13l-77 95l323 385h-497v169h732v-162l-298 -347q160 -23 259 -138t99 -275t-123 -284q-128 -130 -348 -130q-114 0 -220 59t-176 167l131 108q111 -169 272 -169q117 0 196 78t79 190z" />
    <glyph glyph-name="four.tnum_osf" horiz-adv-x="1095" 
d="M651 220v567l-371 -567h371zM66 54v160l589 886h185v-880h150v-166h-150v-265h-189v265h-585z" />
    <glyph glyph-name="five.tnum_osf" horiz-adv-x="1095" 
d="M510 -236q-127 0 -233 58t-176 164l138 110q109 -166 266 -166q117 0 194 76t77 190t-77 190t-194 76q-65 0 -119 -29t-85 -75l-135 17l80 725h672v-167h-504l-42 -361q72 53 174 54q174 0 296 -118t122 -308q0 -192 -124 -314q-125 -122 -330 -122z" />
    <glyph glyph-name="six.tnum_osf" horiz-adv-x="1095" 
d="M813 411q0 114 -78 191q-79 77 -189 77t-187 -78t-77 -191t77 -191t188 -78t189 78t77 192zM790 1313l-315 -491q41 20 94 21q115 -1 214 -55t159 -154t60 -223t-64 -224q-62 -101 -166 -156t-224 -55t-223 54q-104 56 -168 157q-63 101 -63 225t64 227l429 674h203z" />
    <glyph glyph-name="seven.tnum_osf" horiz-adv-x="1095" 
d="M148 1100h804v-153l-481 -1158h-211l479 1144h-591v167z" />
    <glyph glyph-name="eight.tnum_osf" horiz-adv-x="1095" 
d="M548 795q83 1 141 57t59 133q0 77 -58 132t-142 55q-83 0 -141 -56q-59 -54 -59 -131t58 -133t142 -57zM548 635q-109 0 -184 -73q-75 -72 -75 -174t75 -175t184 -73t184 73t75 175t-75 174q-75 73 -184 73zM548 -25q-188 1 -318 119t-130 291q0 113 62 204t168 134
q-72 37 -118 110t-46 155q0 146 109 248t273 101q164 0 273 -101t109 -248q0 -82 -46 -155t-118 -110q105 -43 167 -134t62 -204q1 -173 -129 -291t-318 -119z" />
    <glyph glyph-name="nine.tnum_osf" horiz-adv-x="1095" 
d="M283 688q-1 -114 77 -190q78 -78 189 -78t188 78t77 191t-77 191t-189 78t-188 -78q-77 -78 -77 -192zM526 257q-177 0 -304 123t-128 308q0 123 64 224q64 100 166 156q104 56 224 56t223 -55t167 -156t64 -227t-63 -226l-428 -671h-204l314 487q-41 -19 -95 -19z" />
    </font>
</defs>
</svg>
